<?xml version="1.0" encoding="UTF-8"?>
<svg version="1.1" xmlns="http://www.w3.org/2000/svg" width="512" height="512">
<path d="M0 0 C1.22989356 -0.00694553 2.45978711 -0.01389106 3.72695017 -0.02104706 C7.13817738 -0.03618297 10.54853356 -0.03336433 13.9597218 -0.02289402 C17.63942079 -0.0159067 21.31903027 -0.0318963 24.998703 -0.04489136 C32.20608106 -0.06654405 39.4133013 -0.06640133 46.62070119 -0.05826581 C52.47772521 -0.05196871 58.33470316 -0.05310018 64.19172668 -0.05953789 C65.02498935 -0.06043954 65.85825202 -0.0613412 66.71676508 -0.06227018 C68.40946576 -0.06412135 70.10216644 -0.06598391 71.7948671 -0.06785773 C87.67131708 -0.08444044 103.54767822 -0.07571281 119.42412287 -0.05887216 C133.95402317 -0.04417275 148.48371672 -0.0588061 163.0135904 -0.08764232 C177.9288291 -0.1170232 192.84397234 -0.12801256 207.75923872 -0.11846012 C209.44574958 -0.11743755 211.13226047 -0.11644294 212.81877136 -0.11547661 C214.0634994 -0.11476202 214.0634994 -0.11476202 215.33337346 -0.114033 C221.18410314 -0.11186725 227.0347426 -0.12168144 232.88545227 -0.13624763 C240.01453132 -0.15374877 247.14334669 -0.15368564 254.27241528 -0.13089598 C257.91060973 -0.11973369 261.54833924 -0.11663548 265.1865139 -0.13519669 C269.12808656 -0.15504726 273.06892832 -0.13626152 277.01049805 -0.11352539 C278.16369868 -0.12536112 279.31689931 -0.13719685 280.50504541 -0.14939123 C285.24248488 -0.09363028 288.13956023 -0.02427414 292.21523857 2.51305485 C294.54866903 6.42590658 294.70110304 9.73894448 294.64016724 14.16859436 C294.64796719 15.03913531 294.65576714 15.90967626 294.66380346 16.80659723 C294.68374586 19.72338853 294.66795015 22.63887836 294.65222168 25.55567932 C294.65899679 27.64680748 294.66789932 29.73792966 294.67877197 31.82904053 C294.7015843 37.50879963 294.69272076 43.18810511 294.67687654 48.86787224 C294.6642277 54.80862028 294.67595484 60.74932919 294.68380737 66.69007874 C294.69290686 76.66699709 294.68090804 86.64373045 294.65710449 96.62062073 C294.6298928 108.15931667 294.63870674 119.69757089 294.66623652 131.23625612 C294.68891792 141.13872706 294.69213236 151.04106493 294.67904317 160.94355345 C294.67124339 166.85981202 294.67022172 172.77586289 294.68672562 178.69210815 C294.70115685 184.25397761 294.69117274 189.81527694 294.66225433 195.37708473 C294.65563639 197.41970179 294.65755322 199.46236674 294.66856766 201.50496483 C294.68220657 204.29087113 294.66512761 207.07494399 294.64016724 209.86073303 C294.65132084 210.67153021 294.66247445 211.48232739 294.67396605 212.31769419 C294.60821701 216.09376426 294.12642309 218.32705264 292.06548595 221.51795483 C287.7815169 224.31311063 284.42287491 224.19643397 279.40653992 224.11593628 C277.94842887 224.12234447 277.94842887 224.12234447 276.46086103 224.12888211 C273.20069416 224.13712382 269.94181121 224.10960651 266.6817627 224.08229065 C264.34607982 224.08088044 262.01039472 224.08167162 259.67471313 224.08450317 C253.32997666 224.08593977 246.98571127 224.05650977 240.64108443 224.02163339 C234.68349657 223.99357347 228.72592712 223.98851908 222.76828209 223.98337402 C210.96900829 223.97243431 199.16990745 223.939169 187.37072754 223.89186096 C175.90979883 223.84595694 164.44891713 223.8105692 152.98791504 223.7893219 C152.2813107 223.78800828 151.57470637 223.78669466 150.84668978 223.78534124 C147.30181836 223.77881599 143.75694661 223.77249747 140.21207464 223.76628172 C110.80968792 223.71445881 81.40747032 223.62603036 52.00524902 223.5146637 C51.70505859 224.29639954 51.40486816 225.07813538 51.09558105 225.88356018 C48.35690846 232.49230953 43.23403506 236.95462512 36.80212402 239.82325745 C33.16650954 241.22217867 30.26468398 241.7044399 26.38024902 241.7646637 C25.3979834 241.79044495 24.41571777 241.8162262 23.40368652 241.8427887 C15.68915082 241.09793697 9.1880365 237.7881613 2.56774902 233.9521637 C1.17349025 233.15871595 -0.22105877 232.3657781 -1.61584473 231.57325745 C-2.39169922 231.12965881 -3.16755371 230.68606018 -3.96691895 230.22901917 C-10.94892939 226.27581183 -17.97707076 222.40409823 -24.99475098 218.5146637 C-25.00061722 219.1881636 -25.00648346 219.86166351 -25.01252747 220.55557251 C-25.07657723 227.58021451 -25.16102734 234.60440329 -25.25720215 241.62867737 C-25.29040841 244.24840816 -25.31845364 246.86820976 -25.34118652 249.48805237 C-25.37481052 253.25894781 -25.42713293 257.02919692 -25.48303223 260.79981995 C-25.48942215 261.96674881 -25.49581207 263.13367767 -25.50239563 264.33596802 C-25.61228564 270.44617117 -25.87698299 275.18443448 -28.99475098 280.5146637 C-32.95440068 283.15443016 -36.37950386 282.80998218 -40.97668457 282.80519104 C-41.89568039 282.81190826 -42.81467621 282.81862549 -43.76152039 282.82554626 C-46.80546446 282.84457458 -49.8491886 282.84845293 -52.89318848 282.8506012 C-55.00684704 282.85702588 -57.1205047 282.86375399 -59.23416138 282.87077332 C-63.66772524 282.88275826 -68.10121111 282.8864529 -72.53479004 282.88526917 C-78.21678114 282.88506594 -83.89827229 282.91236705 -89.58014488 282.94681358 C-93.94674986 282.96904826 -98.31323388 282.97310775 -102.67988968 282.97204971 C-104.77467191 282.97441089 -106.86945723 282.98326335 -108.96418381 282.99871445 C-111.89448827 283.01830425 -114.82370647 283.01256373 -117.75402832 283.00050354 C-118.61965897 283.01174255 -119.48528961 283.02298157 -120.37715149 283.03456116 C-124.44999596 282.99195267 -126.48736274 282.8353089 -130.00979614 280.60929871 C-133.40748386 277.02386919 -133.24799312 274.24942994 -133.55725098 269.3896637 C-133.64104004 268.10833557 -133.7248291 266.82700745 -133.81115723 265.5068512 C-133.87174316 264.51942932 -133.9323291 263.53200745 -133.99475098 262.5146637 C-134.76818848 262.56106995 -135.54162598 262.6074762 -136.33850098 262.6552887 C-144.49122577 262.93780886 -149.73521996 262.24175333 -155.93225098 256.8193512 C-163.23254604 249.30613086 -164.46214982 240.26172885 -164.35803223 230.1084137 C-164.35853073 229.14423523 -164.35902924 228.18005676 -164.35954285 227.18666077 C-164.35721692 225.15632557 -164.34757681 223.12598669 -164.33093262 221.09571838 C-164.30752409 218.05019628 -164.31036146 215.00556452 -164.3170166 211.9599762 C-164.27558236 182.54824781 -160.27284746 150.21028514 -139.05725098 127.8271637 C-127.20483591 116.94266542 -112.81036363 115.04592918 -97.24475098 115.08106995 C-95.85575103 115.07649227 -94.46675333 115.07118209 -93.07775879 115.06518555 C-90.18671381 115.05632279 -87.29594609 115.05859931 -84.40490723 115.06861877 C-80.73366674 115.08011429 -77.06338742 115.05985412 -73.39227295 115.03070164 C-70.5300101 115.01219835 -67.66797183 115.0126596 -64.80566406 115.01833916 C-62.80518474 115.01856318 -60.80472598 115.00180958 -58.80432129 114.98452759 C-43.87970782 115.09728289 -32.67327773 119.61927966 -22.22521973 130.22169495 C-21.4288208 131.02711731 -20.63242188 131.83253967 -19.81188965 132.66236877 C-19.21223389 133.2736261 -18.61257812 133.88488342 -17.99475098 134.5146637 C-17.99420621 133.84836567 -17.99366144 133.18206764 -17.99310017 132.49557877 C-17.97813685 116.28763109 -17.93570863 100.0800122 -17.86266041 83.87222672 C-17.82799806 76.03425734 -17.80265328 68.19646407 -17.79919434 60.3584137 C-17.79615614 53.52723153 -17.7756856 46.69636289 -17.73422641 39.86530185 C-17.71288101 36.24775843 -17.70030334 32.63066088 -17.70859718 29.01305389 C-17.71752683 24.97571516 -17.68753965 20.93956971 -17.6541748 16.90235901 C-17.66280045 15.7011441 -17.67142609 14.4999292 -17.68031311 13.26231384 C-17.66502563 12.16297516 -17.64973816 11.06363647 -17.63398743 9.9309845 C-17.63122205 8.97600697 -17.62845667 8.02102943 -17.62560749 7.03711319 C-16.99475098 4.5146637 -16.99475098 4.5146637 -15.20447063 2.20831013 C-10.2478283 -0.40712066 -5.52371342 -0.03947243 0 0 Z M0.00524902 17.5146637 C-0.07725098 41.6871637 -0.15975098 65.8596637 -0.24475098 90.7646637 C-0.28116699 98.40268127 -0.31758301 106.04069885 -0.35510254 113.91017151 C-0.36847866 120.74522039 -0.36847866 120.74522039 -0.37652588 127.58027649 C-0.3802589 130.62938532 -0.39527359 133.67821677 -0.41705322 136.72724915 C-0.44445398 140.61459784 -0.4527225 144.50154217 -0.44704008 148.38897848 C-0.44822859 149.81682518 -0.45618226 151.24468576 -0.4716115 152.67244959 C-0.49146832 154.59918362 -0.48433231 156.52613983 -0.47576904 158.45295715 C-0.47945621 159.53329853 -0.48314339 160.61363991 -0.48694229 161.7267189 C0.12849978 165.21279934 1.28693854 166.32071151 4.00524902 168.5146637 C7.65526888 170.80816887 11.4494531 172.8208696 15.25061035 174.85279846 C17.07246019 175.82968987 18.88357346 176.8247057 20.69470215 177.82130432 C21.84003418 178.43812073 22.98536621 179.05493713 24.16540527 179.69044495 C25.21349365 180.25674622 26.26158203 180.82304749 27.34143066 181.4065094 C30.03569001 182.86915759 30.03569001 182.86915759 33.00524902 181.5146637 C34.32996365 180.02806283 34.32996365 180.02806283 35.51037598 178.13844299 C35.98596954 177.42159836 36.46156311 176.70475372 36.9515686 175.96618652 C37.46041595 175.18167618 37.96926331 174.39716583 38.49353027 173.58888245 C39.02896454 172.77806717 39.5643988 171.96725189 40.11605835 171.13186646 C41.26263689 169.39403447 42.40562491 167.65382927 43.54537964 165.91151428 C46.48782707 161.41351192 49.45483042 156.93175541 52.41931152 152.44825745 C52.99684677 151.57327606 53.57438202 150.69829468 54.16941833 149.79679871 C58.4113939 143.3800573 62.74053948 137.03791399 67.19274902 130.7646637 C71.66344939 124.46123723 75.97840516 118.11505439 80.00524902 111.5146637 C85.23759652 113.42916385 89.44323539 116.38253493 94.00524902 119.5146637 C90.72421932 125.66617144 87.13442313 131.45645337 83.14587402 137.1709137 C81.99105241 138.84242629 80.83677864 140.51431747 79.6829834 142.1865387 C79.08219971 143.05536682 78.48141602 143.92419495 77.86242676 144.8193512 C72.75560628 152.23085351 67.7289879 159.69754856 62.68933105 167.15480042 C61.37990724 169.09100221 60.06899048 171.02619505 58.75671387 172.96046448 C56.83099193 175.79919127 54.90980461 178.64093667 52.98962402 181.4834137 C52.10702911 182.78164063 52.10702911 182.78164063 51.206604 184.10609436 C50.39875458 185.30510376 50.39875458 185.30510376 49.57458496 186.52833557 C49.10083435 187.22825623 48.62708374 187.92817688 48.13897705 188.64930725 C46.84656061 190.61990769 46.84656061 190.61990769 46.00524902 193.5146637 C46.58274902 194.2365387 47.16024902 194.9584137 47.75524902 195.7021637 C50.00524902 198.5146637 50.00524902 198.5146637 53.00524902 206.5146637 C126.92524902 206.5146637 200.84524902 206.5146637 277.00524902 206.5146637 C277.00524902 144.1446637 277.00524902 81.7746637 277.00524902 17.5146637 C185.59524902 17.5146637 94.18524902 17.5146637 0.00524902 17.5146637 Z M-128.99475098 142.5146637 C-130.72764562 144.81452487 -132.12353326 147.23557717 -133.49475098 149.7646637 C-133.87639404 150.45850159 -134.25803711 151.15233948 -134.65124512 151.86720276 C-137.30965437 156.86060292 -139.51995326 161.94274887 -141.43225098 167.2646637 C-141.66686035 167.91209534 -141.90146973 168.55952698 -142.14318848 169.22657776 C-145.56283256 179.37927848 -146.30427174 189.75130545 -146.29553223 200.39356995 C-146.29981735 201.56806198 -146.30410248 202.74255402 -146.30851746 203.95263672 C-146.31421655 206.41056171 -146.31479402 208.86850356 -146.3104248 211.32643127 C-146.30723297 215.09844536 -146.33088895 218.86969759 -146.3560791 222.64161682 C-146.35834927 225.03810021 -146.35905691 227.4345857 -146.35803223 229.83106995 C-146.36724197 230.95912552 -146.37645172 232.08718109 -146.38594055 233.24942017 C-146.37971176 234.29158188 -146.37348297 235.33374359 -146.36706543 236.40748596 C-146.36769485 237.32393387 -146.36832428 238.24038177 -146.36897278 239.18460083 C-145.91937535 241.98398414 -145.24285339 242.83650507 -142.99475098 244.5146637 C-140.08470195 245.59689736 -140.08470195 245.59689736 -136.99475098 245.5146637 C-134.23298601 243.43376622 -133.12328702 242.22653446 -132.50268555 238.78945923 C-132.50586792 237.74752914 -132.50905029 236.70559906 -132.5123291 235.63209534 C-132.50211731 233.85488853 -132.50211731 233.85488853 -132.49169922 232.04177856 C-132.5030188 230.76568222 -132.51433838 229.48958588 -132.52600098 228.17481995 C-132.51523031 226.16685209 -132.50443771 224.15888407 -132.49234772 222.15092373 C-132.47329482 217.91347344 -132.48977924 213.67601415 -132.49981689 209.43855286 C-132.50670948 205.94980742 -132.50585772 202.46147654 -132.48486328 198.97277832 C-132.47084461 196.35738468 -132.47456668 193.74182335 -132.49780273 191.12649536 C-132.49099487 189.93853867 -132.48418701 188.75058197 -132.47717285 187.52662659 C-132.48035522 186.48390091 -132.4835376 185.44117523 -132.48681641 184.36685181 C-131.86865347 180.78375725 -130.50201082 179.09882048 -127.99475098 176.5146637 C-125.04981715 175.65548915 -123.13342749 176.1161016 -119.99475098 176.5146637 C-118.27568054 177.53121948 -118.27568054 177.53121948 -116.99475098 179.5146637 C-116.68502993 182.33097872 -116.55727901 184.93087333 -116.56237793 187.74977112 C-116.55218628 188.58901627 -116.54199463 189.42826141 -116.53149414 190.29293823 C-116.50128419 193.06873684 -116.49208606 195.84419082 -116.48303223 198.62013245 C-116.46619146 200.54399774 -116.44804204 202.467852 -116.42863464 204.39169312 C-116.38106309 209.45675709 -116.35130004 214.52177631 -116.32519531 219.58699036 C-116.29019239 225.66356845 -116.23315939 231.73997456 -116.17980194 237.81641388 C-116.10120418 247.04914233 -116.05066193 256.28164436 -115.99475098 265.5146637 C-92.23475098 265.5146637 -68.47475098 265.5146637 -43.99475098 265.5146637 C-43.95736816 260.01423401 -43.91998535 254.51380432 -43.88146973 248.84669495 C-43.8511907 245.36033558 -43.82004334 241.87402732 -43.7857666 238.38771057 C-43.73145392 232.85510332 -43.68034349 227.32259716 -43.64831543 221.78981018 C-43.62228987 217.32871161 -43.58189281 212.86795271 -43.53156471 208.40706444 C-43.51489093 206.70588598 -43.50337983 205.00464876 -43.49713707 203.30340004 C-43.48750141 200.91878856 -43.45944963 198.53504704 -43.42712402 196.15065002 C-43.42927666 195.09760429 -43.42927666 195.09760429 -43.43147278 194.02328491 C-43.34114155 189.3060359 -42.38674808 185.9066608 -38.99475098 182.5146637 C-31.69845099 182.04393466 -31.69845099 182.04393466 -29.27209473 183.66700745 C-27.06703363 186.85659123 -27.46157836 190.62597256 -27.30334473 194.40919495 C-25.15752656 199.50150971 -20.74651478 201.03949404 -15.99475098 203.5146637 C-14.36146851 204.40399597 -14.36146851 204.40399597 -12.69519043 205.31129456 C-9.11892479 207.25535827 -5.5281042 209.16971508 -1.93225098 211.0771637 C-0.09942111 212.05190807 1.73299895 213.02741525 3.56509399 214.00354004 C5.31350802 214.93507944 7.06244872 215.86563009 8.81140137 216.79615784 C12.30706516 218.67706117 15.76743316 220.61308064 19.20910645 222.59083557 C22.83220264 224.45433917 25.70422531 224.82443125 29.63024902 223.8896637 C33.58712443 221.59884109 35.5310523 218.96886699 36.94274902 214.6396637 C37.02328917 210.61265647 36.457145 207.69875471 34.00524902 204.5146637 C32.03905083 203.03763619 32.03905083 203.03763619 29.68493652 201.7334137 C28.78960205 201.2158551 27.89426758 200.69829651 26.97180176 200.16505432 C20.54789443 196.59122389 14.05228587 193.15446551 7.5501709 189.7256012 C-11.04854869 179.82082853 -11.04854869 179.82082853 -16.86975098 169.7021637 C-17.89114761 168.01421643 -18.91330008 166.32672633 -19.93615723 164.6396637 C-20.44291992 163.78888245 -20.94968262 162.9381012 -21.47180176 162.0615387 C-23.85825438 158.07060029 -26.31789049 154.12950209 -28.80725098 150.2021637 C-29.22667969 149.51597961 -29.6461084 148.82979553 -30.07824707 148.12281799 C-35.88596926 138.95243147 -42.48601755 135.14964003 -52.99475098 132.5146637 C-57.06447324 132.02572743 -61.05979937 131.99719277 -65.15490723 132.0537262 C-66.82159706 132.05510086 -66.82159706 132.05510086 -68.5219574 132.0565033 C-70.8522066 132.06249978 -73.18244955 132.07812495 -75.51257324 132.1030426 C-79.05184775 132.13960787 -82.5900725 132.14406062 -86.1295166 132.14356995 C-88.4088224 132.15340183 -90.6881212 132.16505914 -92.96740723 132.1787262 C-94.01042496 132.18095184 -95.05344269 132.18317749 -96.12806702 132.18547058 C-108.25057095 132.33991602 -120.03799401 133.58115216 -128.99475098 142.5146637 Z " fill="#FFC106" transform="translate(185.9947509765625,-0.5146636962890625)"/>
<path d="M0 0 C12.98145944 10.4546723 21.06243447 23.18604815 24.10253906 39.59765625 C24.5123943 44.16364642 24.57051411 48.6986538 24.57128906 53.28125 C24.57890259 54.53978287 24.58651611 55.79831573 24.59436035 57.09498596 C24.60781682 60.40238807 24.60580574 63.70937859 24.59997559 67.01678467 C24.60340734 69.71879961 24.63643787 72.42016229 24.66863251 75.12196255 C24.7007055 78.36253198 24.69639335 81.6030463 24.69628906 84.84375 C24.71268433 86.04897812 24.72907959 87.25420624 24.74597168 88.49595642 C24.73666626 89.61805008 24.72736084 90.74014374 24.71777344 91.89624023 C24.71982788 92.87930649 24.72188232 93.86237274 24.72399902 94.87522888 C23.77689241 99.02421533 22.68969616 100.23051195 19.10253906 102.59765625 C14.59788819 103.34065421 10.13536809 103.25930546 5.57910156 103.21289062 C4.18747278 103.2163934 2.795848 103.22205374 1.40423584 103.22970581 C-2.36867731 103.24394151 -6.14086058 103.22690499 -9.91370392 103.20342064 C-13.86450411 103.18329714 -17.81527443 103.18919197 -21.76611328 103.19152832 C-28.40051291 103.19147476 -35.03462758 103.17172763 -41.66894531 103.13964844 C-49.33584736 103.10275621 -57.00237617 103.09397303 -64.66935539 103.10094595 C-72.04892891 103.10725431 -79.42837464 103.09649052 -86.80792236 103.07698059 C-89.94657209 103.06881233 -93.08515645 103.06609598 -96.22381592 103.06767273 C-99.92082119 103.06855261 -103.61747257 103.05430819 -107.31438446 103.0284462 C-109.31602754 103.01788415 -111.3177311 103.0219532 -113.31939697 103.02645874 C-115.11108307 103.00943405 -115.11108307 103.00943405 -116.93896484 102.99206543 C-117.97501862 102.98833672 -119.01107239 102.984608 -120.07852173 102.9807663 C-124.30429779 102.40645903 -126.9230525 100.57206468 -129.89746094 97.59765625 C-130.15142822 95.55989075 -130.15142822 95.55989075 -130.15625 93.01879883 C-130.16255432 92.06632767 -130.16885864 91.11385651 -130.175354 90.13252258 C-130.17130554 89.09621201 -130.16725708 88.05990143 -130.16308594 86.9921875 C-130.16499939 85.92079025 -130.16691284 84.84939301 -130.16888428 83.74552917 C-130.17024855 81.4664995 -130.16653532 79.18746212 -130.15820312 76.90844727 C-130.14764279 73.46937824 -130.15801902 70.03084807 -130.17089844 66.59179688 C-130.19937834 26.21501419 -130.19937834 26.21501419 -115.89746094 10.59765625 C-115.1665625 9.77523438 -114.43566406 8.9528125 -113.68261719 8.10546875 C-107.51254993 1.52539702 -100.79852701 -3.10054529 -92.89746094 -7.40234375 C-92.01445313 -7.88574219 -91.13144531 -8.36914062 -90.22167969 -8.8671875 C-61.702488 -23.10514511 -25.38972663 -18.76461526 0 0 Z M-101.89746094 20.59765625 C-116.74191698 40.13308384 -111.89746094 58.47548292 -111.89746094 84.59765625 C-72.62746094 84.59765625 -33.35746094 84.59765625 7.10253906 84.59765625 C9.40623121 49.18063002 9.40623121 49.18063002 -4.89746094 18.84765625 C-19.60511355 5.27136153 -39.23631259 -0.27069959 -58.90820312 0.46142578 C-73.73570617 1.47685861 -91.78874526 9.53753204 -101.89746094 20.59765625 Z " fill="#FFC007" transform="translate(137.8974609375,409.40234375)"/>
<path d="M0 0 C12.98145944 10.4546723 21.06243447 23.18604815 24.10253906 39.59765625 C24.5123943 44.16364642 24.57051411 48.6986538 24.57128906 53.28125 C24.57890259 54.53978287 24.58651611 55.79831573 24.59436035 57.09498596 C24.60781682 60.40238807 24.60580574 63.70937859 24.59997559 67.01678467 C24.60340734 69.71879961 24.63643787 72.42016229 24.66863251 75.12196255 C24.7007055 78.36253198 24.69639335 81.6030463 24.69628906 84.84375 C24.71268433 86.04897812 24.72907959 87.25420624 24.74597168 88.49595642 C24.73666626 89.61805008 24.72736084 90.74014374 24.71777344 91.89624023 C24.71982788 92.87930649 24.72188232 93.86237274 24.72399902 94.87522888 C23.77689241 99.02421533 22.68969616 100.23051195 19.10253906 102.59765625 C14.59788819 103.34065421 10.13536809 103.25930546 5.57910156 103.21289062 C4.18747278 103.2163934 2.795848 103.22205374 1.40423584 103.22970581 C-2.36867731 103.24394151 -6.14086058 103.22690499 -9.91370392 103.20342064 C-13.86450411 103.18329714 -17.81527443 103.18919197 -21.76611328 103.19152832 C-28.40051291 103.19147476 -35.03462758 103.17172763 -41.66894531 103.13964844 C-49.33584736 103.10275621 -57.00237617 103.09397303 -64.66935539 103.10094595 C-72.04892891 103.10725431 -79.42837464 103.09649052 -86.80792236 103.07698059 C-89.94657209 103.06881233 -93.08515645 103.06609598 -96.22381592 103.06767273 C-99.92082119 103.06855261 -103.61747257 103.05430819 -107.31438446 103.0284462 C-109.31602754 103.01788415 -111.3177311 103.0219532 -113.31939697 103.02645874 C-115.11108307 103.00943405 -115.11108307 103.00943405 -116.93896484 102.99206543 C-117.97501862 102.98833672 -119.01107239 102.984608 -120.07852173 102.9807663 C-123.37638865 102.53256722 -125.2315761 101.56559414 -127.89746094 99.59765625 C-130.01616405 96.41960159 -130.14917681 95.63582492 -130.15625 91.99707031 C-130.16255432 91.06469543 -130.16885864 90.13232056 -130.175354 89.17169189 C-130.17130554 88.16241638 -130.16725708 87.15314087 -130.16308594 86.11328125 C-130.16499939 85.065495 -130.16691284 84.01770874 -130.16888428 82.93817139 C-130.17024714 80.71219646 -130.16654366 78.48621362 -130.15820312 76.26025391 C-130.14763351 72.90247957 -130.15802778 69.5452562 -130.17089844 66.1875 C-130.18535213 46.1610201 -130.19923515 26.21485783 -115.89746094 10.59765625 C-115.1665625 9.77523438 -114.43566406 8.9528125 -113.68261719 8.10546875 C-107.51254993 1.52539702 -100.79852701 -3.10054529 -92.89746094 -7.40234375 C-92.01445312 -7.88574219 -91.13144531 -8.36914062 -90.22167969 -8.8671875 C-61.702488 -23.10514511 -25.38972663 -18.76461526 0 0 Z M-101.89746094 20.59765625 C-116.74191698 40.13308384 -111.89746094 58.47548292 -111.89746094 84.59765625 C-72.62746094 84.59765625 -33.35746094 84.59765625 7.10253906 84.59765625 C9.41316521 48.33529325 9.41316521 48.33529325 -5.64746094 18.34765625 C-18.60789302 6.14815863 -37.0384877 0.07337531 -54.60791016 0.24414062 C-71.10366269 0.76229305 -90.56951221 8.20354764 -101.89746094 20.59765625 Z " fill="#FFC007" transform="translate(308.8974609375,409.40234375)"/>
<path d="M0 0 C1.3752251 1.16304752 2.72956745 2.35121373 4.0625 3.5625 C5.19751953 4.56023437 5.19751953 4.56023437 6.35546875 5.578125 C16.79009656 15.29613683 23.47964205 28.11775629 24.20967102 42.45228577 C24.21951523 43.45424484 24.22935944 44.45620392 24.23950195 45.48852539 C24.25875481 47.20544334 24.25875481 47.20544334 24.27839661 48.95704651 C24.28578354 50.17907272 24.29317047 51.40109894 24.30078125 52.66015625 C24.308853 53.9271788 24.31692474 55.19420135 24.32524109 56.49961853 C24.33904542 59.17336657 24.35007417 61.84699284 24.35766602 64.52075195 C24.36876663 67.93943671 24.40323551 71.35747712 24.44283772 74.77593327 C24.47529125 78.04977657 24.47977835 81.32367661 24.48828125 84.59765625 C24.50578934 85.8217067 24.52329742 87.04575714 24.54133606 88.30690002 C24.53694771 90.01908974 24.53694771 90.01908974 24.5324707 91.76586914 C24.53833694 92.76703262 24.54420319 93.76819611 24.55024719 94.79969788 C23.91126102 98.41918024 22.63438894 99.95826682 20.0625 102.5625 C17.35099125 103.18611908 17.35099125 103.18611908 14.18629456 103.18395996 C12.98479767 103.19516876 11.78330078 103.20637756 10.5453949 103.21792603 C9.23047562 103.20466278 7.91555634 103.19139954 6.56079102 103.17773438 C5.15945768 103.18123603 3.75812833 103.18689512 2.35681152 103.19454956 C-1.44714886 103.20880259 -5.25038681 103.19173094 -9.05427814 103.16826439 C-13.03578089 103.14815973 -17.01725352 103.15403481 -20.99879456 103.15637207 C-27.68624791 103.15631849 -34.37341884 103.13655691 -41.06079102 103.10449219 C-48.78958747 103.06761387 -56.51801372 103.05881444 -64.24688667 103.0657897 C-71.68358888 103.07209822 -79.12016428 103.061333 -86.5568409 103.04182434 C-89.72061026 103.03365486 -92.88431477 103.03093997 -96.0480938 103.03251648 C-99.77545331 103.03339637 -103.50246181 103.01915161 -107.2297287 102.99328995 C-109.24808038 102.98272707 -111.26649204 102.98679714 -113.28486633 102.99130249 C-114.48918304 102.9799527 -115.69349976 102.96860291 -116.93431091 102.95690918 C-118.50140131 102.95131611 -118.50140131 102.95131611 -120.10015011 102.94561005 C-123.4092959 102.49879628 -125.26408826 101.53844445 -127.9375 99.5625 C-130.05865872 96.38076192 -130.18923014 95.59083782 -130.19628906 91.94604492 C-130.20259338 91.01044235 -130.20889771 90.07483978 -130.21539307 89.11088562 C-130.2113446 88.09847305 -130.20729614 87.08606049 -130.203125 86.04296875 C-130.20503845 84.99281082 -130.2069519 83.94265289 -130.20892334 82.860672 C-130.21028609 80.63050091 -130.20658342 78.40032192 -130.19824219 76.17016602 C-130.18766146 72.80140647 -130.1980731 69.43319472 -130.2109375 66.06445312 C-130.22635545 43.63905199 -128.82063347 23.33032769 -112.375 6.4375 C-106.51945005 0.654422 -100.21063111 -3.55185461 -92.9375 -7.4375 C-92.05707031 -7.91832031 -91.17664063 -8.39914062 -90.26953125 -8.89453125 C-61.82882067 -23.13639994 -25.29198919 -18.82702477 0 0 Z M-101.9375 20.5625 C-116.78980614 40.0843953 -111.9375 58.44626389 -111.9375 84.5625 C-72.6675 84.5625 -33.3975 84.5625 7.0625 84.5625 C9.45943938 48.51845232 9.45943938 48.51845232 -5.125 18.1796875 C-18.78644462 5.99038131 -38.3404724 -0.6963713 -56.54296875 0.12109375 C-72.41864928 1.39697674 -91.29496643 8.28827364 -101.9375 20.5625 Z " fill="#FFC007" transform="translate(479.9375,409.4375)"/>
<path d="M0 0 C10.32681291 9.16881392 15.98587451 20.73398777 17.21484375 34.38671875 C17.73059159 47.19789502 13.79351556 58.15652693 5.5859375 67.8515625 C-3.40149571 77.46060493 -13.63891677 83.20521677 -26.80078125 84.21484375 C-41.70573776 84.69814325 -52.9590501 79.98150369 -63.75 69.875 C-72.69351991 60.55198136 -76.79765651 49.97621219 -77.3125 37.1875 C-76.94105068 23.26907546 -71.71136627 12.19281738 -62.3203125 2.10546875 C-44.57965418 -13.99253602 -18.89013144 -13.84753757 0 0 Z M-51.875 16.75 C-57.76374499 24.23970403 -59.81268022 30.82614819 -59.51171875 40.42578125 C-58.45647048 47.79640851 -55.15106042 54.39386877 -49.6875 59.5 C-47.90661235 60.84350434 -47.90661235 60.84350434 -46 62 C-45.35546875 62.40992188 -44.7109375 62.81984375 -44.046875 63.2421875 C-37.38598388 66.81933273 -30.38621835 67.05748044 -23 66 C-15.46291355 63.51688537 -9.24165258 59.79788029 -5 53 C-4.59007812 52.35546875 -4.18015625 51.7109375 -3.7578125 51.046875 C-0.18066727 44.38598388 0.05748044 37.38621835 -1 30 C-3.50890302 22.38463711 -7.24588506 16.38654347 -14 12 C-14.54785156 11.59007812 -15.09570312 11.18015625 -15.66015625 10.7578125 C-27.09292495 3.47099289 -43.07072451 7.48234159 -51.875 16.75 Z " fill="#FFC106" transform="translate(135,23)"/>
<path d="M0 0 C12.4852557 10.09446206 18.28403689 18.74510137 20.2265625 34.7578125 C20.65914628 45.41510386 17.52000302 55.09215733 10.9375 63.375 C10.174375 64.426875 9.41125 65.47875 8.625 66.5625 C0.54152672 75.02194878 -10.44397566 79.78864879 -22.10546875 80.47265625 C-34.78526685 80.05390466 -46.29546793 75.62684491 -55.0625 66.375 C-63.2981423 56.36237264 -67.10841764 45.37149507 -66.0625 32.375 C-64.04052869 18.54677247 -57.85126704 9.21901075 -47.0625 0.375 C-32.10620275 -8.28182371 -15.08166824 -8.00251784 0 0 Z M-43.0625 20.375 C-48.09434215 28.39322 -50.02282072 35.55241072 -47.921875 44.87890625 C-45.36592591 52.30277657 -39.65194364 57.32388935 -33 61.125 C-27.02045646 63.46482138 -20.35555925 63.4141842 -14.27734375 61.49609375 C-7.08500727 58.20909834 -2.85288877 53.83230245 0.75 46.875 C3.10805371 39.92494695 3.44890551 34.26408484 0.9375 27.375 C-2.8099146 20.04725297 -7.4737086 15.51643599 -14.875 12.0625 C-25.77481594 9.71155931 -35.23949822 12.19640723 -43.0625 20.375 Z " fill="#FFC006" transform="translate(279.0625,300.625)"/>
<path d="M0 0 C10.5337108 8.51661724 18.27675736 17.58160975 19.9375 31.375 C20.96065681 43.4701752 18.41927386 53.78837927 10.9375 63.375 C10.174375 64.426875 9.41125 65.47875 8.625 66.5625 C0.54152672 75.02194878 -10.44397566 79.78864879 -22.10546875 80.47265625 C-34.77271796 80.05431909 -46.30838987 75.63415495 -55.0625 66.375 C-62.95624382 56.50782022 -67.12688648 45.03152287 -66.0625 32.375 C-63.74238725 18.67354676 -57.69949327 9.13487681 -47.0625 0.375 C-32.19166156 -8.35897239 -15.01242441 -7.96577622 0 0 Z M-43.0625 20.375 C-47.3675665 27.23510597 -49.86953755 33.66517957 -48.4375 41.8125 C-46.49818121 49.40170086 -42.42521085 54.92110241 -36.0625 59.375 C-29.96284886 62.91279766 -24.02580511 63.3063975 -17.0625 62.375 C-10.14015819 60.19053029 -5.00848112 56.46383179 -1.0625 50.375 C2.5073687 43.48146044 3.71628307 37.23994586 1.7890625 29.7109375 C-1.30085244 21.2349323 -6.84474084 15.80995428 -14.875 12.0625 C-25.77481594 9.71155931 -35.23949822 12.19640723 -43.0625 20.375 Z " fill="#FFC006" transform="translate(450.0625,300.625)"/>
<path d="M0 0 C10.93368399 8.83999982 18.09398696 18.16458696 19.9375 32.375 C21.20931701 44.79792686 16.80107344 56.40317414 9.1875 66.0625 C1.18410846 74.86012123 -10.31009457 79.78079596 -22.10546875 80.47265625 C-34.77421009 80.05426981 -46.30918729 75.63253579 -55.0625 66.375 C-63.70682874 55.70409627 -67.02673842 45.08861313 -66.0625 31.375 C-64.07229451 18.15193978 -57.32992177 8.79164188 -47.0625 0.375 C-32.10620275 -8.28182371 -15.08166824 -8.00251784 0 0 Z M-43.0625 20.375 C-48.09434215 28.39322 -50.02282072 35.55241072 -47.921875 44.87890625 C-45.36592591 52.30277657 -39.65194364 57.32388935 -33 61.125 C-27.02045646 63.46482138 -20.35555925 63.4141842 -14.27734375 61.49609375 C-7.08500727 58.20909834 -2.85288877 53.83230245 0.75 46.875 C3.10805371 39.92494695 3.44890551 34.26408484 0.9375 27.375 C-2.8099146 20.04725297 -7.4737086 15.51643599 -14.875 12.0625 C-25.77481594 9.71155931 -35.23949822 12.19640723 -43.0625 20.375 Z " fill="#FFC006" transform="translate(108.0625,300.625)"/>
<path d="M0 0 C5.61 0 11.22 0 17 0 C17 47.19 17 94.38 17 143 C11.39 143 5.78 143 0 143 C0 95.81 0 48.62 0 0 Z " fill="#FFC107" transform="translate(420,43)"/>
<path d="M0 0 C5.94 0 11.88 0 18 0 C18 28.05 18 56.1 18 85 C12.06 85 6.12 85 0 85 C0 56.95 0 28.9 0 0 Z " fill="#FFC007" transform="translate(310,101)"/>
<path d="M0 0 C5.61 0 11.22 0 17 0 C17 26.4 17 52.8 17 80 C11.39 80 5.78 80 0 80 C0 53.6 0 27.2 0 0 Z " fill="#FFC106" transform="translate(376,106)"/>
<path d="M0 0 C5.61 0 11.22 0 17 0 C17 18.15 17 36.3 17 55 C11.39 55 5.78 55 0 55 C0 36.85 0 18.7 0 0 Z " fill="#FFC007" transform="translate(344,131)"/>
</svg>
