<?xml version="1.0" encoding="UTF-8"?>
<svg version="1.1" xmlns="http://www.w3.org/2000/svg" width="512" height="512">
<path d="M0 0 C1.1758667 -0.00717545 1.1758667 -0.00717545 2.37548828 -0.01449585 C4.02964286 -0.01789192 5.68386481 -0.00870964 7.33789062 0.01220703 C9.8674101 0.03898216 12.39249324 0.0124551 14.921875 -0.01953125 C16.53125978 -0.01622709 18.1406418 -0.00982072 19.75 0 C20.88139404 -0.01518173 20.88139404 -0.01518173 22.03564453 -0.03067017 C25.70870718 0.05114979 27.52135384 0.3501962 30.30371094 2.81958008 C32.02548851 5.93648973 32.65507373 8.31959701 33.140625 11.83984375 C33.30820312 12.99677734 33.47578125 14.15371094 33.6484375 15.34570312 C33.80570313 16.54388672 33.96296875 17.74207031 34.125 18.9765625 C34.29773438 20.19408203 34.47046875 21.41160156 34.6484375 22.66601562 C35.07163614 25.66367266 35.47992749 28.66259118 35.875 31.6640625 C36.64344238 31.7990918 37.41188477 31.93412109 38.20361328 32.07324219 C40.875 32.6640625 40.875 32.6640625 43.6171875 34.1171875 C47.51748301 34.77191336 48.08791338 34.24076418 51.2578125 32.0859375 C52.85429465 30.88259904 54.43466516 29.65764826 56 28.4140625 C57.58427082 27.1983458 59.17015213 25.98472429 60.7578125 24.7734375 C61.45277832 24.22655273 62.14774414 23.67966797 62.86376953 23.11621094 C66.31249191 20.62616473 67.90809817 19.63848892 72.29956055 19.75463867 C76.47547987 20.81679637 78.09094377 22.15642996 81.08203125 25.21484375 C81.99791016 26.14103516 82.91378906 27.06722656 83.85742188 28.02148438 C84.55436157 28.74936157 84.55436157 28.74936157 85.26538086 29.49194336 C86.68695953 30.97599828 88.12894195 32.43747439 89.57617188 33.89648438 C98.87824862 43.40952246 98.87824862 43.40952246 98.87109375 48.375 C97.4604925 53.03275 94.8292179 56.4200044 91.9375 60.2890625 C90.84270091 61.77952583 89.75016939 63.27165802 88.66015625 64.765625 C87.93131226 65.74523193 87.93131226 65.74523193 87.18774414 66.74462891 C85.84832085 68.70307152 84.7075517 70.43751546 83.875 72.6640625 C85.20618065 76.24237401 85.20618065 76.24237401 86.875 79.6640625 C86.875 80.6540625 86.875 81.6440625 86.875 82.6640625 C87.63643311 82.76428711 88.39786621 82.86451172 89.18237305 82.96777344 C92.64490303 83.43313747 96.10347995 83.92331746 99.5625 84.4140625 C100.76068359 84.57132812 101.95886719 84.72859375 103.19335938 84.890625 C104.35029297 85.05820313 105.50722656 85.22578125 106.69921875 85.3984375 C107.76229248 85.54506836 108.82536621 85.69169922 109.9206543 85.84277344 C113.54802477 86.85115905 115.35716391 87.84564886 117.875 90.6640625 C118.38480441 93.49107225 118.5782597 95.7109105 118.5390625 98.53515625 C118.54384613 99.29449966 118.54862976 100.05384308 118.55355835 100.8361969 C118.5569543 102.43907751 118.54777277 104.04202767 118.52685547 105.64477539 C118.50011614 108.09093764 118.52658747 110.53249711 118.55859375 112.97851562 C118.55528886 114.53907258 118.54888099 116.09962668 118.5390625 117.66015625 C118.54918365 118.38738388 118.55930481 119.11461151 118.56973267 119.86387634 C118.48329049 123.63421906 117.97961949 125.52257913 115.71948242 128.57910156 C112.54635977 130.90495062 110.57298389 131.5121139 106.69921875 132.02734375 C105.54228516 132.19169922 104.38535156 132.35605469 103.19335938 132.52539062 C101.99517578 132.67427734 100.79699219 132.82316406 99.5625 132.9765625 C98.34498047 133.14478516 97.12746094 133.31300781 95.87304688 133.48632812 C92.8757089 133.89772746 89.87713216 134.2895504 86.875 134.6640625 C86.73779541 135.42960449 86.60059082 136.19514648 86.45922852 136.98388672 C85.875 139.6640625 85.875 139.6640625 84.52734375 142.546875 C83.49238655 145.82103709 83.49238655 145.82103709 85.69140625 149.03125 C86.58768262 150.2152159 87.50419364 151.38406213 88.4375 152.5390625 C89.37344105 153.77655393 90.30834579 155.01482984 91.2421875 156.25390625 C91.6969043 156.84284668 92.15162109 157.43178711 92.62011719 158.03857422 C98.91638611 166.1943249 98.91638611 166.1943249 98.77978516 171.04541016 C97.71319029 175.31121402 96.28915955 177.0228849 93.2109375 180.125 C92.74064117 180.60103668 92.27034485 181.07707336 91.78579712 181.5675354 C90.79278001 182.56461443 89.79222893 183.55424109 88.78466797 184.53662109 C87.25367978 186.03545999 85.75738142 187.56365586 84.26171875 189.09765625 C83.28837614 190.06703364 82.31317372 191.03454792 81.3359375 192 C80.45728027 192.87188965 79.57862305 193.7437793 78.67333984 194.64208984 C75.31352814 197.06976045 72.98439061 197.49552623 68.875 197.6640625 C66.171875 196.51171875 66.171875 196.51171875 63.625 194.7265625 C62.68527344 194.09105469 61.74554688 193.45554687 60.77734375 192.80078125 C58.81369465 191.3551338 56.88906824 189.85519603 55.00390625 188.30859375 C50.3217571 184.09400989 50.3217571 184.09400989 44.51171875 182.828125 C42.3760382 183.60234575 42.3760382 183.60234575 40.53125 184.7265625 C38.875 185.6640625 38.875 185.6640625 35.875 185.6640625 C35.77477539 186.42549561 35.67455078 187.18692871 35.57128906 187.97143555 C35.10592503 191.43396553 34.61574504 194.89254245 34.125 198.3515625 C33.96773437 199.54974609 33.81046875 200.74792969 33.6484375 201.98242188 C33.39707031 203.71782227 33.39707031 203.71782227 33.140625 205.48828125 C32.99399414 206.55135498 32.84736328 207.61442871 32.69628906 208.7097168 C31.68519783 212.34681996 30.71058126 214.14744138 27.875 216.6640625 C24.96857223 217.17291778 22.65402905 217.36709302 19.75 217.328125 C18.5741333 217.33530045 18.5741333 217.33530045 17.37451172 217.34262085 C15.72035714 217.34601692 14.06613519 217.33683464 12.41210938 217.31591797 C9.8825899 217.28914284 7.35750676 217.3156699 4.828125 217.34765625 C3.21874022 217.34435209 1.6093582 217.33794572 0 217.328125 C-0.7542627 217.33824615 -1.50852539 217.34836731 -2.28564453 217.35879517 C-5.95870718 217.27697521 -7.77135384 216.9779288 -10.55371094 214.50854492 C-12.27548851 211.39163527 -12.90507373 209.00852799 -13.390625 205.48828125 C-13.55820313 204.33134766 -13.72578125 203.17441406 -13.8984375 201.98242188 C-14.05570312 200.78423828 -14.21296875 199.58605469 -14.375 198.3515625 C-14.54773438 197.13404297 -14.72046875 195.91652344 -14.8984375 194.66210938 C-15.32163614 191.66445234 -15.72992749 188.66553382 -16.125 185.6640625 C-16.89344238 185.5290332 -17.66188477 185.39400391 -18.45361328 185.25488281 C-21.125 184.6640625 -21.125 184.6640625 -23.8671875 183.2109375 C-27.76748301 182.55621164 -28.33791338 183.08736082 -31.5078125 185.2421875 C-33.10429465 186.44552596 -34.68466516 187.67047674 -36.25 188.9140625 C-37.83427082 190.1297792 -39.42015213 191.34340071 -41.0078125 192.5546875 C-41.70277832 193.10157227 -42.39774414 193.64845703 -43.11376953 194.21191406 C-46.55310488 196.69518265 -48.15540703 197.68781274 -52.53369141 197.58056641 C-56.77114772 196.49916525 -58.49951363 195.06265167 -61.5859375 192 C-62.06197418 191.52970367 -62.53801086 191.05940735 -63.0284729 190.57485962 C-64.02555193 189.58184251 -65.01517859 188.58129143 -65.99755859 187.57373047 C-67.49639749 186.04274228 -69.02459336 184.54644392 -70.55859375 183.05078125 C-71.52797114 182.07743864 -72.49548542 181.10223622 -73.4609375 180.125 C-74.76877197 178.80701416 -74.76877197 178.80701416 -76.10302734 177.46240234 C-78.53069795 174.10259064 -78.95646373 171.77345311 -79.125 167.6640625 C-77.97265625 164.9609375 -77.97265625 164.9609375 -76.1875 162.4140625 C-75.55199219 161.47433594 -74.91648438 160.53460938 -74.26171875 159.56640625 C-72.8160713 157.60275715 -71.31613353 155.67813074 -69.76953125 153.79296875 C-65.55494739 149.1108196 -65.55494739 149.1108196 -64.2890625 143.30078125 C-65.06328325 141.1651007 -65.06328325 141.1651007 -66.1875 139.3203125 C-67.125 137.6640625 -67.125 137.6640625 -67.125 134.6640625 C-67.88643311 134.56907471 -68.64786621 134.47408691 -69.43237305 134.3762207 C-72.89564132 133.93160302 -76.35367407 133.45446275 -79.8125 132.9765625 C-81.01068359 132.82767578 -82.20886719 132.67878906 -83.44335938 132.52539062 C-84.60029297 132.36103516 -85.75722656 132.19667969 -86.94921875 132.02734375 C-88.54382935 131.81525269 -88.54382935 131.81525269 -90.1706543 131.59887695 C-94.0691848 130.36530342 -95.69470078 128.95070569 -98.125 125.6640625 C-98.62488125 122.79210324 -98.82891623 120.5237359 -98.7890625 117.66015625 C-98.79384613 116.89985611 -98.79862976 116.13955597 -98.80355835 115.35621643 C-98.8069491 113.75511597 -98.79780421 112.15394551 -98.77685547 110.55297852 C-98.75003452 108.10471319 -98.77664352 105.6610156 -98.80859375 103.21289062 C-98.80529022 101.65363574 -98.79888515 100.09438369 -98.7890625 98.53515625 C-98.79918365 97.80590439 -98.80930481 97.07665253 -98.81973267 96.32530212 C-98.73641496 92.70790269 -98.40868508 90.98161372 -95.96948242 88.2512207 C-92.85040957 86.51084712 -90.4796999 85.88540042 -86.94921875 85.3984375 C-85.79228516 85.23085937 -84.63535156 85.06328125 -83.44335938 84.890625 C-82.24517578 84.73335938 -81.04699219 84.57609375 -79.8125 84.4140625 C-78.59498047 84.24132812 -77.37746094 84.06859375 -76.12304688 83.890625 C-73.12538984 83.46742636 -70.12647132 83.05913501 -67.125 82.6640625 C-66.98779541 81.89852051 -66.85059082 81.13297852 -66.70922852 80.34423828 C-66.125 77.6640625 -66.125 77.6640625 -64.77734375 74.78125 C-63.74238655 71.50708791 -63.74238655 71.50708791 -65.94140625 68.296875 C-66.83768262 67.1129091 -67.75419364 65.94406287 -68.6875 64.7890625 C-69.62344105 63.55157107 -70.55834579 62.31329516 -71.4921875 61.07421875 C-71.9469043 60.48527832 -72.40162109 59.89633789 -72.87011719 59.28955078 C-79.16638611 51.1338001 -79.16638611 51.1338001 -79.02978516 46.28271484 C-77.96319029 42.01691098 -76.53915955 40.3052401 -73.4609375 37.203125 C-72.99064117 36.72708832 -72.52034485 36.25105164 -72.03579712 35.7605896 C-71.04278001 34.76351057 -70.04222893 33.77388391 -69.03466797 32.79150391 C-67.50367978 31.29266501 -66.00738142 29.76446914 -64.51171875 28.23046875 C-63.53837614 27.26109136 -62.56317372 26.29357708 -61.5859375 25.328125 C-60.70728027 24.45623535 -59.82862305 23.5843457 -58.92333984 22.68603516 C-55.56352814 20.25836455 -53.23439061 19.83259877 -49.125 19.6640625 C-46.421875 20.81640625 -46.421875 20.81640625 -43.875 22.6015625 C-42.93527344 23.23707031 -41.99554688 23.87257812 -41.02734375 24.52734375 C-39.06369465 25.9729912 -37.13906824 27.47292897 -35.25390625 29.01953125 C-30.5717571 33.23411511 -30.5717571 33.23411511 -24.76171875 34.5 C-22.6260382 33.72577925 -22.6260382 33.72577925 -20.78125 32.6015625 C-19.125 31.6640625 -19.125 31.6640625 -16.125 31.6640625 C-16.02477539 30.90262939 -15.92455078 30.14119629 -15.82128906 29.35668945 C-15.35592503 25.89415947 -14.86574504 22.43558255 -14.375 18.9765625 C-14.21773438 17.77837891 -14.06046875 16.58019531 -13.8984375 15.34570312 C-13.73085937 14.18876953 -13.56328125 13.03183594 -13.390625 11.83984375 C-13.24399414 10.77677002 -13.09736328 9.71369629 -12.94628906 8.6184082 C-10.89039428 1.22293177 -7.21968227 -0.09687808 0 0 Z M3.875 16.6640625 C2.41581341 22.24181904 1.26084 27.79154016 0.3125 33.4765625 C-0.99480969 41.27349157 -0.99480969 41.27349157 -2.125 44.6640625 C-4.27734375 45.4375 -4.27734375 45.4375 -7.0625 46.0390625 C-12.075667 47.25339181 -16.11876343 49.04915147 -20.54296875 51.67578125 C-24.20982468 53.07928284 -27.31339171 53.49332296 -31.125 52.6640625 C-34.71924405 50.84249107 -37.8894204 48.55471348 -41.125 46.1640625 C-41.99511719 45.54402344 -42.86523438 44.92398438 -43.76171875 44.28515625 C-45.89541302 42.76108891 -48.01519082 41.2209386 -50.125 39.6640625 C-51.25394876 40.59680359 -52.37800876 41.53546372 -53.5 42.4765625 C-54.12648438 42.99863281 -54.75296875 43.52070313 -55.3984375 44.05859375 C-57.3471048 45.74631989 -57.3471048 45.74631989 -59.125 48.6640625 C-57.14741852 51.47768022 -55.16766999 54.28976606 -53.1875 57.1015625 C-52.62353516 57.90400391 -52.05957031 58.70644531 -51.47851562 59.53320312 C-50.94033203 60.29697266 -50.40214844 61.06074219 -49.84765625 61.84765625 C-49.35015869 62.55462646 -48.85266113 63.26159668 -48.34008789 63.98999023 C-47.23032955 65.61103187 -47.23032955 65.61103187 -46.125 66.6640625 C-45.48699882 73.36307488 -46.52262257 77.24839203 -49.75390625 83.09765625 C-51.57008784 86.49717563 -52.88898832 90.02508642 -54.23046875 93.6328125 C-55.125 95.6640625 -55.125 95.6640625 -57.125 97.6640625 C-59.53930664 98.24243164 -59.53930664 98.24243164 -62.53515625 98.69921875 C-63.60701172 98.86873047 -64.67886719 99.03824219 -65.78320312 99.21289062 C-66.90662109 99.38240234 -68.03003906 99.55191406 -69.1875 99.7265625 C-71.40809625 100.06809503 -73.6281829 100.41296346 -75.84765625 100.76171875 C-76.83515869 100.91133057 -77.82266113 101.06094238 -78.84008789 101.21508789 C-81.0818509 101.43507914 -81.0818509 101.43507914 -82.125 102.6640625 C-82.22373816 104.66205822 -82.25471799 106.66363408 -82.25 108.6640625 C-82.25257813 109.7571875 -82.25515625 110.8503125 -82.2578125 111.9765625 C-82.43047755 114.58236604 -82.43047755 114.58236604 -81.125 115.6640625 C-79.38526535 115.9961358 -77.63537544 116.27537408 -75.8828125 116.53125 C-74.81675781 116.69496094 -73.75070313 116.85867188 -72.65234375 117.02734375 C-70.39289397 117.36716915 -68.13246596 117.70055586 -65.87109375 118.02734375 C-64.26814453 118.27677734 -64.26814453 118.27677734 -62.6328125 118.53125 C-61.64941895 118.67675293 -60.66602539 118.82225586 -59.65283203 118.97216797 C-56.8612282 119.73625965 -55.85003008 120.37680788 -54.125 122.6640625 C-53.01681994 125.32595048 -52.00786898 127.9464289 -51.0625 130.6640625 C-49.06268184 136.37968324 -49.06268184 136.37968324 -46.125 141.6640625 C-45.14862532 146.45717458 -45.48052898 148.57290176 -47.99609375 152.83203125 C-49.56198471 155.1240892 -51.19999873 157.35799992 -52.85546875 159.5859375 C-55.25526817 162.84074291 -57.22219372 166.10664207 -59.125 169.6640625 C-56.485 172.3040625 -53.845 174.9440625 -51.125 177.6640625 C-46.9555313 175.43388157 -43.1869675 172.98833117 -39.3894043 170.16015625 C-30.08709313 163.3492258 -30.08709313 163.3492258 -25.28515625 163.9609375 C-20.00200888 165.68058764 -15.08777731 168.19530178 -10.125 170.6640625 C-8.73486117 171.26083927 -7.34029045 171.84766385 -5.9375 172.4140625 C-3.125 173.6640625 -3.125 173.6640625 -1.125 175.6640625 C-0.54663086 177.97070312 -0.54663086 177.97070312 -0.08984375 180.8203125 C0.16442383 182.35365234 0.16442383 182.35365234 0.42382812 183.91796875 C0.59333984 184.98917969 0.76285156 186.06039062 0.9375 187.1640625 C1.27982382 189.27908922 1.62474701 191.39369737 1.97265625 193.5078125 C2.19707397 194.91836914 2.19707397 194.91836914 2.42602539 196.35742188 C2.77104998 198.67956842 2.77104998 198.67956842 3.875 200.6640625 C7.835 200.6640625 11.795 200.6640625 15.875 200.6640625 C17.5436968 194.34020295 18.70256065 188.04895575 19.64257812 181.58007812 C20.50793751 176.23014914 20.50793751 176.23014914 22.078125 173.80859375 C24.65492562 172.16728379 27.31503616 171.19775191 30.1875 170.1640625 C33.55979543 168.94204604 36.67030157 167.78025009 39.79296875 166.0078125 C43.66076859 164.32147138 46.78146731 163.71157088 50.875 164.6640625 C54.46631104 166.49162789 57.63921393 168.77325897 60.875 171.1640625 C61.74511719 171.78410156 62.61523438 172.40414062 63.51171875 173.04296875 C65.64541302 174.56703609 67.76519082 176.1071864 69.875 177.6640625 C71.00394876 176.73132141 72.12800876 175.79266128 73.25 174.8515625 C73.87648438 174.32949219 74.50296875 173.80742187 75.1484375 173.26953125 C77.0971048 171.58180511 77.0971048 171.58180511 78.875 168.6640625 C78.48119141 168.13039063 78.08738281 167.59671875 77.68164062 167.046875 C75.8928881 164.59977687 74.13405157 162.13258601 72.375 159.6640625 C71.75496094 158.82488281 71.13492188 157.98570312 70.49609375 157.12109375 C66.6522103 151.67207215 64.88066715 148.35450208 65.875 141.6640625 C66.828125 139.046875 66.828125 139.046875 68.125 136.7890625 C70.45568743 132.52383848 72.2874465 128.24846169 73.98046875 123.6953125 C74.875 121.6640625 74.875 121.6640625 76.875 119.6640625 C79.28930664 119.08569336 79.28930664 119.08569336 82.28515625 118.62890625 C83.35701172 118.45939453 84.42886719 118.28988281 85.53320312 118.11523438 C86.65662109 117.94572266 87.78003906 117.77621094 88.9375 117.6015625 C91.15809625 117.26002997 93.3781829 116.91516154 95.59765625 116.56640625 C96.58515869 116.41679443 97.57266113 116.26718262 98.59008789 116.11303711 C100.8318509 115.89304586 100.8318509 115.89304586 101.875 114.6640625 C101.97373816 112.66606678 102.00471799 110.66449092 102 108.6640625 C102.00257813 107.5709375 102.00515625 106.4778125 102.0078125 105.3515625 C102.18047755 102.74575896 102.18047755 102.74575896 100.875 101.6640625 C99.13526535 101.3319892 97.38537544 101.05275092 95.6328125 100.796875 C94.56675781 100.63316406 93.50070312 100.46945313 92.40234375 100.30078125 C90.14289397 99.96095585 87.88246596 99.62756914 85.62109375 99.30078125 C84.55246094 99.13449219 83.48382813 98.96820313 82.3828125 98.796875 C81.39941895 98.65137207 80.41602539 98.50586914 79.40283203 98.35595703 C76.6112282 97.59186535 75.60003008 96.95131712 73.875 94.6640625 C72.76681994 92.00217452 71.75786898 89.3816961 70.8125 86.6640625 C68.81268184 80.94844176 68.81268184 80.94844176 65.875 75.6640625 C65.06243312 71.70777011 65.13534848 68.10973031 66.99169922 64.48144531 C68.51009112 62.32640583 70.1143629 60.3052389 71.8125 58.2890625 C72.9287961 56.90868264 74.04220997 55.52596559 75.15234375 54.140625 C75.89859009 53.244646 75.89859009 53.244646 76.65991211 52.33056641 C78.07680879 50.56429745 78.07680879 50.56429745 78.875 47.6640625 C76.235 45.0240625 73.595 42.3840625 70.875 39.6640625 C66.70547382 41.89427418 62.93695872 44.34003509 59.13916016 47.16796875 C49.83159192 53.98372603 49.83159192 53.98372603 44.9609375 53.3671875 C41.05397423 52.05023359 37.47043778 50.14133475 33.85546875 48.17578125 C30.50947441 46.47866486 27.26873916 45.49785133 23.6171875 44.6953125 C21.875 43.6640625 21.875 43.6640625 20.73046875 41.1796875 C19.66096234 36.78445567 18.95614283 32.38891268 18.3125 27.9140625 C18.06422208 26.21049402 17.81305943 24.5073427 17.55859375 22.8046875 C17.45087646 22.05735352 17.34315918 21.31001953 17.23217773 20.54003906 C16.94763477 18.58263886 16.94763477 18.58263886 15.875 16.6640625 C11.915 16.6640625 7.955 16.6640625 3.875 16.6640625 Z " fill="#FFC106" transform="translate(246.125,147.3359375)"/>
<path d="M0 0 C1.24579223 0.85116239 2.47574559 1.72604119 3.6875 2.625 C4.59435547 3.28628906 4.59435547 3.28628906 5.51953125 3.9609375 C15.2828117 11.66095389 20.73920662 23.33167293 22.4296875 35.45703125 C23.53956506 49.09507222 20.14349207 61.25921765 11.3359375 71.8203125 C9.8285244 73.47060836 8.28705114 75.06422585 6.6875 76.625 C7.72648437 77.181875 8.76546875 77.73875 9.8359375 78.3125 C18.05795934 82.78386611 25.69599234 87.32885025 32.6875 93.625 C33.36941406 94.22570312 34.05132812 94.82640625 34.75390625 95.4453125 C44.76655477 104.81135162 56.81140825 121.45123969 57.92578125 135.6640625 C58.12908196 145.48669698 57.13720175 152.17428143 50.375 159.5 C44.45957194 164.97208763 37.5480057 166.73817525 29.59785461 166.76544189 C28.59573441 166.77115204 27.5936142 166.77686218 26.56112671 166.78274536 C25.47272491 166.78386322 24.38432312 166.78498108 23.26293945 166.78613281 C21.53029594 166.79358017 21.53029594 166.79358017 19.76264954 166.80117798 C15.9420207 166.81578012 12.1214334 166.82259877 8.30078125 166.828125 C6.31378953 166.8324239 4.32679781 166.83672334 2.33980626 166.8410995 C-3.19758223 166.85290025 -8.73496072 166.86044403 -14.2723605 166.8638947 C-21.41220779 166.86836948 -28.55186306 166.88589463 -35.691652 166.9148953 C-41.22477595 166.93658246 -46.75784615 166.94660276 -52.29101211 166.94793582 C-55.58893191 166.94897907 -58.88663096 166.95625218 -62.184515 166.97275543 C-65.87014528 166.98988094 -69.55531246 166.98791935 -73.2409668 166.98144531 C-74.31924744 166.9906601 -75.39752808 166.99987488 -76.50848389 167.0093689 C-84.75915466 166.96415302 -93.5372758 166.18645304 -99.75 160.1875 C-100.36746094 159.61128906 -100.98492187 159.03507813 -101.62109375 158.44140625 C-107.78181675 151.82538733 -108.90004224 145.37984891 -108.75 136.48046875 C-106.93760602 120.50874676 -96.23171507 106.7271165 -85.3125 95.625 C-84.55324219 94.85285156 -83.79398437 94.08070312 -83.01171875 93.28515625 C-75.43611924 86.03192268 -66.67450978 81.21376834 -57.3125 76.625 C-58.01375 75.985625 -58.715 75.34625 -59.4375 74.6875 C-68.47787582 65.54468366 -73.07777133 53.74432455 -73.5625 41 C-73.37896736 27.41858458 -68.01653113 15.63044037 -58.7578125 5.8828125 C-42.74848944 -8.89895864 -18.59825488 -10.94640144 0 0 Z M-48.8359375 20.33984375 C-54.15413751 26.89030961 -56.94946209 33.79723991 -56.59375 42.3046875 C-55.41332646 52.04318167 -51.36936031 58.4737941 -44.625 65.375 C-38.48858503 70.10148151 -30.53468398 72.38196461 -22.8515625 72.00390625 C-12.54164422 70.46534921 -5.51961876 65.74176606 1 57.8125 C5.38645493 49.52697402 6.91408842 41.69321886 4.4375 32.5625 C1.28483502 22.83932763 -5.34879774 16.25832522 -14.3125 11.625 C-26.37721922 7.53482867 -40.43809289 10.88688533 -48.8359375 20.33984375 Z M-72.3125 106.625 C-72.93769531 107.16769531 -73.56289063 107.71039063 -74.20703125 108.26953125 C-82.99351311 116.42132368 -90.04539505 127.77291969 -92.3125 139.625 C-91.39001417 143.46490409 -90.50718993 146.19703565 -87.3125 148.625 C-84.40047533 149.59567489 -82.53609177 149.75497097 -79.50564575 149.76544189 C-78.51587738 149.77115204 -77.52610901 149.77686218 -76.50634766 149.78274536 C-75.42160156 149.78386322 -74.33685547 149.78498108 -73.21923828 149.78613281 C-72.07591034 149.79109772 -70.9325824 149.79606262 -69.75460815 149.80117798 C-65.96400353 149.81580972 -62.17344075 149.82260295 -58.3828125 149.828125 C-55.75348916 149.83387515 -53.12416584 149.8396329 -50.49484253 149.84539795 C-45.68386567 149.85496795 -40.87289786 149.86086573 -36.06191266 149.8638947 C-28.98368529 149.8683758 -21.905651 149.8859277 -14.82748234 149.9148953 C-8.69415933 149.93912383 -2.56091599 149.94683934 3.57245255 149.94857025 C6.18078793 149.95160115 8.78912241 149.95964429 11.39742661 149.97275543 C15.04358372 149.98977668 18.68926869 149.98794509 22.33544922 149.98144531 C23.41614685 149.9906601 24.49684448 149.99987488 25.61029053 150.0093689 C32.16309188 149.97270699 35.9203552 149.3921448 40.6875 144.625 C42.85068143 138.15798885 39.39525063 132.47615421 36.6875 126.625 C27.24321932 109.02216992 12.46189516 96.46321148 -6.6875 90.58984375 C-30.60583671 84.74615921 -53.91266677 90.28029648 -72.3125 106.625 Z " fill="#FFC106" transform="translate(454.3125,6.375)"/>
<path d="M0 0 C1.24579223 0.85116239 2.47574559 1.72604119 3.6875 2.625 C4.59435547 3.28628906 4.59435547 3.28628906 5.51953125 3.9609375 C15.2828117 11.66095389 20.73920662 23.33167293 22.4296875 35.45703125 C23.53956506 49.09507222 20.14349207 61.25921765 11.3359375 71.8203125 C9.8285244 73.47060836 8.28705114 75.06422585 6.6875 76.625 C7.72648437 77.181875 8.76546875 77.73875 9.8359375 78.3125 C18.05795934 82.78386611 25.69599234 87.32885025 32.6875 93.625 C33.36941406 94.22570312 34.05132812 94.82640625 34.75390625 95.4453125 C44.76655477 104.81135162 56.81140825 121.45123969 57.92578125 135.6640625 C58.12908196 145.48669698 57.13720175 152.17428143 50.375 159.5 C44.45957194 164.97208763 37.5480057 166.73817525 29.59785461 166.76544189 C28.59573441 166.77115204 27.5936142 166.77686218 26.56112671 166.78274536 C25.47272491 166.78386322 24.38432312 166.78498108 23.26293945 166.78613281 C21.53029594 166.79358017 21.53029594 166.79358017 19.76264954 166.80117798 C15.9420207 166.81578012 12.1214334 166.82259877 8.30078125 166.828125 C6.31378953 166.8324239 4.32679781 166.83672334 2.33980626 166.8410995 C-3.19758223 166.85290025 -8.73496072 166.86044403 -14.2723605 166.8638947 C-21.41220779 166.86836948 -28.55186306 166.88589463 -35.691652 166.9148953 C-41.22477595 166.93658246 -46.75784615 166.94660276 -52.29101211 166.94793582 C-55.58893191 166.94897907 -58.88663096 166.95625218 -62.184515 166.97275543 C-65.87014528 166.98988094 -69.55531246 166.98791935 -73.2409668 166.98144531 C-74.31924744 166.9906601 -75.39752808 166.99987488 -76.50848389 167.0093689 C-84.75915466 166.96415302 -93.5372758 166.18645304 -99.75 160.1875 C-100.36746094 159.61128906 -100.98492187 159.03507813 -101.62109375 158.44140625 C-107.78181675 151.82538733 -108.90004224 145.37984891 -108.75 136.48046875 C-106.93760602 120.50874676 -96.23171507 106.7271165 -85.3125 95.625 C-84.55324219 94.85285156 -83.79398438 94.08070312 -83.01171875 93.28515625 C-75.43611924 86.03192268 -66.67450978 81.21376834 -57.3125 76.625 C-58.01375 75.985625 -58.715 75.34625 -59.4375 74.6875 C-68.47787582 65.54468366 -73.07777133 53.74432455 -73.5625 41 C-73.37896736 27.41858458 -68.01653113 15.63044037 -58.7578125 5.8828125 C-42.74848944 -8.89895864 -18.59825488 -10.94640144 0 0 Z M-48.8359375 20.33984375 C-54.15413751 26.89030961 -56.94946209 33.79723991 -56.59375 42.3046875 C-55.41332646 52.04318167 -51.36936031 58.4737941 -44.625 65.375 C-38.48858503 70.10148151 -30.53468398 72.38196461 -22.8515625 72.00390625 C-12.54164422 70.46534921 -5.51961876 65.74176606 1 57.8125 C5.38645493 49.52697402 6.91408842 41.69321886 4.4375 32.5625 C1.28483502 22.83932763 -5.34879774 16.25832522 -14.3125 11.625 C-26.37721922 7.53482867 -40.43809289 10.88688533 -48.8359375 20.33984375 Z M-72.3125 106.625 C-72.93769531 107.16769531 -73.56289062 107.71039063 -74.20703125 108.26953125 C-82.99351311 116.42132368 -90.04539505 127.77291969 -92.3125 139.625 C-91.39001417 143.46490409 -90.50718993 146.19703565 -87.3125 148.625 C-84.40047533 149.59567489 -82.53609177 149.75497097 -79.50564575 149.76544189 C-78.51587738 149.77115204 -77.52610901 149.77686218 -76.50634766 149.78274536 C-75.42160156 149.78386322 -74.33685547 149.78498108 -73.21923828 149.78613281 C-72.07591034 149.79109772 -70.9325824 149.79606262 -69.75460815 149.80117798 C-65.96400353 149.81580972 -62.17344075 149.82260295 -58.3828125 149.828125 C-55.75348916 149.83387515 -53.12416584 149.8396329 -50.49484253 149.84539795 C-45.68386567 149.85496795 -40.87289786 149.86086573 -36.06191266 149.8638947 C-28.98368529 149.8683758 -21.905651 149.8859277 -14.82748234 149.9148953 C-8.69415933 149.93912383 -2.56091599 149.94683934 3.57245255 149.94857025 C6.18078793 149.95160115 8.78912241 149.95964429 11.39742661 149.97275543 C15.04358372 149.98977668 18.68926869 149.98794509 22.33544922 149.98144531 C23.41614685 149.9906601 24.49684448 149.99987488 25.61029053 150.0093689 C32.16309188 149.97270699 35.9203552 149.3921448 40.6875 144.625 C42.85068143 138.15798885 39.39525063 132.47615421 36.6875 126.625 C27.24321932 109.02216992 12.46189516 96.46321148 -6.6875 90.58984375 C-30.60583671 84.74615921 -53.91266677 90.28029648 -72.3125 106.625 Z " fill="#FFC106" transform="translate(108.3125,6.375)"/>
<path d="M0 0 C11.51739014 8.79634254 18.34386592 19.08402135 20.53515625 33.52734375 C21.21174189 40.68981937 21.09009935 47.10153003 19 54 C18.63068359 55.22976563 18.63068359 55.22976563 18.25390625 56.484375 C15.55716483 64.20304821 10.74384482 70.25615518 5 76 C6.03898437 76.556875 7.07796875 77.11375 8.1484375 77.6875 C16.37045934 82.15886611 24.00849234 86.70385025 31 93 C31.68191406 93.60070312 32.36382812 94.20140625 33.06640625 94.8203125 C43.14954714 104.25229165 54.97538003 120.74381778 56.2734375 135.00390625 C56.54030874 144.35466392 55.49969205 151.03832724 49.09765625 158.09765625 C41.62552106 165.08216649 34.57834291 165.29822886 24.71166992 165.29052734 C22.85935509 165.30060318 22.85935509 165.30060318 20.96961975 165.31088257 C17.59336987 165.32659641 14.21736605 165.3332359 10.84109664 165.33451414 C8.72801592 165.33593915 6.61496073 165.34021538 4.50188637 165.34550858 C-2.8806763 165.36399348 -10.26316691 165.3721812 -17.64575195 165.37060547 C-24.50999145 165.36940478 -31.37391615 165.39049662 -38.23807603 165.4220928 C-44.14573472 165.44830983 -50.05329094 165.45897049 -55.9610073 165.45769465 C-59.48303192 165.45718657 -63.00477665 165.46278383 -66.52674294 165.48405075 C-70.45911392 165.50714908 -74.39105872 165.49787904 -78.32348633 165.48583984 C-79.47859711 165.49707886 -80.63370789 165.50831787 -81.82382202 165.51989746 C-89.9120423 165.45711307 -96.26537702 164.13594296 -102.55859375 158.8515625 C-103.17863281 158.11679687 -103.79867188 157.38203125 -104.4375 156.625 C-105.07558594 155.89539063 -105.71367187 155.16578125 -106.37109375 154.4140625 C-110.97540459 147.59040759 -110.7837868 139.92958771 -110 132 C-105.07386038 111.74543564 -88.66292193 93.3650621 -71.3125 82.6875 C-67.28901403 80.26554813 -63.22165595 78.05702876 -59 76 C-59.51949219 75.46632813 -60.03898437 74.93265625 -60.57421875 74.3828125 C-70.35325721 63.93496734 -75.43572073 51.94625456 -75.21484375 37.515625 C-73.94898237 22.69353903 -67.12370973 10.68833406 -55.83984375 1.1796875 C-39.44576803 -10.66213126 -16.88610378 -11.00196713 0 0 Z M-50.125 18.7109375 C-56.28870358 26.23579228 -58.79664261 34.41022671 -58 44 C-56.45425686 53.04756077 -51.88829581 60.12661275 -44.75 65.875 C-36.9106863 70.9145588 -27.98518246 71.94634516 -19 70 C-10.17916486 67.26638655 -3.62181233 62.05596701 1 54.07421875 C4.89785679 45.98921111 4.78011732 37.95554509 2.03515625 29.5546875 C-1.02534811 22.00159372 -5.7536898 15.87795675 -13 12 C-26.22729753 7.03270761 -39.73802208 8.51489667 -50.125 18.7109375 Z M-78 110 C-78.53109375 110.5259375 -79.0621875 111.051875 -79.609375 111.59375 C-86.67918969 118.97638835 -92.69577745 129.75253708 -94 140 C-93.28041282 143.23814232 -92.51252544 144.53707379 -90.0625 146.75 C-86.74084145 148.7631264 -84.07441571 149.12706747 -80.27580261 149.14044189 C-78.81856026 149.14900711 -78.81856026 149.14900711 -77.33187866 149.15774536 C-76.26740509 149.15886322 -75.20293152 149.15998108 -74.10620117 149.16113281 C-72.98398666 149.16609772 -71.86177216 149.17106262 -70.70555115 149.17617798 C-66.98468416 149.19081007 -63.26385981 149.19760335 -59.54296875 149.203125 C-56.96088154 149.20887555 -54.37879434 149.21463329 -51.79670715 149.22039795 C-47.07149474 149.22956663 -42.3462994 149.23586575 -37.62107962 149.2388947 C-30.67247179 149.24337366 -23.72406085 149.26091514 -16.77551287 149.2898953 C-10.75218235 149.31414223 -4.72894476 149.32184027 1.29443932 149.32357025 C3.85449991 149.32659886 6.41455963 149.33463436 8.97458839 149.34775543 C12.55588336 149.36480063 16.13669856 149.36293909 19.71801758 149.35644531 C20.77641846 149.3656601 21.83481934 149.37487488 22.92529297 149.3843689 C28.35079866 149.35353535 32.36186325 149.15396908 37 146 C39.18228682 143.19420266 39.76653428 142.39948867 40 139 C36.8434826 123.17770836 25.77078408 109.15181102 12.96875 99.78125 C-16.21644762 80.79670397 -54.02493027 84.13216161 -78 110 Z " fill="#FFC106" transform="translate(456,347)"/>
<path d="M0 0 C11.51739014 8.79634254 18.34386592 19.08402135 20.53515625 33.52734375 C21.21174189 40.68981937 21.09009935 47.10153003 19 54 C18.63068359 55.22976563 18.63068359 55.22976563 18.25390625 56.484375 C15.55716483 64.20304821 10.74384482 70.25615518 5 76 C6.03898437 76.556875 7.07796875 77.11375 8.1484375 77.6875 C16.37045934 82.15886611 24.00849234 86.70385025 31 93 C31.68191406 93.60070312 32.36382812 94.20140625 33.06640625 94.8203125 C43.02353679 104.13441895 55.27669543 120.92787613 56.203125 135.109375 C56.3392213 145.67952109 54.99825602 150.92999078 48.3046875 159.10546875 C41.04538969 165.07285762 33.46780876 165.58160417 24.37109375 165.51757812 C23.13577911 165.5245874 21.90046448 165.53159668 20.62771606 165.53881836 C17.26376541 165.55333424 13.90080827 165.55003547 10.53691483 165.53730202 C7.00172937 165.52711108 3.46658376 165.53658449 -0.06860352 165.54284668 C-6.00316914 165.55010549 -11.93753507 165.54058209 -17.87207031 165.52148438 C-24.71425031 165.49971883 -31.55595338 165.50677147 -38.39812183 165.52879 C-44.29312858 165.54699467 -50.1879925 165.5494777 -56.0830183 165.53903532 C-59.59490452 165.53282807 -63.10656723 165.53188768 -66.61843872 165.54518127 C-70.53617612 165.55897774 -74.45338765 165.53980751 -78.37109375 165.51757812 C-79.52149139 165.52567505 -80.67188904 165.53377197 -81.85714722 165.54211426 C-89.73418193 165.45957125 -96.11097931 164.19690684 -102.3046875 159.10546875 C-108.67698384 151.32239038 -110.67029173 145.81883917 -110.40234375 135.6796875 C-108.3933821 117.3064654 -93.95627147 100.58447598 -80.52734375 88.94921875 C-73.87685127 83.82001358 -66.53773134 79.67280763 -59 76 C-59.51949219 75.46632813 -60.03898437 74.93265625 -60.57421875 74.3828125 C-70.35325721 63.93496734 -75.43572073 51.94625456 -75.21484375 37.515625 C-73.94898237 22.69353903 -67.12370973 10.68833406 -55.83984375 1.1796875 C-39.44576803 -10.66213126 -16.88610378 -11.00196713 0 0 Z M-50.125 18.7109375 C-56.28870358 26.23579228 -58.79664261 34.41022671 -58 44 C-56.45425686 53.04756077 -51.88829581 60.12661275 -44.75 65.875 C-36.9106863 70.9145588 -27.98518246 71.94634516 -19 70 C-10.17916486 67.26638655 -3.62181233 62.05596701 1 54.07421875 C4.89785679 45.98921111 4.78011732 37.95554509 2.03515625 29.5546875 C-1.02534811 22.00159372 -5.7536898 15.87795675 -13 12 C-26.22729753 7.03270761 -39.73802208 8.51489667 -50.125 18.7109375 Z M-73 105 C-73.74765625 105.65484375 -74.4953125 106.3096875 -75.265625 106.984375 C-84.51754088 115.60690885 -92.23301061 127.2499589 -94 140 C-92.85429524 143.99585699 -91.56246405 145.84093088 -88 148 C-85.11056555 148.96314482 -83.27922057 149.12986725 -80.27580261 149.14044189 C-78.81856026 149.14900711 -78.81856026 149.14900711 -77.33187866 149.15774536 C-76.26740509 149.15886322 -75.20293152 149.15998108 -74.10620117 149.16113281 C-72.98398666 149.16609772 -71.86177216 149.17106262 -70.70555115 149.17617798 C-66.98468416 149.19081007 -63.26385981 149.19760335 -59.54296875 149.203125 C-56.96088154 149.20887555 -54.37879434 149.21463329 -51.79670715 149.22039795 C-47.07149474 149.22956663 -42.3462994 149.23586575 -37.62107962 149.2388947 C-30.67247179 149.24337366 -23.72406085 149.26091514 -16.77551287 149.2898953 C-10.75218235 149.31414223 -4.72894476 149.32184027 1.29443932 149.32357025 C3.85449991 149.32659886 6.41455963 149.33463436 8.97458839 149.34775543 C12.55588336 149.36480063 16.13669856 149.36293909 19.71801758 149.35644531 C20.77641846 149.3656601 21.83481934 149.37487488 22.92529297 149.3843689 C28.35079866 149.35353535 32.36186325 149.15396908 37 146 C39.18228682 143.19420266 39.76653428 142.39948867 40 139 C36.8434826 123.17770836 25.77078408 109.15181102 12.96875 99.78125 C-13.84180922 82.34137167 -48.77536435 83.325326 -73 105 Z " fill="#FFC106" transform="translate(110,347)"/>
<path d="M0 0 C11.93803366 8.21750827 19.68885525 18.9886224 23.0078125 33.234375 C24.65342345 48.62826744 21.65137618 61.87083183 12.0078125 74.234375 C6.79452627 79.81935806 0.96361035 84.08457975 -5.9921875 87.234375 C-6.69214844 87.5540625 -7.39210938 87.87375 -8.11328125 88.203125 C-18.95783893 92.26278611 -33.60497635 91.87383754 -44.2890625 87.62109375 C-58.04120932 80.56616294 -66.46451146 70.52217432 -71.9921875 56.234375 C-75.51585698 44.04064448 -73.86133136 29.33316763 -67.9921875 18.234375 C-53.42311088 -4.28711871 -24.07953838 -14.20881377 0 0 Z M-47.8125 19.8671875 C-54.917622 27.54357559 -56.69206971 35.22406163 -56.37109375 45.578125 C-55.46365634 54.33442827 -51.78368479 61.56061966 -44.9921875 67.234375 C-35.59904395 73.16484665 -27.74338343 75.38265309 -16.796875 73.078125 C-7.02106362 70.13721238 -0.96242981 63.99796636 4.1015625 55.37109375 C7.65268423 47.69343706 7.24885982 37.68997268 4.4453125 29.859375 C0.55624809 21.57811546 -5.42276996 15.54770569 -13.9921875 12.234375 C-26.84869623 8.60327997 -37.78355615 10.87126791 -47.8125 19.8671875 Z " fill="#FFC106" transform="translate(280.9921875,213.765625)"/>
<path d="M0 0 C3.89243227 3.47059232 7.24324283 7.47489601 10.625 11.4375 C11.14570068 12.04585693 11.66640137 12.65421387 12.20288086 13.28100586 C16.23238391 18.02263776 20.10357934 22.87280318 23.90234375 27.80053711 C26.22279169 30.79595546 28.59279551 33.71475279 31.09765625 36.55859375 C31.60417725 37.13665771 32.11069824 37.71472168 32.63256836 38.31030273 C33.59829538 39.40367697 34.5738214 40.48850634 35.56079102 41.56274414 C38.54311803 44.94601927 39.81041541 47.47524767 40 52 C38.39588152 55.52906067 37.25840638 56.82772908 34 59 C31.1875 59.4375 31.1875 59.4375 28 59 C23.32039422 55.56401548 19.91803967 51.67508395 16.4375 47.0625 C15.52040407 45.86521635 14.60244147 44.66859603 13.68359375 43.47265625 C13.08889282 42.68773804 13.08889282 42.68773804 12.48217773 41.88696289 C11.15130964 40.19263254 9.78843533 38.53546563 8.40736389 36.88206482 C7.61293381 35.93098343 6.81850372 34.97990204 6 34 C5.99635437 35.22917648 5.99270874 36.45835297 5.98895264 37.72477722 C5.95202172 49.30498472 5.89426971 60.88492583 5.81609726 72.46493053 C5.77657736 78.41844478 5.7444109 84.3718101 5.72900391 90.32543945 C5.71386724 96.0703551 5.67947443 101.81486147 5.63169098 107.55959511 C5.61684638 109.75201168 5.60895723 111.94448668 5.60811615 114.13695335 C5.60575407 117.20657433 5.57873464 120.27505726 5.54589844 123.34448242 C5.55344398 124.70610252 5.55344398 124.70610252 5.56114197 126.0952301 C5.49284722 130.21797845 5.33206161 132.45362179 3.1494751 136.0448761 C0.3898077 138.55501994 -1.2920635 138.92432783 -5 139 C-7.98122725 138.25469319 -9.48823793 137.8278923 -11.12322044 135.18293381 C-12.05410685 132.8652892 -12.25954332 131.24664349 -12.2784729 128.76055908 C-12.28963638 127.92205917 -12.30079987 127.08355927 -12.31230164 126.21965027 C-12.31446182 125.30830826 -12.31662201 124.39696625 -12.31884766 123.45800781 C-12.32889328 122.49182022 -12.3389389 121.52563263 -12.34928894 120.53016663 C-12.38017006 117.33782545 -12.39716991 114.14556832 -12.4140625 110.953125 C-12.43277017 108.73923009 -12.45234327 106.52534233 -12.4727478 104.3114624 C-12.52411732 98.48525205 -12.56371734 92.65901856 -12.60089111 86.83270264 C-12.64090048 80.88710791 -12.69200683 74.94160979 -12.7421875 68.99609375 C-12.8390039 57.33079699 -12.92339048 45.66544574 -13 34 C-14.72871413 36.03574224 -16.45642489 38.07232235 -18.18359375 40.109375 C-18.90693909 40.96088135 -18.90693909 40.96088135 -19.64489746 41.82958984 C-23.5826925 46.47628713 -27.42018045 51.19487319 -31.22265625 55.953125 C-33.47437247 58.54631027 -34.39547117 58.93283013 -37.8125 59.3125 C-41.85211856 58.91645896 -43.29729155 58.01158942 -46 55 C-47.1875 51.75 -47.1875 51.75 -47 48 C-45.88671875 46.15405273 -45.88671875 46.15405273 -44.375 44.24609375 C-43.82674561 43.54693848 -43.27849121 42.8477832 -42.71362305 42.12744141 C-41.86537964 41.07435791 -41.86537964 41.07435791 -41 40 C-40.23973511 39.0416626 -40.23973511 39.0416626 -39.46411133 38.06396484 C-37.92575748 36.13659911 -36.37198335 34.22280151 -34.8125 32.3125 C-34.25151611 31.62333496 -33.69053223 30.93416992 -33.11254883 30.22412109 C-29.07622834 25.28026941 -24.97783514 20.39280143 -20.83349609 15.53930664 C-17.29676889 11.38735401 -13.90148736 7.13705231 -10.55859375 2.828125 C-7.51991552 -0.73603893 -4.49319071 -0.45693465 0 0 Z " fill="#FFC106" transform="translate(84,188)"/>
<path d="M0 0 C2.78992269 2.56966564 3.84849333 4.20879851 4.5625 7.9375 C3.34140327 14.58569329 -2.80710007 18.69122944 -7.9375 22.5625 C-9.13478365 23.47959593 -10.33140397 24.39755853 -11.52734375 25.31640625 C-12.05062256 25.71287354 -12.57390137 26.10934082 -13.11303711 26.51782227 C-14.80736746 27.84869036 -16.46453437 29.21156467 -18.11793518 30.59263611 C-19.06901657 31.38706619 -20.02009796 32.18149628 -21 33 C-19.77082352 33.00364563 -18.54164703 33.00729126 -17.27522278 33.01104736 C-5.69501528 33.04797828 5.88492583 33.10573029 17.46493053 33.18390274 C23.41844478 33.22342264 29.3718101 33.2555891 35.32543945 33.27099609 C41.0703551 33.28613276 46.81486147 33.32052557 52.55959511 33.36830902 C54.75201168 33.38315362 56.94448668 33.39104277 59.13695335 33.39188385 C62.20657433 33.39424593 65.27505726 33.42126536 68.34448242 33.45410156 C69.70610252 33.44655602 69.70610252 33.44655602 71.0952301 33.43885803 C75.21683048 33.50713376 77.45200193 33.6665261 81.04096985 35.8505249 C83.56781207 38.62301129 84 40.26278962 84 44 C82.39588152 47.52906067 81.25840638 48.82772908 78 51 C76.08473682 51.26171303 76.08473682 51.26171303 73.8808136 51.2784729 C72.62512573 51.29521812 72.62512573 51.29521812 71.34407043 51.31230164 C70.42913315 51.31446182 69.51419586 51.31662201 68.5715332 51.31884766 C67.12247086 51.33391609 67.12247086 51.33391609 65.64413452 51.34928894 C62.44635623 51.3802159 59.24866202 51.39718257 56.05078125 51.4140625 C53.83545707 51.43276649 51.62014007 51.45233931 49.40483093 51.4727478 C43.57038601 51.52415623 37.73591797 51.56373535 31.90136719 51.60089111 C25.94916016 51.64087618 19.99705002 51.69199356 14.04492188 51.7421875 C2.36334923 51.83904993 -9.31827801 51.92342168 -21 52 C-18.95280448 53.7407495 -16.90446566 55.48012301 -14.85546875 57.21875 C-13.9968927 57.94916504 -13.9968927 57.94916504 -13.12097168 58.69433594 C-8.80548743 62.35354839 -4.40374955 65.88450116 0.07421875 69.34375 C2.97776088 71.84091402 3.93756814 73.57858496 4.5 77.375 C4 81 4 81 1.4375 84 C-2 86 -2 86 -5.19921875 86.03125 C-10.32063375 84.64167799 -13.31835208 81.9605111 -17.25 78.5 C-18.76028899 77.21208984 -20.27070554 75.92432926 -21.78125 74.63671875 C-22.50699219 74.00942871 -23.23273438 73.38213867 -23.98046875 72.73583984 C-26.53136301 70.54327962 -29.13284425 68.42546839 -31.75 66.3125 C-35.81567299 62.98660543 -39.85495423 59.63080187 -43.875 56.25 C-44.41092773 55.80180908 -44.94685547 55.35361816 -45.49902344 54.8918457 C-54.81737016 47.0227271 -54.81737016 47.0227271 -55.625 42.5 C-54.48648066 36.12429168 -48.09617169 32.25667183 -43.3125 28.1875 C-42.69093018 27.65688965 -42.06936035 27.1262793 -41.42895508 26.57958984 C-37.29830266 23.06738803 -33.11123397 19.64018177 -28.8515625 16.28515625 C-26.44835718 14.35929994 -24.07579231 12.4060116 -21.7109375 10.43359375 C-20.56395386 9.47912354 -20.56395386 9.47912354 -19.39379883 8.50537109 C-17.85944638 7.22666371 -16.3279482 5.94452234 -14.79956055 4.65869141 C-14.09355713 4.0713623 -13.38755371 3.4840332 -12.66015625 2.87890625 C-12.02730713 2.3485376 -11.39445801 1.81816895 -10.74243164 1.27172852 C-7.06077437 -1.41536028 -4.2337041 -1.20962974 0 0 Z " fill="#FFC107" transform="translate(233,389)"/>
<path d="M0 0 C2.93114748 1.93451214 5.54059809 4.19748059 8.1875 6.5 C9.70690205 7.78791285 11.22643318 9.07567344 12.74609375 10.36328125 C13.47812012 10.99057129 14.21014648 11.61786133 14.96435547 12.26416016 C17.52628668 14.44877648 20.13185708 16.57062156 22.75 18.6875 C26.81567299 22.01339457 30.85495423 25.36919813 34.875 28.75 C35.41092773 29.19819092 35.94685547 29.64638184 36.49902344 30.1081543 C45.81737016 37.9772729 45.81737016 37.9772729 46.625 42.5 C45.49223455 48.84348654 39.43313771 52.46030811 34.6875 56.5 C34.08502441 57.01409424 33.48254883 57.52818848 32.86181641 58.05786133 C25.67497379 64.16234813 18.37918824 70.12980146 11 76 C10.40815918 76.47195801 9.81631836 76.94391602 9.20654297 77.43017578 C7.58410575 78.71543507 5.9513572 79.98577571 4.3125 81.25 C3.40113281 81.95640625 2.48976563 82.6628125 1.55078125 83.390625 C-1.09070353 85.05722796 -2.89887866 85.75626638 -6 86 C-8.83713564 84.61442213 -10.77001704 83.22998296 -13 81 C-13.56612973 76.7944649 -13.42814254 74.67075665 -11.125 71.0625 C-7.19385309 66.88773272 -2.51598236 63.50652748 2 60 C3.73054364 58.62035781 5.459329 57.2385085 7.18676758 55.85498047 C8.08792801 55.13341766 8.98908844 54.41185486 9.91755676 53.66842651 C10.60476303 53.11784576 11.2919693 52.56726501 12 52 C10.15623528 51.99453156 10.15623528 51.99453156 8.27522278 51.98895264 C-3.30498472 51.95202172 -14.88492583 51.89426971 -26.46493053 51.81609726 C-32.41844478 51.77657736 -38.3718101 51.7444109 -44.32543945 51.72900391 C-50.0703551 51.71386724 -55.81486147 51.67947443 -61.55959511 51.63169098 C-63.75201168 51.61684638 -65.94448668 51.60895723 -68.13695335 51.60811615 C-71.20657433 51.60575407 -74.27505726 51.57873464 -77.34448242 51.54589844 C-78.70610252 51.55344398 -78.70610252 51.55344398 -80.0952301 51.56114197 C-84.19433495 51.49323889 -86.4554805 51.32618042 -90.0370636 49.1807251 C-92.78302275 46.13010051 -93.07138127 44.06873211 -93 40 C-91.23358828 37.19810554 -89.96950178 35.48475089 -87 34 C-85.66995484 33.89709329 -84.33503596 33.85360158 -83.00106812 33.84178162 C-81.74744225 33.82709839 -81.74744225 33.82709839 -80.4684906 33.81211853 C-79.54995804 33.80636307 -78.63142548 33.8006076 -77.68505859 33.79467773 C-76.71916306 33.78477814 -75.75326752 33.77487854 -74.75810242 33.76467896 C-71.55490599 33.73300784 -68.35169472 33.70828435 -65.1484375 33.68359375 C-62.93168749 33.66302907 -60.71494145 33.64203273 -58.49819946 33.62062073 C-52.65550949 33.56534988 -46.81278384 33.51596273 -40.97003174 33.46777344 C-35.01123875 33.41759498 -29.05249775 33.36188986 -23.09375 33.30664062 C-11.39587772 33.19899774 0.30203965 33.09756641 12 33 C9.95280448 31.2592505 7.90446566 29.51987699 5.85546875 27.78125 C5.28308472 27.29430664 4.71070068 26.80736328 4.12097168 26.30566406 C-0.19451257 22.64645161 -4.59625045 19.11549884 -9.07421875 15.65625 C-11.76044769 13.34598413 -12.91418116 11.65794447 -13.375 8.125 C-12.91137424 4.26145204 -11.72434991 2.72434991 -9 0 C-5.27383656 -1.24205448 -3.78396253 -1.10272939 0 0 Z " fill="#FFC107" transform="translate(288,38)"/>
<path d="M0 0 C1.99301736 1.58066894 2.86543351 2.73086702 4 5 C4.10290671 6.33004516 4.14639842 7.66496404 4.15821838 8.99893188 C4.1680072 9.83468246 4.17779602 10.67043304 4.18788147 11.5315094 C4.19651466 12.90930824 4.19651466 12.90930824 4.20532227 14.31494141 C4.21522186 15.28083694 4.22512146 16.24673248 4.23532104 17.24189758 C4.26699216 20.44509401 4.29171565 23.64830528 4.31640625 26.8515625 C4.33697093 29.06831251 4.35796727 31.28505855 4.37937927 33.50180054 C4.43465012 39.34449051 4.48403727 45.18721616 4.53222656 51.02996826 C4.58240502 56.98876125 4.63811014 62.94750225 4.69335938 68.90625 C4.80100226 80.60412228 4.90243359 92.30203965 5 104 C6.74228487 101.95299959 8.48291692 99.90463087 10.22265625 97.85546875 C10.71012329 97.28308472 11.19759033 96.71070068 11.6998291 96.12097168 C15.34773159 91.82062361 18.83984877 87.42084752 22.24609375 82.92578125 C24.09398977 80.89679965 25.42811262 79.92427203 28 79 C31.38532098 79.17817479 33.9793401 79.35358206 36.875 81.1875 C38.5686377 83.91613852 38.93794065 85.77291357 39 89 C36.37804673 94.25016419 33.13619152 98.44785621 29.25 102.8125 C28.17189771 104.04575775 27.09507706 105.28013706 26.01953125 106.515625 C25.23956787 107.40991211 25.23956787 107.40991211 24.44384766 108.32226562 C22.5494006 110.52359132 20.73662822 112.78285927 18.9375 115.0625 C15.7934683 119.0352932 12.57624493 122.93799578 9.3125 126.8125 C8.86060303 127.35205322 8.40870605 127.89160645 7.94311523 128.44750977 C0.01572964 137.81861971 0.01572964 137.81861971 -4.5 138.625 C-10.85848973 137.48955541 -14.69585733 131.14648 -18.75 126.375 C-19.53661011 125.45303833 -19.53661011 125.45303833 -20.33911133 124.51245117 C-24.96895966 119.06992796 -29.4988381 113.54926638 -34 108 C-35.60345628 106.04108497 -37.20761789 104.08274706 -38.8125 102.125 C-40.21071596 100.41861622 -41.60666193 98.71036911 -43 97 C-43.72703125 96.13117188 -44.4540625 95.26234375 -45.203125 94.3671875 C-47.40702376 91.46379043 -47.92426021 89.63550992 -48 86 C-46.39588152 82.47093933 -45.25840638 81.17227092 -42 79 C-37.7000066 78.78135627 -35.33306234 78.86374804 -32.015625 81.69140625 C-29.90173758 84.05473239 -27.94591815 86.4965435 -26 89 C-24.39764872 90.93900163 -22.79347298 92.87649697 -21.1875 94.8125 C-18.72618441 97.83142337 -16.32868216 100.87815308 -14 104 C-13.99635437 102.77082352 -13.99270874 101.54164703 -13.98895264 100.27522278 C-13.95202172 88.69501528 -13.89426971 77.11507417 -13.81609726 65.53506947 C-13.77657736 59.58155522 -13.7444109 53.6281899 -13.72900391 47.67456055 C-13.71386724 41.9296449 -13.67947443 36.18513853 -13.63169098 30.44040489 C-13.61684638 28.24798832 -13.60895723 26.05551332 -13.60811615 23.86304665 C-13.60575407 20.79342567 -13.57873464 17.72494274 -13.54589844 14.65551758 C-13.55344398 13.29389748 -13.55344398 13.29389748 -13.56114197 11.9047699 C-13.49291051 7.78584175 -13.33238467 5.54736356 -11.15338135 1.95903015 C-7.42116387 -1.43633991 -4.70277266 -1.17569317 0 0 Z " fill="#FFC106" transform="translate(436,186)"/>
</svg>
