<?xml version="1.0" encoding="UTF-8"?>
<svg version="1.1" xmlns="http://www.w3.org/2000/svg" width="512" height="512">
<path d="M0 0 C1.05549545 -0.00852997 2.11099091 -0.01705994 3.19847107 -0.02584839 C4.34611938 -0.02494202 5.4937677 -0.02403564 6.67619324 -0.02310181 C7.89302292 -0.02981903 9.1098526 -0.03653625 10.36355591 -0.04345703 C13.69434575 -0.05918574 17.02488621 -0.06581125 20.35569596 -0.0670886 C22.43944946 -0.06851251 24.52317702 -0.07278667 26.60692406 -0.07808304 C33.88458789 -0.09657517 41.16217857 -0.10475481 48.43986511 -0.10317993 C55.21037932 -0.10197923 61.98057438 -0.12306942 68.75100785 -0.15466726 C74.57455524 -0.18087175 80.39799867 -0.19154547 86.22160453 -0.19026911 C89.69498816 -0.18976063 93.16808813 -0.19537977 96.64141273 -0.21662521 C100.51901688 -0.23969678 104.396188 -0.23046115 108.27384949 -0.21841431 C109.41542511 -0.22965332 110.55700073 -0.24089233 111.73316956 -0.25247192 C119.51371498 -0.19112457 124.89737777 0.96222885 130.91130066 6.23226929 C131.45012878 6.88324585 131.98895691 7.53422241 132.54411316 8.20492554 C133.09841003 8.85332397 133.65270691 9.50172241 134.22380066 10.16976929 C137.56954596 15.02562125 137.93796139 19.29833315 137.79411316 25.07992554 C137.78508972 25.77279663 137.77606628 26.46566772 137.76676941 27.17953491 C137.74337473 28.87564949 137.70750957 30.57158424 137.66911316 32.26742554 C138.5340741 32.27000366 139.39903503 32.27258179 140.29020691 32.27523804 C178.33517711 33.44345616 211.65564538 51.50675626 238.66911316 77.26742554 C239.37294128 77.93000366 240.07676941 78.59258179 240.80192566 79.27523804 C244.63359158 82.97420557 247.69339717 86.84893816 250.66911316 91.26742554 C253.85761089 90.6824635 255.56210906 89.76907943 257.90348816 87.54476929 C258.47712097 87.00658569 259.05075378 86.4684021 259.64176941 85.91390991 C260.22829285 85.34994507 260.81481628 84.78598022 261.41911316 84.20492554 C262.02110535 83.63709351 262.62309753 83.06926147 263.24333191 82.48422241 C264.72474528 81.08510978 266.19776196 79.67711606 267.66911316 78.26742554 C267.34684753 77.43855835 267.02458191 76.60969116 266.69255066 75.75570679 C264.50217797 68.29004719 264.27758727 58.4350268 267.35661316 51.20492554 C268.08761525 49.86983145 268.85711744 48.55486611 269.66911316 47.26742554 C270.01973816 46.64609741 270.37036316 46.02476929 270.73161316 45.38461304 C274.55415738 39.25261502 280.32455402 35.71017654 286.85661316 32.89242554 C297.13663539 31.20717599 307.45921958 30.94420191 316.22770691 37.04867554 C323.74695444 43.21602269 328.86366261 50.22654643 330.16911316 60.01742554 C330.42293941 67.88603947 329.34685517 74.28956681 325.66911316 81.26742554 C326.23630066 81.49687866 326.80348816 81.72633179 327.38786316 81.96273804 C330.26737312 83.60958106 331.99967202 85.63865272 334.16911316 88.14242554 C335.66290324 89.85619156 337.1626952 91.5647489 338.66911316 93.26742554 C339.31880066 94.05375366 339.96848816 94.84008179 340.63786316 95.65023804 C342.549893 97.55915198 342.549893 97.55915198 345.04411316 97.02523804 C345.91036316 96.77515991 346.77661316 96.52508179 347.66911316 96.26742554 C349.66750563 96.17707269 351.66868569 96.13732241 353.66911316 96.14242554 C354.67973816 96.13984741 355.69036316 96.13726929 356.73161316 96.13461304 C359.66911316 96.26742554 359.66911316 96.26742554 362.11051941 97.21273804 C364.66373902 97.53154785 364.66373902 97.53154785 366.27409363 96.05599976 C368.1442395 94.1953283 369.88079265 92.26261523 371.60661316 90.26742554 C372.2015155 89.60613647 372.79641785 88.94484741 373.40934753 88.26351929 C377.23280021 83.99295248 380.94966566 79.62854872 384.66911316 75.26742554 C384.24758972 74.37539429 383.82606628 73.48336304 383.39176941 72.56430054 C382.84391785 71.39383179 382.29606628 70.22336304 381.73161316 69.01742554 C380.913703 67.27719116 380.913703 67.27719116 380.07926941 65.50180054 C375.78718892 55.65736108 376.12600763 41.87989074 379.16911316 31.70492554 C384.25792579 19.04538816 393.91597523 9.14856602 406.11442566 3.27523804 C418.21527694 -1.49849228 432.57407773 -1.49374849 444.80973816 2.94711304 C457.24436936 8.68878701 466.30955926 18.72197294 471.66911316 31.26742554 C475.3493783 43.39213467 475.70986707 57.90292115 469.66911316 69.26742554 C469.1831366 70.18781616 468.69716003 71.10820679 468.19645691 72.05648804 C461.09271967 84.2487179 451.55902096 90.94338289 438.38005066 95.37289429 C434.15429171 96.3915246 430.31053464 96.65123075 425.98161316 96.64242554 C425.19359314 96.64153931 424.40557312 96.64065308 423.59367371 96.63973999 C416.74746092 96.50215926 410.95557168 95.00365319 404.66911316 92.26742554 C403.9150116 91.9593396 403.16091003 91.65125366 402.38395691 91.33383179 C400.79936854 90.6754243 399.23123962 89.97748302 397.66911316 89.26742554 C397.00524597 89.95449585 396.34137878 90.64156616 395.65739441 91.34945679 C393.50784655 93.51265257 391.25218945 95.46493612 388.89958191 97.40414429 C380.50037875 104.24852943 380.50037875 104.24852943 376.83317566 113.97055054 C376.81708553 117.0563851 377.142255 120.01975382 377.53239441 123.07601929 C378.02186527 127.9227958 376.31760243 131.28865535 373.66911316 135.26742554 C371.95817566 137.25570679 371.95817566 137.25570679 370.29411316 138.57992554 C369.75012878 139.02980835 369.20614441 139.47969116 368.64567566 139.94320679 C361.40146193 144.79654365 355.21375083 145.118953 346.66911316 144.26742554 C340.00788876 142.57281005 335.48847498 137.81066148 331.66911316 132.26742554 C329.48660558 128.36619323 329.76277404 125.60276318 330.30583191 121.23764038 C330.85680314 115.95938118 331.0903363 111.45258945 328.10758972 106.86654663 C323.79330924 101.80714912 318.83979768 97.43250818 313.66911316 93.26742554 C313.10571228 93.47891235 312.5423114 93.69039917 311.96183777 93.90829468 C301.62580912 97.60151435 291.39529563 97.85627196 281.32926941 93.14242554 C280.78141785 92.85367554 280.23356628 92.56492554 279.66911316 92.26742554 C271.13981569 99.23195221 271.13981569 99.23195221 262.66911316 106.26742554 C263.3071843 109.1685602 264.23234192 111.65869291 265.52458191 114.32992554 C275.93966273 136.32733336 282.64487837 158.764877 281.66911316 183.26742554 C282.50571472 182.69894897 283.34231628 182.13047241 284.20426941 181.54476929 C311.55867353 163.26341967 343.67435843 155.52848589 376.51286316 161.3453064 C380.28856279 162.14740012 383.97755297 163.142812 387.66911316 164.26742554 C388.44367859 164.49816772 389.21824402 164.72890991 390.01628113 164.96664429 C419.84564758 174.14677905 444.75701628 195.04239236 459.8033905 222.32406616 C463.81582918 229.95216784 467.06321329 237.76281215 469.54411316 246.01742554 C469.73529724 246.65341675 469.92648132 247.28940796 470.12345886 247.94467163 C478.75776608 278.96233271 474.11899994 312.04117504 458.78263855 340.05233765 C444.78765102 364.52777201 422.88001043 383.04961813 396.66911316 393.26742554 C395.67911316 393.26742554 394.68911316 393.26742554 393.66911316 393.26742554 C393.67799561 394.23715805 393.68687805 395.20689056 393.69602966 396.20600891 C393.77732516 405.37129694 393.83717883 414.53651125 393.87636185 423.70207882 C393.89718393 428.41354914 393.9254026 433.12472701 393.97087097 437.83602905 C394.01452153 442.38776564 394.03829068 446.93922197 394.04862213 451.49115181 C394.05597917 453.22260508 394.07034547 454.95404405 394.09203339 456.68537712 C394.24163773 469.12981311 393.30633178 478.07870752 384.52458191 487.47836304 C375.91590611 495.77893886 367.07946429 496.6407661 355.44572449 496.63803101 C353.37155856 496.6423941 351.2995432 496.67875562 349.22575378 496.71664429 C339.74730569 496.79947202 332.37963285 495.7364129 324.64567566 490.04086304 C323.86966003 489.24937866 323.09364441 488.45789429 322.29411316 487.64242554 C321.50262878 486.86640991 320.71114441 486.09039429 319.89567566 485.29086304 C312.77718793 475.62470602 313.13406569 465.50266343 313.27848816 454.00961304 C313.28596127 452.25271248 313.29164913 450.49580352 313.29563904 448.7388916 C313.31081131 444.14548166 313.35001909 439.55258871 313.39445496 434.9593811 C313.43559052 430.26005036 313.45368886 425.56063496 313.47380066 420.86117554 C313.51652276 411.66303344 313.58467039 402.46527271 313.66911316 393.26742554 C312.75323425 393.13328247 311.83735535 392.9991394 310.89372253 392.8609314 C306.97102537 392.13893891 303.69315043 390.62169926 300.16911316 388.82992554 C299.47205261 388.47648071 298.77499207 388.12303589 298.05680847 387.75888062 C271.53754871 373.91294057 251.85970796 350.88742544 240.66911316 323.26742554 C239.76594935 320.23680919 239.16312377 317.39615942 238.66911316 314.26742554 C234.88599929 317.73898886 232.13068068 321.69286858 229.23161316 325.89242554 C228.16743868 327.41781413 227.10230082 328.94253099 226.03630066 330.46664429 C225.48554871 331.25474487 224.93479675 332.04284546 224.36735535 332.85482788 C221.05921172 337.55452244 217.67621229 342.20030421 214.29826355 346.84994507 C213.30667289 348.21729473 212.32484905 349.5917986 211.35452271 350.97431946 C209.66911316 353.26742554 209.66911316 353.26742554 207.8613739 355.30818176 C201.62523024 362.83317192 201.73740103 370.12816547 201.90739441 379.43148804 C201.90816899 380.99312575 201.90526376 382.55476912 201.89889526 384.11639404 C201.88935324 388.21073486 201.91776382 392.30379653 201.95805359 396.3979187 C202.01970734 402.92586865 202.03911233 409.45346549 202.02823448 415.98167038 C202.03226276 418.23291607 202.06232825 420.48266144 202.09521484 422.73364258 C202.23753948 443.87530321 195.14169172 461.25066816 180.43083191 476.60336304 C164.22406133 492.1470088 145.23133366 496.74530572 123.34880066 496.47055054 C107.62214052 496.05144552 92.2990955 488.80936379 80.66911316 478.26742554 C80.0593866 477.72601929 79.44966003 477.18461304 78.82145691 476.62680054 C66.84538121 465.36139307 58.40859973 448.99976838 57.44984436 432.49209595 C57.39922591 428.99314649 57.45619669 425.49718504 57.53351021 421.99897194 C57.58053121 419.66173743 57.59983125 417.32572047 57.6111145 414.98805237 C57.64376487 408.35096802 57.69045301 401.71535788 57.83683777 395.0796814 C59.01199991 370.37327399 59.01199991 370.37327399 47.70549011 349.3164978 C47.17758881 348.7916983 46.6496875 348.2668988 46.10578918 347.72619629 C44.16987749 345.7605121 42.65471523 343.58282097 41.11051941 341.30258179 C40.15174403 339.97774021 39.19213135 338.65350411 38.23161316 337.32992554 C37.69995544 336.59451538 37.16829773 335.85910522 36.62052917 335.10140991 C33.88277439 331.3154356 31.13634186 327.53601885 28.38005066 323.76351929 C0.99874795 286.21562897 -22.256241 244.74433846 -22.53401184 196.80648804 C-22.53971191 196.01704803 -22.54541199 195.22760803 -22.55128479 194.41424561 C-22.56067645 192.74861972 -22.56724536 191.08297574 -22.57112122 189.41732788 C-22.58072831 186.93341282 -22.611766 184.45036245 -22.64338684 181.96664429 C-22.81064597 156.70675042 -16.1274487 134.9087934 -5.33088684 112.26742554 C-5.94069397 111.94709351 -6.5505011 111.62676147 -7.17878723 111.29672241 C-8.38522888 110.64800171 -8.38522888 110.64800171 -9.61604309 109.98617554 C-10.41147522 109.56271851 -11.20690735 109.13926147 -12.02644348 108.70297241 C-17.19861597 105.48098129 -20.43713595 101.00633647 -22.33088684 95.26742554 C-22.52678346 92.69726326 -22.62474609 90.2354945 -22.62141418 87.66659546 C-22.62813141 86.91793716 -22.63484863 86.16927887 -22.64176941 85.39793396 C-22.66071452 82.93118591 -22.66467196 80.4647105 -22.66682434 77.99789429 C-22.67325524 76.27542511 -22.67998382 74.55295702 -22.68699646 72.83049011 C-22.69896089 69.22179636 -22.7026782 65.61319827 -22.70149231 62.00448608 C-22.70128929 57.39447849 -22.72857706 52.78508855 -22.76303673 48.17522717 C-22.78534449 44.61743894 -22.78932865 41.05979838 -22.78827286 37.5019474 C-22.79062353 35.80318386 -22.79941687 34.10441593 -22.81493759 32.40572166 C-22.96276889 14.55311201 -22.96276889 14.55311201 -16.36604309 7.02523804 C-15.71506653 6.48640991 -15.06408997 5.94758179 -14.39338684 5.39242554 C-13.7449884 4.83812866 -13.09658997 4.28383179 -12.42854309 3.71273804 C-8.41253662 0.94565723 -4.84362598 0.01775858 0 0 Z M-3.33088684 18.26742554 C-6.35391979 22.0209064 -6.70584519 24.98210344 -6.70320129 29.72250366 C-6.70943008 31.00733643 -6.71565887 32.29216919 -6.72207642 33.61593628 C-6.71338778 35.01018666 -6.70406974 36.40443324 -6.69416809 37.79867554 C-6.69364901 39.23686726 -6.69416856 40.67505971 -6.69567871 42.11325073 C-6.69558916 45.1225956 -6.68519533 48.13167162 -6.66706848 51.14096069 C-6.6443818 54.99108402 -6.64383904 58.84081485 -6.65058613 62.69098663 C-6.65393363 65.65932683 -6.64728135 68.62757817 -6.63745689 71.59590149 C-6.63361806 73.01521845 -6.6324512 74.43454532 -6.63404274 75.85386658 C-6.63441514 77.84004954 -6.62027988 79.82621908 -6.60554504 81.81234741 C-6.60093765 82.94088135 -6.59633026 84.06941528 -6.59158325 85.23214722 C-6.22873265 89.45680292 -5.34267625 92.25563613 -2.33088684 95.26742554 C1.40505766 96.66724671 5.35056731 96.40072712 9.28337097 96.38095093 C10.04473358 96.38109695 10.80609619 96.38124298 11.5905304 96.38139343 C14.10112887 96.38069809 16.61165268 96.37292341 19.12223816 96.36508179 C20.86530008 96.36321626 22.60836253 96.36179299 24.35142517 96.36079407 C28.93483431 96.35697947 33.51821167 96.3471582 38.10160828 96.33609009 C42.78035553 96.32585324 47.45910793 96.32129157 52.13786316 96.31625366 C61.31496044 96.305535 70.49203416 96.28847126 79.66911316 96.26742554 C79.97171051 97.19793732 80.27430786 98.1284491 80.58607483 99.0871582 C81.66627999 102.25910613 82.9790189 105.11468584 84.48942566 108.10336304 C85.0243866 109.1668396 85.55934753 110.23031616 86.11051941 111.32601929 C86.66610535 112.42043335 87.22169128 113.51484741 87.79411316 114.64242554 C88.63909363 116.31885132 88.63909363 116.31885132 89.50114441 118.02914429 C90.88685883 120.77708644 92.27628263 123.52308533 93.66911316 126.26742554 C94.98911316 126.26742554 96.30911316 126.26742554 97.66911316 126.26742554 C97.66911316 116.36742554 97.66911316 106.46742554 97.66911316 96.26742554 C105.35661316 96.39242554 105.35661316 96.39242554 107.74992371 96.44760132 C111.85394195 96.47977342 115.02679039 96.2000866 118.66911316 94.26742554 C122.20721069 90.729328 121.80054845 86.86122559 121.83024597 82.03353882 C121.83985352 80.77187897 121.84946106 79.51021912 121.85935974 78.21032715 C121.86420782 76.83613262 121.86848663 75.46193599 121.87223816 74.08773804 C121.87799443 72.67293294 121.8837521 71.25812784 121.88951111 69.84332275 C121.90000277 66.87938068 121.90585756 63.91546559 121.90934753 60.95150757 C121.91483126 57.16306648 121.93886405 53.37498496 121.96731949 49.58665657 C121.98598863 46.66462171 121.99115371 43.74267279 121.99268341 40.82058334 C121.99570037 39.42439684 122.00369649 38.02821151 122.01686859 36.63208389 C122.03401823 34.67482936 122.03019119 32.7174255 122.02555847 30.76010132 C122.0292041 29.64853668 122.03284973 28.53697205 122.03660583 27.39172363 C121.60234352 23.69977274 120.71310996 21.37209717 118.66911316 18.26742554 C115.31625862 16.59281937 112.57443573 16.01690534 108.84953308 16.01345825 C107.90750031 16.0078186 106.96546753 16.00217896 105.99488831 15.99636841 C104.46271164 16.0024411 104.46271164 16.0024411 102.89958191 16.00863647 C101.81448334 16.00513184 100.72938477 16.0016272 99.61140442 15.99801636 C96.02640883 15.98921758 92.44161074 15.99504178 88.85661316 16.00180054 C86.36466941 16.00045336 83.87272593 15.99851238 81.38078308 15.9960022 C75.49012022 15.99267583 69.59952898 15.99967313 63.70887661 16.01030374 C59.013627 16.01781289 54.31846122 16.01515666 49.62321472 16.00668335 C43.14651559 15.99509576 36.66989749 15.99326989 30.19319153 15.99979401 C27.72442099 16.00112866 25.255647 15.99948924 22.78688049 15.9948349 C19.33737531 15.98975888 15.88813022 15.99749537 12.43864441 16.00863647 C11.4171933 16.00458801 10.39574219 16.00053955 9.34333801 15.99636841 C8.40130524 16.00200806 7.45927246 16.00764771 6.48869324 16.01345825 C5.67386978 16.0142123 4.85904633 16.01496635 4.01953125 16.01574326 C1.25854609 16.31138897 -0.83743189 17.05558348 -3.33088684 18.26742554 Z M399.66911316 29.26742554 C394.95808907 35.65525481 393.43950599 44.09361064 393.78630066 51.90805054 C395.22621761 61.25281772 400.30986445 68.97573219 407.59880066 74.86508179 C414.65726308 79.64619124 422.70226333 80.85471637 431.04411316 79.70492554 C439.23612998 78.00062245 446.26730995 73.81234383 451.42301941 67.18148804 C457.0554671 58.52976588 458.61507215 50.1430851 456.52067566 40.07601929 C454.14222144 32.2314845 449.48787499 25.79440435 442.66911316 21.26742554 C442.04778503 20.85492554 441.42645691 20.44242554 440.78630066 20.01742554 C426.27842222 12.07394837 410.09212524 17.88164527 399.66911316 29.26742554 Z M137.66911316 49.26742554 C137.66546753 49.82595215 137.6618219 50.38447876 137.6580658 50.95993042 C137.61608464 56.80079985 137.54663094 62.64089488 137.46159363 68.48129272 C137.43345949 70.65764602 137.41220756 72.83410007 137.39811707 75.0105896 C137.3765831 78.14880672 137.3298781 81.28582217 137.27848816 84.42367554 C137.27725952 85.3885791 137.27603088 86.35348267 137.27476501 87.34762573 C137.13111044 94.05258196 135.96728214 99.70051686 131.29307556 104.75558472 C125.85186069 109.56292542 120.74877958 111.36470538 113.66911316 112.26742554 C113.65976746 112.8366272 113.65042175 113.40582886 113.64079285 113.99227905 C113.58665147 116.60566206 113.50309571 119.21733796 113.41911316 121.82992554 C113.40493347 122.72517944 113.39075378 123.62043335 113.37614441 124.54281616 C113.15462021 130.59042677 112.24525189 134.33659153 108.66911316 139.26742554 C104.02823447 143.39150259 98.21315362 143.89453781 92.21989441 143.65414429 C86.0020516 142.7114698 83.4650084 139.01229458 79.66911316 134.26742554 C76.03911316 127.00742554 72.40911316 119.74742554 68.66911316 112.26742554 C50.84911316 112.26742554 33.02911316 112.26742554 14.66911316 112.26742554 C8.38670619 123.43614903 3.30078612 133.21958476 -0.33088684 145.26742554 C-0.63035217 146.23301392 -0.63035217 146.23301392 -0.93586731 147.21810913 C-14.10884162 190.58331824 -2.84893779 238.73487337 17.89982605 277.78598022 C23.06624776 287.10563035 29.41598336 295.65957493 35.66911316 304.26742554 C36.79209184 305.82429696 37.91450297 307.38157794 39.03630066 308.93930054 C40.65652185 311.1868988 42.27837065 313.43322711 43.90544128 315.6758728 C47.62275296 320.79965817 51.28242848 325.96118054 54.91911316 331.14242554 C62.22397239 342.17546759 62.22397239 342.17546759 70.66911316 352.26742554 C73.26245464 352.35593224 75.82973895 352.38275723 78.42301941 352.36508179 C79.11004944 352.36407471 79.79707947 352.36306763 80.50492859 352.36203003 C83.080507 352.3567833 85.65606169 352.34282213 88.23161316 352.32992554 C93.98598816 352.30930054 99.74036316 352.28867554 105.66911316 352.26742554 C105.66911316 331.14742554 105.66911316 310.02742554 105.66911316 288.26742554 C84.54911316 288.26742554 63.42911316 288.26742554 41.66911316 288.26742554 C41.66911316 256.58742554 41.66911316 224.90742554 41.66911316 192.26742554 C57.50911316 192.26742554 73.34911316 192.26742554 89.66911316 192.26742554 C89.66911316 213.38742554 89.66911316 234.50742554 89.66911316 256.26742554 C84.38911316 256.26742554 79.10911316 256.26742554 73.66911316 256.26742554 C73.66911316 240.42742554 73.66911316 224.58742554 73.66911316 208.26742554 C68.38911316 208.26742554 63.10911316 208.26742554 57.66911316 208.26742554 C57.66911316 229.38742554 57.66911316 250.50742554 57.66911316 272.26742554 C78.78911316 272.26742554 99.90911316 272.26742554 121.66911316 272.26742554 C121.66911316 298.66742554 121.66911316 325.06742554 121.66911316 352.26742554 C126.94911316 352.26742554 132.22911316 352.26742554 137.66911316 352.26742554 C137.66911316 325.86742554 137.66911316 299.46742554 137.66911316 272.26742554 C158.78911316 272.26742554 179.90911316 272.26742554 201.66911316 272.26742554 C201.66911316 230.02742554 201.66911316 187.78742554 201.66911316 144.26742554 C196.38911316 144.26742554 191.10911316 144.26742554 185.66911316 144.26742554 C185.66911316 181.22742554 185.66911316 218.18742554 185.66911316 256.26742554 C180.38911316 256.26742554 175.10911316 256.26742554 169.66911316 256.26742554 C169.66911316 214.02742554 169.66911316 171.78742554 169.66911316 128.26742554 C185.50911316 128.26742554 201.34911316 128.26742554 217.66911316 128.26742554 C217.66911316 181.06742554 217.66911316 233.86742554 217.66911316 288.26742554 C196.54911316 288.26742554 175.42911316 288.26742554 153.66911316 288.26742554 C153.66911316 309.38742554 153.66911316 330.50742554 153.66911316 352.26742554 C162.08411316 352.57680054 162.08411316 352.57680054 170.66911316 352.89242554 C172.42352722 352.98346558 174.17794128 353.07450562 175.98551941 353.16830444 C184.12892718 353.51694074 184.12892718 353.51694074 191.37931824 350.27816772 C193.45126997 347.71273039 195.06839708 345.14663225 196.66911316 342.26742554 C197.63598146 340.90164173 198.61793449 339.54634446 199.61833191 338.20492554 C200.53405658 336.89449196 201.44676079 335.58194313 202.35661316 334.26742554 C203.39087602 332.78763406 204.42606426 331.308489 205.46208191 329.82992554 C205.98850281 329.0784021 206.51492371 328.32687866 207.05729675 327.55258179 C209.19328034 324.52428636 211.36097864 321.51986157 213.53849792 318.52133179 C214.62897099 317.01403319 215.71147066 315.50093509 216.78605652 313.98226929 C219.42694414 310.26389951 222.1155394 306.69879926 225.12223816 303.26742554 C234.00610592 292.74174869 234.74579697 284.21631764 234.62614441 270.66195679 C234.4407341 246.22051506 246.3256951 221.78847455 261.66911316 203.26742554 C262.23372253 202.81625366 262.79833191 202.36508179 263.38005066 201.90023804 C265.48655075 199.23200459 265.34313808 196.16642549 265.48161316 192.89242554 C265.51657898 192.14638062 265.5515448 191.40033569 265.58757019 190.63168335 C266.36003519 167.03020559 261.99927414 139.262667 248.66911316 119.26742554 C246.06530597 120.38334291 244.6081178 121.33413921 242.66911316 123.45492554 C242.00911316 124.05305054 241.34911316 124.65117554 240.66911316 125.26742554 C237.70610548 125.10558058 236.67880457 124.27678093 234.52848816 122.20101929 C233.83239441 121.37730835 233.13630066 120.55359741 232.41911316 119.70492554 C231.71270691 118.87863647 231.00630066 118.05234741 230.27848816 117.20101929 C229.74739441 116.56293335 229.21630066 115.92484741 228.66911316 115.26742554 C234.81945484 107.78450982 234.81945484 107.78450982 238.66911316 105.26742554 C228.5330237 82.88570515 200.60896662 65.88489764 178.3658905 57.38754272 C165.1721826 52.67918926 151.73387469 49.16370713 137.66911316 49.26742554 Z M284.35661316 55.64242554 C281.96772162 59.35847904 281.28923144 62.04411779 282.04020691 66.43930054 C283.65258861 72.40811727 286.36668597 76.06316308 291.66911316 79.26742554 C296.32268492 80.9872238 300.02054773 80.01030519 304.54801941 78.36117554 C308.48175869 76.33272802 310.69973027 73.20619132 312.66911316 69.26742554 C313.2094691 64.34221404 313.21346785 60.39800836 311.04411316 55.89242554 C307.80137671 52.3083484 305.2043542 49.67207313 300.27067566 48.88461304 C293.11986234 48.56250433 289.36538235 50.4982842 284.35661316 55.64242554 Z M347.66911316 114.89242554 C346.38619138 117.93936476 346.25915404 119.98775255 346.66911316 123.26742554 C347.50244649 125.76742554 347.50244649 125.76742554 349.66911316 127.26742554 C352.44339063 127.83384052 354.89483569 127.83384052 357.66911316 127.26742554 C360.37327117 125.07029715 360.61404061 123.70800592 361.04411316 120.26742554 C360.61404061 116.82684515 360.37327117 115.46455392 357.66911316 113.26742554 C353.84276153 112.48621208 350.76205601 112.37940947 347.66911316 114.89242554 Z M286.66911316 201.26742554 C285.82993347 201.97640991 284.99075378 202.68539429 284.12614441 203.41586304 C264.45424497 220.37952821 252.16973858 244.94637279 249.82096863 270.79330444 C248.15684025 297.90628993 255.77533515 325.46999187 273.66911316 346.26742554 C274.39743347 347.14012085 275.12575378 348.01281616 275.87614441 348.91195679 C293.98794543 369.83269626 318.93578304 381.67889763 346.35661316 384.07992554 C373.50621884 385.61269806 399.86897692 376.55875614 421.10661316 359.64242554 C423.59971061 357.33174985 425.59047018 354.94954551 427.66911316 352.26742554 C428.44512878 351.50172241 429.22114441 350.73601929 430.02067566 349.94711304 C448.02381035 331.73155198 457.11336115 306.93200283 456.98161316 281.57992554 C456.97315369 279.86700317 456.97315369 279.86700317 456.96452332 278.11947632 C456.60057727 252.66126998 447.50361393 231.81588212 431.66911316 212.26742554 C430.84926941 211.24133179 430.02942566 210.21523804 429.18473816 209.15805054 C425.18301326 204.55979522 420.47249586 200.99249783 415.66911316 197.26742554 C414.5108905 196.3509021 414.5108905 196.3509021 413.32926941 195.41586304 C376.2645391 167.66483419 321.01807212 170.53726882 286.66911316 201.26742554 Z M73.66911316 368.26742554 C73.66911316 373.54742554 73.66911316 378.82742554 73.66911316 384.26742554 C110.62911316 384.26742554 147.58911316 384.26742554 185.66911316 384.26742554 C185.66911316 378.98742554 185.66911316 373.70742554 185.66911316 368.26742554 C148.70911316 368.26742554 111.74911316 368.26742554 73.66911316 368.26742554 Z M329.66911316 398.26742554 C329.59934757 406.71728859 329.54616797 415.16702962 329.51367664 423.61711025 C329.4980759 427.54158704 329.47694109 431.46586556 329.4427948 435.39022827 C329.41000016 439.18334441 329.39221818 442.97627084 329.38448143 446.7695179 C329.37897374 448.21068365 329.36821928 449.65183999 329.35192299 451.09292412 C329.0797336 463.97662197 329.0797336 463.97662197 334.31755066 475.42367554 C335.1721991 476.08883179 335.1721991 476.08883179 336.04411316 476.76742554 C336.60872253 477.23148804 337.17333191 477.69555054 337.75505066 478.17367554 C344.85535485 482.23099222 356.68783147 481.04906282 364.60661316 479.80648804 C369.97534438 478.26479157 372.68448657 475.9704735 375.66911316 471.26742554 C377.28413028 466.52285127 377.91535482 462.41337732 377.89616394 457.41415405 C377.89645599 456.76939621 377.89674805 456.12463837 377.89704895 455.46034241 C377.89566942 453.35552927 377.88017444 451.25108212 377.86442566 449.14633179 C377.86069061 447.6766021 377.85784596 446.20686991 377.85585022 444.73713684 C377.84825246 440.8885803 377.82863763 437.04017725 377.80644226 433.19168091 C377.78590024 429.25666377 377.77683071 425.32162158 377.76676941 421.38656616 C377.74538766 413.68011636 377.71129894 405.97379254 377.66911316 398.26742554 C377.02554871 398.3380722 376.38198425 398.40871887 375.71891785 398.48150635 C370.77074464 399.00423874 365.90012147 399.39492294 360.91911316 399.40023804 C359.73317566 399.4015271 358.54723816 399.40281616 357.32536316 399.40414429 C356.11880066 399.4002771 354.91223816 399.39640991 353.66911316 399.39242554 C352.46255066 399.39629272 351.25598816 399.40015991 350.01286316 399.40414429 C348.23395691 399.40221069 348.23395691 399.40221069 346.41911316 399.40023804 C344.83356628 399.39854614 344.83356628 399.39854614 343.21598816 399.39682007 C338.67479483 399.23115153 334.18462195 398.76311116 329.66911316 398.26742554 Z M73.66911316 400.26742554 C73.66911316 405.54742554 73.66911316 410.82742554 73.66911316 416.26742554 C110.62911316 416.26742554 147.58911316 416.26742554 185.66911316 416.26742554 C185.66911316 410.98742554 185.66911316 405.70742554 185.66911316 400.26742554 C148.70911316 400.26742554 111.74911316 400.26742554 73.66911316 400.26742554 Z M74.66911316 432.26742554 C78.82889208 448.90654123 84.50017448 461.45329728 99.16911316 471.20492554 C113.50897588 479.56484551 128.41905948 482.12506436 144.66911316 478.26742554 C158.49676016 474.25680931 170.50532046 465.27484935 177.77848816 452.79867554 C181.50990327 445.88211104 183.0772939 440.22652181 184.66911316 432.26742554 C148.36911316 432.26742554 112.06911316 432.26742554 74.66911316 432.26742554 Z " fill="#FFC106" transform="translate(30.330886840820313,7.732574462890625)"/>
<path d="M0 0 C1.05243896 0.00563965 2.10487793 0.0112793 3.18920898 0.01708984 C27.78336146 0.39968659 48.49348146 10.70109892 65.5559082 28.02490234 C81.08107023 44.49427806 88.62728835 65.60769142 88.5 88.125 C88.49436035 89.17743896 88.4887207 90.22987793 88.48291016 91.31420898 C88.10031341 115.90836146 77.79890108 136.61848146 60.47509766 153.6809082 C44.00572194 169.20607023 22.89230858 176.75228835 0.375 176.625 C-0.67743896 176.61936035 -1.72987793 176.6137207 -2.81420898 176.60791016 C-27.40836146 176.22531341 -48.11848146 165.92390108 -65.1809082 148.60009766 C-80.70607023 132.13072194 -88.25228835 111.01730858 -88.125 88.5 C-88.11654053 86.92134155 -88.11654053 86.92134155 -88.10791016 85.31079102 C-87.72531341 60.71663854 -77.42390108 40.00651854 -60.10009766 22.9440918 C-43.63072194 7.41892977 -22.51730858 -0.12728835 0 0 Z M-54.25 41.02734375 C-65.06623096 54.63898575 -71.42470385 70.55159149 -71.3125 88 C-71.30677979 89.04583252 -71.30105957 90.09166504 -71.29516602 91.16918945 C-70.86959638 109.80111521 -62.82178946 126.95711051 -49.8125 140.3125 C-36.0158061 152.69974747 -18.69283619 159.93190245 -0.125 159.8125 C0.92083252 159.80677979 1.96666504 159.80105957 3.04418945 159.79516602 C21.67611521 159.36959638 38.83211051 151.32178946 52.1875 138.3125 C64.57474747 124.5158061 71.80690245 107.19283619 71.6875 88.625 C71.68177979 87.57916748 71.67605957 86.53333496 71.67016602 85.45581055 C71.24459638 66.82388479 63.19678946 49.66788949 50.1875 36.3125 C36.3908061 23.92525253 19.06783619 16.69309755 0.5 16.8125 C-0.54583252 16.81822021 -1.59166504 16.82394043 -2.66918945 16.82983398 C-22.38482438 17.28015649 -41.04610519 26.3210827 -54.25 41.02734375 Z " fill="#FFC106" transform="translate(383.8125,199.6875)"/>
<path d="M0 0 C15.84 0 31.68 0 48 0 C48 31.68 48 63.36 48 96 C42.72 96 37.44 96 32 96 C32 69.6 32 43.2 32 16 C26.72 16 21.44 16 16 16 C16 42.4 16 68.8 16 96 C10.72 96 5.44 96 0 96 C0 64.32 0 32.64 0 0 Z " fill="#FFC107" transform="translate(136,168)"/>
<path d="M0 0 C15.84 0 31.68 0 48 0 C48 5.28 48 10.56 48 16 C32.16 16 16.32 16 0 16 C0 10.72 0 5.44 0 0 Z " fill="#FFC107" transform="translate(88,40)"/>
<path d="M0 0 C10.56 0 21.12 0 32 0 C32 5.28 32 10.56 32 16 C21.44 16 10.88 16 0 16 C0 10.72 0 5.44 0 0 Z " fill="#FFC107" transform="translate(40,72)"/>
<path d="M0 0 C10.56 0 21.12 0 32 0 C32 5.28 32 10.56 32 16 C21.44 16 10.88 16 0 16 C0 10.72 0 5.44 0 0 Z " fill="#FFC107" transform="translate(40,40)"/>
<path d="M0 0 C5.28 0 10.56 0 16 0 C16 5.28 16 10.56 16 16 C10.72 16 5.44 16 0 16 C0 10.72 0 5.44 0 0 Z " fill="#FFC107" transform="translate(408,280)"/>
<path d="M0 0 C5.28 0 10.56 0 16 0 C16 5.28 16 10.56 16 16 C10.72 16 5.44 16 0 16 C0 10.72 0 5.44 0 0 Z " fill="#FFC107" transform="translate(376,280)"/>
<path d="M0 0 C5.28 0 10.56 0 16 0 C16 5.28 16 10.56 16 16 C10.72 16 5.44 16 0 16 C0 10.72 0 5.44 0 0 Z " fill="#FFC107" transform="translate(344,280)"/>
<path d="M0 0 C5.28 0 10.56 0 16 0 C16 5.28 16 10.56 16 16 C10.72 16 5.44 16 0 16 C0 10.72 0 5.44 0 0 Z " fill="#FFC107" transform="translate(120,72)"/>
<path d="M0 0 C5.28 0 10.56 0 16 0 C16 5.28 16 10.56 16 16 C10.72 16 5.44 16 0 16 C0 10.72 0 5.44 0 0 Z " fill="#FFC107" transform="translate(88,72)"/>
</svg>
