<?xml version="1.0" encoding="UTF-8"?>
<svg version="1.1" xmlns="http://www.w3.org/2000/svg" width="512" height="512">
<path d="M0 0 C1.10078878 -0.00525911 1.10078878 -0.00525911 2.22381571 -0.01062447 C4.6782546 -0.0199144 7.13245497 -0.01502141 9.58690357 -0.01015663 C11.36630837 -0.01389411 13.14571152 -0.01849602 14.92511207 -0.02388728 C19.81162798 -0.03612073 24.69807545 -0.03585639 29.58460319 -0.03349853 C34.85607164 -0.03309044 40.12751811 -0.04412872 45.39897633 -0.05361366 C55.72594341 -0.07022683 66.05288766 -0.07572336 76.37986698 -0.07683842 C84.77491003 -0.0777888 93.16994556 -0.08189859 101.56498623 -0.08823967 C125.36865733 -0.10585339 149.17231039 -0.1150784 172.97598805 -0.11357872 C174.90089543 -0.11345885 174.90089543 -0.11345885 176.86468983 -0.11333656 C178.14952917 -0.1132548 179.43436852 -0.11317304 180.75814239 -0.1130888 C201.57830339 -0.11227599 222.39839203 -0.13141202 243.21853211 -0.1596133 C264.59865144 -0.18834443 285.97873549 -0.20215344 307.35887462 -0.20042574 C319.3612936 -0.1997619 331.36363673 -0.20525194 343.36603832 -0.22678185 C353.58586139 -0.24499668 363.80557423 -0.24933848 374.0254065 -0.235763 C379.23802984 -0.22923478 384.45044173 -0.22911103 389.66304493 -0.2464695 C394.43946446 -0.26221157 399.21550509 -0.25932485 403.99191544 -0.24190123 C405.71532858 -0.23883384 407.43877007 -0.24245384 409.16214975 -0.25362138 C426.37187695 -0.35771133 438.44085672 3.5128265 451.11298084 15.38226891 C459.5125901 24.01716134 464.67058692 34.75201552 464.67995644 46.91874313 C464.68578863 48.22643673 464.69162082 49.53413033 464.69762975 50.88145101 C464.69399706 52.3206381 464.69017272 53.75982472 464.68617725 55.19901085 C464.68919925 56.73719042 464.69308897 58.2753685 464.69776982 59.81354392 C464.70805237 64.03316593 464.70586734 68.25270301 464.70158923 72.472332 C464.69912247 77.02594354 464.70813554 81.57953461 464.71562672 86.13313866 C464.72837716 95.05139012 464.73016697 103.96961149 464.72782645 112.88787054 C464.72604352 120.13686759 464.72779241 127.3858555 464.7320509 134.63485146 C464.73264608 135.66651426 464.73324127 136.69817707 464.7338545 137.76110239 C464.73506625 139.85692107 464.73628038 141.95273975 464.73749688 144.04855843 C464.74837375 163.70401262 464.74620922 183.35944965 464.74011203 203.01490481 C464.73494278 220.99504467 464.74619828 238.97513035 464.76521025 256.95525949 C464.78458366 275.4188023 464.79284552 293.88231948 464.789087 312.34587252 C464.78717419 322.71112515 464.78967023 333.07633166 464.80380154 343.441576 C464.81570996 352.2656355 464.81712626 361.0896205 464.80501137 369.91368102 C464.79911891 374.41503537 464.79803342 378.91625342 464.81001377 383.41759872 C464.82085962 387.54061998 464.81778471 391.66339091 464.80375209 395.78640039 C464.80110158 397.27557415 464.80348282 398.76476743 464.81148795 400.25392203 C464.87539255 413.03166838 463.3437415 421.80498066 454.42548084 431.25726891 C443.3402938 441.25353777 433.69629808 441.25726891 418.42548084 441.25726891 C418.42548084 458.08726891 418.42548084 474.91726891 418.42548084 492.25726891 C431.69393909 492.0596731 431.69393909 492.0596731 444.96136951 491.80682945 C446.63037993 491.79222018 448.29940822 491.77948055 449.96844959 491.76898766 C450.82813343 491.74340782 451.68781727 491.71782799 452.57355213 491.69147301 C457.04213015 491.68822691 458.83770514 491.79964993 462.47504139 494.63153648 C464.58807055 497.47615141 465.10512947 498.75975645 465.05048084 502.25726891 C465.06337147 503.08226891 465.07626209 503.90726891 465.08954334 504.75726891 C464.10571162 508.46110598 462.40632555 509.87836417 459.42548084 512.25726891 C456.42031431 512.74851495 453.9849124 512.93089044 450.98428822 512.88647461 C450.13245339 512.89374181 449.28061856 512.90100902 448.40297055 512.90849644 C445.53486633 512.92681372 442.66808809 512.90935992 439.79999256 512.89218712 C437.72858399 512.89794564 435.65718051 512.90588494 433.58578777 512.91582334 C427.88300926 512.9367567 422.18064742 512.92635187 416.47786713 512.91089225 C410.33189685 512.89960925 404.18599972 512.91702629 398.04004383 512.93079185 C386.69247852 512.95177343 375.34508365 512.94990848 363.99752253 512.93623451 C353.51514066 512.92366486 343.03280767 512.92036942 332.55041981 512.92634773 C331.50810467 512.92692062 331.50810467 512.92692062 330.44473265 512.92750508 C327.62411785 512.92906173 324.80350308 512.93065373 321.98288833 512.9323039 C295.51445863 512.94760457 269.04611385 512.93372264 242.57769725 512.90681942 C219.05360565 512.88309073 195.52964938 512.88521384 172.00555897 512.90912437 C145.58605656 512.93588802 119.16662922 512.94651953 92.74711514 512.93106306 C89.93159073 512.92945943 87.11606631 512.92789523 84.30054188 512.92634773 C83.26063399 512.92575465 83.26063399 512.92575465 82.19971786 512.92514959 C71.72301071 512.91945828 61.24635774 512.92612093 50.76965809 512.9387455 C38.85911222 512.95302617 26.9487262 512.94901873 15.03818655 512.92234178 C8.95758997 512.90917288 2.87726851 512.9041037 -3.20332623 512.92058754 C-8.76471925 512.93543621 -14.32558096 512.92738274 -19.88692546 512.90069978 C-21.90366995 512.89509322 -23.9204589 512.89800357 -25.93717504 512.91007872 C-28.66987193 512.92519151 -31.40072729 512.90978706 -34.13332653 512.88647461 C-34.92414364 512.89818044 -35.71496074 512.90988627 -36.529742 512.92194682 C-40.56031336 512.8527886 -42.36911911 512.42119128 -45.56058979 509.87419355 C-47.74867584 507.03096757 -48.25477462 505.79361832 -48.19951916 502.25726891 C-48.21240978 501.43226891 -48.22530041 500.60726891 -48.23858166 499.75726891 C-47.24367617 496.01174237 -45.62530799 494.63249278 -42.57451916 492.25726891 C-39.41240158 491.57827061 -36.33926051 491.67312403 -33.11748791 491.76898766 C-32.31653698 491.77402306 -31.51558605 491.77905846 -30.69036388 491.78424644 C-27.71388204 491.81030034 -24.73791263 491.88010791 -21.76201916 491.94476891 C-15.10014416 492.04789391 -8.43826916 492.15101891 -1.57451916 492.25726891 C-1.57451916 475.42726891 -1.57451916 458.59726891 -1.57451916 441.25726891 C-6.85451916 441.25726891 -12.13451916 441.25726891 -17.57451916 441.25726891 C-27.97716924 439.10499648 -36.48413543 434.11432085 -42.57451916 425.25726891 C-46.18254419 419.09355947 -47.69732464 414.15405344 -47.70874023 406.9733181 C-47.71319808 405.67344774 -47.71765592 404.37357738 -47.72224885 403.03431702 C-47.72215956 401.58837063 -47.72196971 400.14242425 -47.72169018 398.69647789 C-47.7249896 397.1630265 -47.72871534 395.62957597 -47.73283166 394.09612656 C-47.74285103 389.87554297 -47.74656836 385.65497361 -47.74922097 381.43437982 C-47.75312426 376.88475137 -47.76270266 372.33513418 -47.77143383 367.78551292 C-47.7911986 356.79407309 -47.80126494 345.80263233 -47.81016162 334.81117916 C-47.81454492 329.63449671 -47.81991166 324.45781529 -47.82515049 319.28113365 C-47.84216357 302.07109349 -47.85665723 284.86105397 -47.86389923 267.6510067 C-47.86580911 263.18463706 -47.86772945 258.71826743 -47.86968517 254.25189781 C-47.87016891 253.14180823 -47.87065265 252.03171865 -47.87115105 250.88799 C-47.87944939 232.90967586 -47.90478266 214.93142831 -47.93726585 196.95314324 C-47.97034741 178.49307475 -47.98834903 160.03304007 -47.99154347 141.57294178 C-47.99370766 131.20920179 -48.00244292 120.84555885 -48.02800465 110.48184776 C-48.04972669 101.6544997 -48.05775468 92.82727228 -48.04803786 83.99990052 C-48.0434974 79.49814942 -48.04536457 74.99664714 -48.06479931 70.49493027 C-48.08246217 66.36787716 -48.08140814 62.24125381 -48.06590202 58.11419594 C-48.06353065 56.6268926 -48.0678249 55.13955925 -48.07973067 53.65230167 C-48.20377175 37.12378537 -43.70682348 25.58835855 -32.44951916 13.56976891 C-23.44443075 4.81005076 -12.60681487 0.01362936 0 0 Z M-19.10186291 29.70258141 C-30.09611901 41.93327361 -27.57451916 56.16162384 -27.57451916 72.25726891 C128.18548084 72.25726891 283.94548084 72.25726891 444.42548084 72.25726891 C445.73604859 48.08515298 445.73604859 48.08515298 434.98016834 28.72992516 C426.70288667 21.28941786 417.80040087 20.13473612 407.03746796 20.12863445 C406.33592281 20.12688142 405.63437765 20.12512838 404.91157356 20.12332222 C402.57314617 20.11868978 400.23478171 20.12112056 397.89635181 20.12355614 C396.19786873 20.12168678 394.49938607 20.11938558 392.8009041 20.11669081 C388.14276231 20.11058192 383.4846385 20.11070534 378.82649362 20.11188519 C373.79910753 20.11208942 368.77172717 20.10656828 363.74434376 20.10182762 C353.89845285 20.09352565 344.05256794 20.09077299 334.20667382 20.09021524 C326.20304829 20.0897399 318.19942473 20.08768422 310.19579983 20.08451462 C287.49972461 20.07570952 264.80365411 20.07109505 242.10757717 20.07184509 C240.27273368 20.07190503 240.27273368 20.07190503 238.40082264 20.07196617 C237.17609878 20.07200705 235.95137492 20.07204793 234.68953822 20.07209005 C214.83876714 20.07249655 194.98801503 20.06292566 175.13724943 20.0488278 C154.75038798 20.03446354 134.36353578 20.02755764 113.97666913 20.02842158 C102.53267447 20.02875352 91.08869969 20.02600782 79.64470959 20.01524353 C69.90177637 20.00613791 60.15887206 20.00396382 50.41593643 20.01075295 C45.44651898 20.01401774 40.47715697 20.01407626 35.50774479 20.0053997 C30.95479727 19.99753214 26.40194917 19.9989688 21.84900407 20.00768384 C20.20572009 20.00921824 18.56242869 20.00740491 16.91915347 20.00182376 C-2.69751787 19.92192565 -2.69751787 19.92192565 -19.10186291 29.70258141 Z M-27.57451916 92.25726891 C-27.63639416 143.88164391 -27.69826916 195.50601891 -27.76201916 248.69476891 C-27.78933117 265.00584068 -27.81664318 281.31691246 -27.84478283 298.12225914 C-27.85481504 312.72108174 -27.85481504 312.72108174 -27.86085033 327.31990623 C-27.86364953 333.83121038 -27.87466077 340.34243744 -27.89124584 346.85371971 C-27.9103462 354.36360734 -27.91902596 361.87342094 -27.91485401 369.38333303 C-27.91304725 373.22472694 -27.91590583 377.06595541 -27.93216455 380.90731895 C-27.94947872 385.02309771 -27.94349641 389.13851705 -27.93528271 393.25432396 C-27.9440207 394.44952188 -27.95275869 395.64471979 -27.96176147 396.87613583 C-27.95310542 407.70220855 -27.95310542 407.70220855 -22.97515935 416.9589023 C-18.63731603 420.5352275 -14.18201912 420.50821975 -8.77764416 420.37836266 C-8.08364513 420.3696212 -7.38964611 420.36087975 -6.67461681 420.3518734 C-4.97444306 420.32919466 -3.2744376 420.29444962 -1.57451916 420.25726891 C-1.56517345 419.2785482 -1.55582775 418.2998275 -1.54619884 417.29144859 C-1.50626457 413.653131 -1.44049782 410.01565599 -1.36699963 406.37787437 C-1.33880962 404.80474247 -1.31758518 403.23146944 -1.30352306 401.65814781 C-1.28206474 399.39357934 -1.23540568 397.13070386 -1.18389416 394.86664391 C-1.1820512 393.81485954 -1.1820512 393.81485954 -1.18017101 392.74182701 C-1.08680777 389.61506451 -0.84551959 387.63088449 1.01062489 385.07190514 C4.31140194 382.59154617 6.50182059 382.74979457 10.60907459 382.73969078 C11.32499775 382.7326815 12.04092091 382.72567223 12.7785387 382.71845055 C15.14041628 382.70087343 17.50109151 382.71249115 19.86298084 382.72601891 C21.50678201 382.72332388 23.15058162 382.71944137 24.79437733 382.71442223 C28.23764712 382.7085276 31.68050155 382.71708862 35.12372303 382.73578453 C39.53581777 382.75857449 43.94693926 382.74545115 48.3589983 382.72149467 C51.75282585 382.70703548 55.14642293 382.71164315 58.54025745 382.72200584 C60.16694727 382.72467281 61.79365805 382.72140438 63.42032337 382.71208763 C65.69474112 382.70191948 67.96758639 382.71742414 70.24188709 382.73969078 C71.53554188 382.74287315 72.82919666 382.74605553 74.16205311 382.74933434 C77.42548084 383.25726891 77.42548084 383.25726891 79.8403368 384.6588192 C82.32683757 388.73481925 81.99575219 392.6626119 81.97137928 397.35004234 C81.98171696 398.37475136 81.99205463 399.39946037 82.00270557 400.45522118 C82.03220524 403.84252113 82.0336343 407.22922541 82.03485584 410.61664391 C82.04983259 412.96506457 82.06655866 415.31347468 82.08496571 417.66187096 C82.12870781 423.84323159 82.14865367 430.02445012 82.16370106 436.20593834 C82.18324729 442.51349883 82.22522012 448.8209053 82.26532459 455.12836266 C82.34070132 467.50464338 82.38887531 479.88081271 82.42548084 492.25726891 C91.66548084 492.25726891 100.90548084 492.25726891 110.42548084 492.25726891 C110.42912647 489.57261497 110.4327721 486.88796104 110.43652821 484.12195396 C110.47271292 458.87021783 110.53086139 433.61860105 110.60938358 408.36696053 C110.64922528 395.38361714 110.68159169 382.40033483 110.69647694 369.41693687 C110.70946687 358.10312414 110.73636339 346.78944548 110.78009391 335.47570825 C110.80276855 329.48287001 110.81838793 323.49019749 110.81736469 317.49731255 C110.81662163 311.86005764 110.83442992 306.22316993 110.86664867 300.58600998 C110.87518809 298.51395847 110.8768704 296.44186596 110.87128353 294.36980438 C110.86468286 291.54627543 110.88246946 288.72392829 110.90649891 285.90051842 C110.89873849 285.0756159 110.89097807 284.25071338 110.88298249 283.40081382 C110.93781766 279.77521028 111.08691221 277.69705949 113.33291721 274.77956581 C117.06376062 272.06545414 119.40657683 272.12632083 124.01483631 272.11200523 C124.69145313 272.10864662 125.36806995 272.10528801 126.06519032 272.10182762 C128.30770154 272.09230892 130.55013816 272.09037397 132.79266834 272.08930016 C134.34964498 272.08608791 135.90662131 272.08272387 137.4635973 272.0792141 C140.73035857 272.07322032 143.99709337 272.07137442 147.26385975 272.07196617 C151.44930309 272.07206774 155.63457657 272.05842218 159.81997967 272.04119396 C163.03703051 272.03007281 166.25404034 272.02804701 169.47110844 272.0285759 C171.01407042 272.0273957 172.55703346 272.02297168 174.09997654 272.01524353 C176.25921719 272.00544242 178.41808969 272.00832212 180.57733631 272.01434898 C181.80596394 272.01292397 183.03459156 272.01149895 184.30045033 272.01003075 C187.31922256 272.24886223 188.9581306 272.55277081 191.42548084 274.25726891 C193.99936007 278.11808775 193.7144181 281.30287806 193.70395374 285.7802639 C193.70974615 286.66079093 193.71553855 287.54131796 193.72150648 288.44852763 C193.73856419 291.41044618 193.74138794 294.37220945 193.7443285 297.3341732 C193.75362269 299.45281929 193.76379059 301.57146169 193.77476978 303.69009972 C193.8021412 309.45212718 193.81724033 315.2141301 193.83019781 320.97620559 C193.84579716 326.99406049 193.87259751 333.01186504 193.89822865 339.02968407 C193.94507315 350.42996514 193.98178978 361.83025564 194.01490152 373.23058397 C194.05308288 386.20746312 194.10250345 399.18429177 194.15288568 412.1611284 C194.25628987 438.85980521 194.34512394 465.55851365 194.42548084 492.25726891 C203.66548084 492.25726891 212.90548084 492.25726891 222.42548084 492.25726891 C222.4394994 486.33612144 222.4394994 486.33612144 222.45380116 480.29535484 C222.48752737 467.2713644 222.54284994 454.24754144 222.60938358 441.2236805 C222.6492039 433.32520517 222.68158111 425.4268299 222.69647694 417.528265 C222.70947804 410.64437543 222.73640293 403.76070575 222.78009391 396.87694001 C222.8027438 393.23151337 222.81838944 389.58635828 222.81736469 385.94085503 C222.81648185 381.87251159 222.84668263 377.80497156 222.87958241 373.73676109 C222.87203686 371.92091263 222.87203686 371.92091263 222.86433887 370.06838036 C222.87825169 368.96062752 222.8921645 367.85287468 222.90649891 366.71155357 C222.91202967 365.26802576 222.91202967 365.26802576 222.91767216 363.79533577 C223.57760809 360.49692522 224.80016044 359.30146612 227.42548084 357.25726891 C230.68890858 356.74933434 230.68890858 356.74933434 234.60907459 356.73969078 C235.32499775 356.7326815 236.04092091 356.72567223 236.7785387 356.71845055 C239.14041628 356.70087343 241.50109151 356.71249115 243.86298084 356.72601891 C245.50678201 356.72332388 247.15058162 356.71944137 248.79437733 356.71442223 C252.23764712 356.7085276 255.68050155 356.71708862 259.12372303 356.73578453 C263.53581777 356.75857449 267.94693926 356.74545115 272.3589983 356.72149467 C275.75282585 356.70703548 279.14642293 356.71164315 282.54025745 356.72200584 C284.16694727 356.72467281 285.79365805 356.72140438 287.42032337 356.71208763 C289.69474112 356.70191948 291.96758639 356.71742414 294.24188709 356.73969078 C295.53554188 356.74287315 296.82919666 356.74605553 298.16205311 356.74933434 C302.07603642 357.3585243 303.00220518 358.19695461 305.42548084 361.25726891 C305.93328953 363.79533577 305.93328953 363.79533577 305.94446278 366.71155357 C305.95837559 367.81930641 305.9722884 368.92705925 305.98662281 370.06838036 C305.98159245 371.278946 305.97656208 372.48951164 305.97137928 373.73676109 C305.98171696 375.01506294 305.99205463 376.29336479 306.00270557 377.61040306 C306.0305756 381.11220672 306.03397007 384.6136573 306.03298569 388.11555576 C306.03611398 391.77650112 306.06173036 395.43728725 306.08496571 399.09815025 C306.12553586 406.02891972 306.14586874 412.95959509 306.1589396 419.89046502 C306.17480626 427.78166499 306.21322041 435.67270472 306.25353289 443.56381178 C306.33594579 459.79494104 306.38705258 476.02596686 306.42548084 492.25726891 C315.66548084 492.25726891 324.90548084 492.25726891 334.42548084 492.25726891 C334.42958973 488.89064049 334.43369862 485.52401207 334.43793201 482.05536461 C334.45511973 470.93924235 334.49960516 459.82335052 334.55757141 448.7073698 C334.5922121 441.96688602 334.61757568 435.22660653 334.62103748 428.48602867 C334.62440367 421.9825083 334.65370509 415.4794059 334.69891262 408.97603989 C334.71191476 406.49334453 334.71618576 404.01058778 334.71163464 401.52786255 C334.70674831 398.05339073 334.73273675 394.58043188 334.76605701 391.10614586 C334.75311855 389.56218636 334.75311855 389.56218636 334.73991871 387.98703575 C334.81670539 383.219053 334.85796457 380.99516965 337.83778858 377.120718 C340.33188909 375.3246662 341.40996663 374.57147225 344.42548084 374.63226891 C345.06485584 374.61937828 345.70423084 374.60648766 346.36298084 374.59320641 C349.83342959 375.71058574 351.20255484 377.36695751 353.42548084 380.25726891 C354.17891827 383.86752987 354.11572175 387.42871308 354.08490467 391.10614586 C354.09538837 392.19927589 354.10587208 393.29240593 354.11667347 394.41866112 C354.14544965 398.02791195 354.13912844 401.63620503 354.13251209 405.24555016 C354.14562546 407.74948391 354.16092856 410.25340708 354.17833424 412.75731468 C354.21416114 418.67165683 354.22792113 424.58578891 354.23095864 430.50021476 C354.23611207 437.89656686 354.27558371 445.29266925 354.31415272 452.68890953 C354.37878446 465.87839333 354.40938322 479.06763646 354.42548084 492.25726891 C368.94548084 492.25726891 383.46548084 492.25726891 398.42548084 492.25726891 C398.42548084 421.30726891 398.42548084 350.35726891 398.42548084 277.25726891 C383.90548084 277.25726891 369.38548084 277.25726891 354.42548084 277.25726891 C354.39969959 280.45930016 354.37391834 283.66133141 354.34735584 286.96039391 C354.30894341 290.06155758 354.26378051 293.16255453 354.21796131 296.26361656 C354.18973585 298.41880904 354.16852919 300.57410534 354.15448475 302.72943687 C354.13307738 305.82779721 354.08643765 308.92490718 354.03485584 312.02289391 C354.0336272 312.98656883 354.03239857 313.95024376 354.0311327 314.94312096 C353.88489796 321.62226927 353.88489796 321.62226927 351.53973866 324.86371422 C348.98411124 326.5481855 347.47238684 326.7944263 344.42548084 326.75726891 C343.57985584 326.76758141 342.73423084 326.77789391 341.86298084 326.78851891 C338.59089592 326.07537219 337.51526518 324.84948051 335.42548084 322.25726891 C334.90408802 319.53206444 334.90408802 319.53206444 334.87616444 316.37470055 C334.85710041 315.18989601 334.83803638 314.00509148 334.81839466 312.78438377 C334.82112888 310.87023926 334.82112888 310.87023926 334.82391834 308.91742516 C334.81534809 307.60318062 334.80677784 306.28893608 334.79794788 304.93486595 C334.78304075 302.15488094 334.78359233 299.37540396 334.79413319 296.59540367 C334.80572195 293.03938059 334.77186404 289.48544135 334.72544384 285.92976284 C334.68882583 282.5297305 334.69634075 279.13015353 334.69891834 275.72992516 C334.68049885 274.45585304 334.66207935 273.18178093 334.64310169 271.86910057 C334.65555927 270.68114388 334.66801685 269.49318718 334.68085194 268.2692318 C334.67959309 267.22650612 334.67833424 266.18378044 334.67703724 265.10945702 C335.54717635 261.79350855 336.93555833 260.23379447 339.68398952 258.20208836 C342.59059798 256.62515244 345.16625903 256.62103089 348.43719959 256.61029625 C349.11118793 256.60153465 349.78517628 256.59277306 350.47958851 256.58374596 C352.69138839 256.56186939 354.90116327 256.57625953 357.11298084 256.59320641 C358.65945281 256.58983481 360.2059222 256.58497933 361.75238514 256.57871056 C364.98709919 256.57135525 368.22112097 256.58200026 371.45575428 256.60541344 C375.59205193 256.63390174 379.72672739 256.61749036 383.86296558 256.58755112 C387.05446965 256.56944099 390.24559217 256.57525288 393.43710804 256.58819008 C394.9616665 256.5915139 396.48626014 256.58747311 398.01077747 256.57579231 C400.14603226 256.56302051 402.27869905 256.58254123 404.41376209 256.61029625 C405.62588367 256.61427422 406.83800526 256.61825218 408.0868578 256.62235069 C411.36855879 257.24644383 413.81492549 257.91056932 416.2848444 260.24393272 C419.10246579 265.21731327 418.24716367 271.75071122 418.19843006 277.32880211 C418.2066028 278.88618564 418.21740634 280.44355726 418.23064137 282.00090599 C418.25908079 286.2238625 418.25072473 290.44603932 418.23577356 294.6690352 C418.22639617 299.08404261 418.25084173 303.49885939 418.27170277 307.91380882 C418.30605465 316.27188295 418.30997874 324.62968351 418.30297768 332.98781413 C418.29648747 342.50415624 418.32390787 352.02030605 418.3541801 361.53659117 C418.41568567 381.1101717 418.43459527 400.68360225 418.42548084 420.25726891 C420.82681012 420.30979092 423.22697767 420.34811229 425.62860584 420.37836266 C426.30423573 420.39459679 426.97986561 420.41083092 427.67596912 420.42755699 C432.52021867 420.47328529 436.03797185 420.08203341 439.82612103 416.9589023 C445.63257999 410.78114018 444.84378587 401.12494696 444.78624439 393.25432396 C444.79009647 391.32408379 444.79009647 391.32408379 444.79402637 389.35484886 C444.80072283 385.79646418 444.78875989 382.23835275 444.77369903 378.68000273 C444.76055795 374.77881644 444.76498557 370.87764186 444.76715279 366.97643948 C444.76874499 359.41050463 444.75492013 351.84467698 444.7356488 344.27876965 C444.71401745 335.52358607 444.71166284 326.76846653 444.70929432 318.01325035 C444.69355432 294.90707293 444.65167085 271.8009193 444.61298084 248.69476891 C444.55110584 197.07039391 444.48923084 145.44601891 444.42548084 92.25726891 C288.66548084 92.25726891 132.90548084 92.25726891 -27.57451916 92.25726891 Z M130.42548084 292.25726891 C130.42548084 358.25726891 130.42548084 424.25726891 130.42548084 492.25726891 C144.94548084 492.25726891 159.46548084 492.25726891 174.42548084 492.25726891 C174.42548084 426.25726891 174.42548084 360.25726891 174.42548084 292.25726891 C159.90548084 292.25726891 145.38548084 292.25726891 130.42548084 292.25726891 Z M242.42548084 376.25726891 C242.42548084 414.53726891 242.42548084 452.81726891 242.42548084 492.25726891 C256.94548084 492.25726891 271.46548084 492.25726891 286.42548084 492.25726891 C286.42548084 453.97726891 286.42548084 415.69726891 286.42548084 376.25726891 C271.90548084 376.25726891 257.38548084 376.25726891 242.42548084 376.25726891 Z M18.42548084 402.25726891 C18.42548084 431.95726891 18.42548084 461.65726891 18.42548084 492.25726891 C32.94548084 492.25726891 47.46548084 492.25726891 62.42548084 492.25726891 C62.42548084 462.55726891 62.42548084 432.85726891 62.42548084 402.25726891 C47.90548084 402.25726891 33.38548084 402.25726891 18.42548084 402.25726891 Z " fill="#FFC006" transform="translate(47.57451915740967,-0.25726890563964844)"/>
<path d="M0 0 C8.87152715 6.29543078 15.14954837 14.44398918 17.75 25.0625 C18.28721401 31.3747646 18.04815558 36.69376963 16.53515625 42.82421875 C16.27025391 43.90123047 16.27025391 43.90123047 16 45 C15.70207047 45.73066177 15.40414093 46.46132355 15.09718323 47.21412659 C14.69824413 50.28602427 14.69824413 50.28602427 17.36949158 53.15830994 C18.53393032 54.37073648 19.71558285 55.56676249 20.90991211 56.74975586 C21.8706514 57.73590378 21.8706514 57.73590378 22.85079956 58.74197388 C24.97745747 60.91551689 27.12589738 63.06585271 29.27734375 65.21484375 C30.76236035 66.71405544 32.24677335 68.21386523 33.73060608 69.71424866 C36.84693656 72.85750238 39.97493168 75.98858687 43.1105957 79.11254883 C47.12981063 83.11997124 51.11134092 87.16265887 55.08399105 91.21617794 C58.14054343 94.32440276 61.21971726 97.40942054 64.30584908 100.48825264 C65.78377226 101.9695664 67.25372182 103.45887969 68.71546745 104.95615959 C70.76250075 107.0474159 72.83875688 109.104515 74.92553711 111.15600586 C75.82449959 112.09475807 75.82449959 112.09475807 76.74162292 113.05247498 C78.4530913 114.697356 79.86391152 115.96182038 82 117 C84.26293502 116.91336587 85.99653788 116.45825179 88.11495304 115.67232609 C91.31292936 114.53172696 94.51027999 114.69749422 97.875 114.6875 C99.17179687 114.67074219 100.46859375 114.65398437 101.8046875 114.63671875 C106 115 106 115 116 118 C137.12 96.88 158.24 75.76 180 54 C178.25985918 48.35747126 178.25985918 48.35747126 176.375 44.625 C173.65837215 37.44534068 173.66634201 26.83602989 176.125 19.5625 C176.9609375 17.79296875 176.9609375 17.79296875 178 16 C178.42539062 15.25363281 178.85078125 14.50726563 179.2890625 13.73828125 C184.51067624 5.29155314 191.29213682 -0.41358369 200.7578125 -3.58984375 C210.67209456 -5.40343193 221.71464543 -4.98634904 230.328125 0.4765625 C238.17219849 6.16481447 245.13457352 14.2271462 247 24 C247.96366787 41.1236368 247.96366787 41.1236368 244 48 C243.5978125 48.73476562 243.195625 49.46953125 242.78125 50.2265625 C237.90744992 58.32248597 230.83704235 64.08664771 221.94921875 67.3515625 C215.32433817 68.80815876 206.70688866 69.1684972 200.18783569 67.11354065 C196.64208582 66.98725223 196.3041755 67.18188686 193.77285767 69.38536072 C192.58400738 70.55391247 191.41436216 71.74219167 190.26025391 72.94506836 C189.61564209 73.58865799 188.97103027 74.23224762 188.30688477 74.89533997 C186.17976666 77.02733598 184.07851128 79.18305278 181.9765625 81.33984375 C180.50693283 82.82252862 179.03575024 84.30367574 177.56307983 85.78334045 C173.69069091 89.68245982 169.83977945 93.60214123 165.99291992 97.52642822 C162.06398951 101.52695761 158.11517458 105.50775035 154.16796875 109.49023438 C146.42568519 117.30759787 138.70594035 125.14682058 131 133 C131.21194 133.60001831 131.42388 134.20003662 131.64224243 134.8182373 C131.91708466 135.61491821 132.19192688 136.41159912 132.47509766 137.23242188 C132.74891266 138.01806519 133.02272766 138.8037085 133.30484009 139.61315918 C134.36645013 143.25821141 134.4509974 146.7270546 134.375 150.5 C134.3586853 151.61181641 134.3586853 151.61181641 134.34204102 152.74609375 C134.04809091 162.84466647 130.98536855 169.61109422 124 177 C113.47659704 186.32479143 103.57634507 187.75574088 90 187 C84.6582503 185.91570454 80.3648188 183.20086712 76 180 C75.175 179.443125 74.35 178.88625 73.5 178.3125 C66.87678422 172.18602541 62.45709916 164.30460752 61.68359375 155.328125 C61.34423489 146.22487757 62.68923947 141.10459145 66 132 C43.89 109.89 21.78 87.78 -1 65 C-3.97 65.99 -6.94 66.98 -10 68 C-12.94950098 68.24823854 -15.63277885 68.3800051 -18.5625 68.3125 C-19.61727539 68.31733398 -19.61727539 68.31733398 -20.69335938 68.32226562 C-24.47805158 68.28396607 -27.10393439 67.96337874 -30.7605896 66.67495728 C-32.88665229 66.0767572 -32.88665229 66.0767572 -35 66 C-37.62080057 67.5809821 -39.10825091 68.77036302 -41.15649414 70.92602539 C-41.71522217 71.4736554 -42.2739502 72.0212854 -42.84960938 72.58551025 C-44.68690685 74.39921553 -46.48566324 76.24649544 -48.28515625 78.09765625 C-49.55231919 79.36824125 -50.82126223 80.63705322 -52.09190369 81.90415955 C-54.74774552 84.56330751 -57.38570194 87.23865323 -60.01147461 89.92749023 C-63.38074647 93.37620204 -66.78431407 96.78841186 -70.20099735 100.19008732 C-72.82321529 102.80617188 -75.43001199 105.43717999 -78.03201103 108.07336235 C-79.28208412 109.33751177 -80.5361082 110.5977666 -81.79408455 111.85405159 C-83.54749953 113.61105557 -85.28003233 115.38627797 -87.00805664 117.16821289 C-87.53207565 117.6863707 -88.05609467 118.2045285 -88.59599304 118.73838806 C-90.20440815 120.35588583 -90.20440815 120.35588583 -92 123 C-91.98585296 125.71306029 -91.98585296 125.71306029 -91 128 C-88.17941579 137.89136379 -87.89102204 149.73791737 -93 159 C-99.95949564 168.05540553 -107.47754457 174.37770602 -118.4375 177.75 C-129.65814817 178.84469738 -139.15777437 177.24617874 -148.375 170.3125 C-152.89361148 166.40313951 -156.17012841 162.24880474 -159 157 C-159.50853516 156.09894531 -159.50853516 156.09894531 -160.02734375 155.1796875 C-163.51843805 147.74703513 -163.15741273 138.4187446 -161.12109375 130.64453125 C-157.21000668 120.4602154 -150.46108269 112.43141788 -140.5 107.8125 C-132.24282779 104.16364397 -122.53605623 103.46747299 -114 106.5625 C-112.9790625 106.99755859 -112.9790625 106.99755859 -111.9375 107.44140625 C-109.40910151 108.17035985 -108.47353516 107.94943791 -106 107 C-104.05228358 105.35052459 -102.27454417 103.70494617 -100.48120117 101.90112305 C-99.673246 101.10587219 -99.673246 101.10587219 -98.84896851 100.29455566 C-97.07241003 98.54138066 -95.30725666 96.77723588 -93.54296875 95.01171875 C-92.31347134 93.78932025 -91.08367492 92.56722243 -89.85359192 91.34541321 C-87.27876547 88.78403337 -84.70995657 86.21678973 -82.14477539 83.64575195 C-78.85149347 80.34656298 -75.54030271 77.0660165 -72.22394848 73.79004192 C-69.68035618 71.27225005 -67.14827287 68.74312788 -64.61937904 66.21058083 C-63.4028469 64.99574599 -62.18230916 63.78490903 -60.95778465 62.57813072 C-59.25033719 60.89272896 -57.55941095 59.19231822 -55.87182617 57.48706055 C-55.36022446 56.98872208 -54.84862274 56.49038361 -54.32151794 55.97694397 C-52.76557884 54.44152947 -52.76557884 54.44152947 -51 52 C-51.01186595 49.79345062 -51.01186595 49.79345062 -52 48 C-56.02364426 36.67959154 -56.6406598 26.38710672 -51.796875 15.1484375 C-46.90771609 6.5817808 -39.62464609 0.0586403 -30.3046875 -3.2578125 C-20.12261275 -5.54456688 -9.26130246 -5.14349208 0 0 Z M-31.8125 23.0625 C-34.32761366 27.1661065 -34.48853585 31.31893831 -34 36 C-32.04614079 41.34740414 -29.08763713 44.45618143 -24 47 C-18.39219642 47.62536749 -13.26299699 47.61926337 -8.4765625 44.38671875 C-5.01846576 41.1390353 -3.1647217 37.43376312 -2.84375 32.69140625 C-3.26163138 26.49631477 -5.42941742 22.33689325 -10.0625 18.125 C-18.38346843 14.93824613 -25.89712177 16.33120754 -31.8125 23.0625 Z M197.625 23.625 C195.42092107 28.20270239 195.2028361 32.00552411 196 37 C198.32968931 41.83858548 201.16141452 44.67031069 206 47 C210.99447589 47.7971639 214.79729761 47.57907893 219.375 45.375 C222.95907713 42.13226355 225.59535241 39.53524104 226.3828125 34.6015625 C226.63883919 28.91777006 225.93626932 25.35061345 222 21 C217.64938655 17.06373068 214.08222994 16.36116081 208.3984375 16.6171875 C203.46475896 17.40464759 200.86773645 20.04092287 197.625 23.625 Z M-140 133.75 C-141.70260986 139.28348206 -142.07080792 144.48807116 -139.5 149.8125 C-136.90633249 153.75340823 -133.42491824 155.59169269 -129 157 C-123.95307664 157.72098905 -120.20228473 156.81322151 -115.80078125 154.39453125 C-111.5456127 151.09931396 -110.23683856 146.65786994 -109.5 141.5 C-110.23599002 136.34806985 -111.55210417 131.93340445 -115.765625 128.60546875 C-124.86065795 123.53874764 -133.7862169 125.20604824 -140 133.75 Z M84.625 142.625 C82.42092107 147.20270239 82.2028361 151.00552411 83 156 C85.32968931 160.83858548 88.16141452 163.67031069 93 166 C97.92805042 166.79826271 102.43201943 166.6468313 106.9375 164.375 C111.01053671 161.21631847 112.63177343 158.78471341 113.3125 153.63671875 C113.60745546 147.56247973 112.73934945 143.82179272 109 139 C100.5108391 132.73419077 91.23811017 135.31577297 84.625 142.625 Z " fill="#FFC006" transform="translate(213,140)"/>
<path d="M0 0 C0.95781583 -0.00508782 1.91563165 -0.01017564 2.9024722 -0.01541764 C6.13217947 -0.03119273 9.36186429 -0.03968044 12.59159851 -0.04811096 C14.89902389 -0.0576452 17.20644781 -0.06753617 19.51387024 -0.07775879 C27.10836582 -0.10918867 34.70287253 -0.12941318 42.29740906 -0.14796448 C44.2332554 -0.15291046 44.2332554 -0.15291046 46.20820975 -0.15795636 C58.37126884 -0.18873503 70.53432866 -0.21561403 82.69741535 -0.23237514 C85.5151705 -0.23632474 88.33292557 -0.24032772 91.15068054 -0.24440002 C92.20120842 -0.24591257 92.20120842 -0.24591257 93.27295908 -0.24745566 C104.62154939 -0.26446735 115.96992182 -0.30558171 127.31840573 -0.35642301 C138.96553452 -0.40817375 150.61253943 -0.4368313 162.25978154 -0.44457203 C168.80104226 -0.44953797 175.34191574 -0.46470917 181.88306618 -0.50431633 C188.03499675 -0.54107561 194.18631719 -0.54962724 200.33833694 -0.5363102 C202.59868112 -0.53636432 204.8590516 -0.54673142 207.11929512 -0.56806183 C210.2010425 -0.59559482 213.2805417 -0.58630048 216.36230469 -0.56762695 C217.26074909 -0.58442188 218.15919349 -0.60121681 219.08486348 -0.61852068 C224.99134883 -0.52882971 224.99134883 -0.52882971 227.54382741 1.47034252 C229.85885377 4.1582219 231.57177193 6.55371132 231.49662781 10.16062927 C231.50951843 10.77937927 231.52240906 11.39812927 231.53569031 12.03562927 C230.46633402 15.45756938 228.66138748 17.97193966 225.87162781 20.16062927 C222.71151901 21.04046048 219.64634501 20.96277353 216.38249207 20.90907288 C215.42211297 20.91702169 214.46173387 20.9249705 213.47225237 20.93316019 C210.25126109 20.95242354 207.03202314 20.9287636 203.81108093 20.90525818 C201.50320784 20.91011362 199.19533895 20.91755188 196.88748169 20.92738342 C190.61675678 20.9462146 184.34665549 20.92734006 178.07597923 20.90071917 C171.51864385 20.87810857 164.96133959 20.88630375 158.40397644 20.89021301 C147.39130299 20.89306465 136.3788626 20.86994608 125.36625671 20.83299255 C114.0364285 20.79498457 102.70688631 20.78081751 91.3769989 20.79197693 C77.72262858 20.80538609 64.06844954 20.79879904 50.41409302 20.77376938 C45.19886934 20.76447219 39.98372337 20.76273194 34.76849365 20.76694107 C28.62885808 20.77070421 22.48959025 20.75451989 16.35003853 20.72282028 C14.09456974 20.71432425 11.83906367 20.71264044 9.58358574 20.71820068 C6.50890608 20.72463131 3.43532973 20.70651638 0.36076355 20.68202209 C-0.53563449 20.68958074 -1.43203254 20.69713939 -2.35559416 20.70492709 C-6.47907208 20.64665985 -8.59332801 20.4974118 -12.15894318 18.25304222 C-15.22044393 15.00036149 -15.46196445 12.66827708 -15.42134094 8.19969177 C-14.96582253 5.0292836 -13.37521562 3.34138907 -11.12837219 1.16062927 C-7.70292057 -0.55209654 -3.77011208 0.00491447 0 0 Z " fill="#FFC006" transform="translate(227.1283721923828,35.83937072753906)"/>
<path d="M0 0 C1.65730888 -0.01925285 1.65730888 -0.01925285 3.34809875 -0.03889465 C5.14648445 -0.04997505 5.14648445 -0.04997505 6.98120117 -0.0612793 C8.20949142 -0.06935104 9.43778168 -0.07742279 10.70329285 -0.08573914 C13.30673812 -0.09958939 15.91020162 -0.11030731 18.51367188 -0.11816406 C22.49726713 -0.13139295 26.48025272 -0.17926321 30.46362305 -0.22338867 C32.99030964 -0.23351477 35.5170033 -0.24203113 38.04370117 -0.2487793 C39.83297783 -0.27504143 39.83297783 -0.27504143 41.65840149 -0.30183411 C49.9354298 -0.28010354 49.9354298 -0.28010354 53.94091797 2.07861328 C56.70304222 5.35180478 57.1103475 7.76050373 57.06323242 12.0715332 C56.42827249 15.87423766 54.50099236 17.57786059 51.71166992 20.17700195 C48.71751496 21.2241868 45.90199879 21.30835123 42.74707031 21.32226562 C41.7624733 21.32864548 40.77787628 21.33502533 39.76344299 21.34159851 C38.70608444 21.34271133 37.64872589 21.34382416 36.55932617 21.3449707 C35.46704208 21.3482991 34.374758 21.3516275 33.24937439 21.35505676 C30.94034242 21.3601172 28.63130314 21.36246536 26.32226562 21.36230469 C22.79113725 21.36449145 19.26032117 21.3826575 15.72924805 21.40161133 C13.48510849 21.40454537 11.24096745 21.40653009 8.99682617 21.4074707 C7.94149185 21.41465622 6.88615753 21.42184174 5.79884338 21.429245 C4.81109421 21.42616837 3.82334503 21.42309174 2.80566406 21.41992188 C1.94058731 21.42134689 1.07551056 21.42277191 0.18421936 21.42424011 C-3.89846016 21.01599988 -6.58887195 19.81974726 -9.60083008 17.05200195 C-11.79619266 13.31175458 -12.16240944 10.41885767 -11.28833008 6.17700195 C-8.0104191 1.04160808 -5.90162601 0.05956745 0 0 Z " fill="#FFC106" transform="translate(57.288330078125,173.822998046875)"/>
<path d="M0 0 C1.65730888 -0.01925285 1.65730888 -0.01925285 3.34809875 -0.03889465 C5.14648445 -0.04997505 5.14648445 -0.04997505 6.98120117 -0.0612793 C8.20949142 -0.06935104 9.43778168 -0.07742279 10.70329285 -0.08573914 C13.30673812 -0.09958939 15.91020162 -0.11030731 18.51367188 -0.11816406 C22.49726713 -0.13139295 26.48025272 -0.17926321 30.46362305 -0.22338867 C32.99030964 -0.23351477 35.5170033 -0.24203113 38.04370117 -0.2487793 C39.83297783 -0.27504143 39.83297783 -0.27504143 41.65840149 -0.30183411 C49.9354298 -0.28010354 49.9354298 -0.28010354 53.94091797 2.07861328 C56.70304222 5.35180478 57.1103475 7.76050373 57.06323242 12.0715332 C56.42827249 15.87423766 54.50099236 17.57786059 51.71166992 20.17700195 C48.71751496 21.2241868 45.90199879 21.30835123 42.74707031 21.32226562 C41.7624733 21.32864548 40.77787628 21.33502533 39.76344299 21.34159851 C38.70608444 21.34271133 37.64872589 21.34382416 36.55932617 21.3449707 C35.46704208 21.3482991 34.374758 21.3516275 33.24937439 21.35505676 C30.94034242 21.3601172 28.63130314 21.36246536 26.32226562 21.36230469 C22.79113725 21.36449145 19.26032117 21.3826575 15.72924805 21.40161133 C13.48510849 21.40454537 11.24096745 21.40653009 8.99682617 21.4074707 C7.94149185 21.41465622 6.88615753 21.42184174 5.79884338 21.429245 C4.81109421 21.42616837 3.82334503 21.42309174 2.80566406 21.41992188 C1.94058731 21.42134689 1.07551056 21.42277191 0.18421936 21.42424011 C-3.89846016 21.01599988 -6.58887195 19.81974726 -9.60083008 17.05200195 C-11.79619266 13.31175458 -12.16240944 10.41885767 -11.28833008 6.17700195 C-8.0104191 1.04160808 -5.90162601 0.05956745 0 0 Z " fill="#FFC106" transform="translate(57.288330078125,125.822998046875)"/>
<path d="M0 0 C3.69182432 0.04702961 4.59956988 0.26844533 7.75 2.5 C9.97054675 5.69203595 10.66932039 7.50237883 10.75 11.375 C9.70940734 15.34817198 8.14311757 18.0259186 4.75 20.375 C1.62644771 21.00672968 -1.13072876 21.0422238 -4.25 20.375 C-7.25 17.9375 -7.25 17.9375 -9.25 15.375 C-9.58 15.045 -9.91 14.715 -10.25 14.375 C-10.54322866 11.44271337 -10.75004247 9.23008117 -10.25 6.375 C-7.8125 3.4375 -7.8125 3.4375 -5.25 1.375 C-3.69049449 -0.18450551 -2.16122869 0.09303302 0 0 Z " fill="#FFC107" transform="translate(141.25,125.625)"/>
<path d="M0 0 C2.37445147 3.70414429 2.46810694 7.16821015 1.5625 11.4375 C-0.61909145 14.19319447 -2.30927494 15.87338747 -5.4375 17.4375 C-10.09158901 17.8511968 -12.68989476 17.24820393 -16.4375 14.4375 C-19.11183178 10.42600232 -19.25652411 7.15309339 -18.4375 2.4375 C-16.33092904 -0.37126128 -14.68610052 -1.93819974 -11.5625 -3.5 C-7.21786277 -3.62778345 -3.62326058 -2.32260294 0 0 Z " fill="#FFC006" transform="translate(400.4375,345.5625)"/>
<path d="M0 0 C2.8100346 1.79363911 4.50940468 3.01880935 6 6 C6.5811138 13.08958838 6.5811138 13.08958838 4.125 16.9375 C0.8698054 20.09695358 -1.42413238 20.33421243 -5.9609375 20.29296875 C-9.13134567 19.83745033 -10.8192402 18.24684343 -13 16 C-14.60086627 12.79826746 -14.49917089 9.47422941 -14 6 C-10.32759145 0.24655994 -6.71744997 -0.96515086 0 0 Z " fill="#FFC006" transform="translate(148,36)"/>
<path d="M0 0 C2.8100346 1.79363911 4.50940468 3.01880935 6 6 C6.5811138 13.08958838 6.5811138 13.08958838 4.125 16.9375 C0.8698054 20.09695358 -1.42413238 20.33421243 -5.9609375 20.29296875 C-9.13134567 19.83745033 -10.8192402 18.24684343 -13 16 C-14.60086627 12.79826746 -14.49917089 9.47422941 -14 6 C-10.32759145 0.24655994 -6.71744997 -0.96515086 0 0 Z " fill="#FFC006" transform="translate(108,36)"/>
<path d="M0 0 C2.8100346 1.79363911 4.50940468 3.01880935 6 6 C6.5811138 13.08958838 6.5811138 13.08958838 4.125 16.9375 C0.8698054 20.09695358 -1.42413238 20.33421243 -5.9609375 20.29296875 C-9.13134567 19.83745033 -10.8192402 18.24684343 -13 16 C-14.60086627 12.79826746 -14.49917089 9.47422941 -14 6 C-10.32759145 0.24655994 -6.71744997 -0.96515086 0 0 Z " fill="#FFC006" transform="translate(68,36)"/>
</svg>
