<?xml version="1.0" encoding="UTF-8"?>
<svg version="1.1" xmlns="http://www.w3.org/2000/svg" width="512" height="512">
<path d="M0 0 C0.93972656 0.40089844 1.87945312 0.80179688 2.84765625 1.21484375 C16.80089462 7.98540245 25.10230909 19.84782543 31.15625 33.6328125 C36.00054736 47.94143156 33.85705756 64.75766377 27.52734375 78.10546875 C19.90622838 92.32074068 8.56093983 100.98088222 -6.45703125 106.23828125 C-8.95813645 106.98746023 -11.43838913 107.50498853 -14 108 C-14.23383125 128.18417143 -14.41005482 148.36806721 -14.51812172 168.55331326 C-14.56963814 177.92622145 -14.63984301 187.29828704 -14.75439453 196.6706543 C-14.85421656 204.84179621 -14.91861683 213.01232782 -14.94088495 221.18406254 C-14.95389824 225.50943234 -14.98437044 229.83305656 -15.05730057 234.15786552 C-15.12547151 238.23369166 -15.14606064 242.30706357 -15.13107681 246.38340569 C-15.13381531 247.87460196 -15.15354295 249.36588505 -15.19205475 250.85658646 C-15.45034629 259.36461202 -15.45034629 259.36461202 -11.80399704 266.84126472 C-9.30379116 269.10507071 -6.75500791 271.06074456 -4 273 C17.61115677 292.99751167 31.5350516 323.27717839 33.20532227 352.60522461 C33.3032707 356.48934338 33.32916185 360.36469567 33.3125 364.25 C33.31034485 364.93420013 33.3081897 365.61840027 33.30596924 366.32333374 C33.25438836 376.53053293 32.82267501 386.12600378 30 396 C29.81195801 396.68707031 29.62391602 397.37414062 29.43017578 398.08203125 C23.2869943 420.09387645 11.70821148 438.53001907 -4 455 C-4.76932861 455.81307617 -4.76932861 455.81307617 -5.55419922 456.64257812 C-9.68003585 460.90255985 -14.01327069 464.48702339 -18.875 467.875 C-19.61113525 468.38820801 -20.34727051 468.90141602 -21.10571289 469.43017578 C-34.16866235 478.35913986 -47.72154831 484.85012629 -63 489 C-64.25039063 489.3403125 -65.50078125 489.680625 -66.7890625 490.03125 C-93.07082698 495.81216765 -122.55391179 493.12344822 -147 482 C-148.12277344 481.49855469 -149.24554688 480.99710937 -150.40234375 480.48046875 C-180.35139826 466.34980988 -204.3113434 439.92481319 -216 409 C-217.30142472 405.09506049 -218.43848383 401.16393171 -219.5 397.1875 C-219.86496582 395.82915039 -219.86496582 395.82915039 -220.23730469 394.44335938 C-222.127525 386.77761918 -222.41809794 380.14662887 -223 372 C-302.2 372 -381.4 372 -463 372 C-463 266.4 -463 160.8 -463 52 C-336.28 52 -209.56 52 -79 52 C-79 48.37 -79 44.74 -79 41 C-77.37629258 31.88303411 -73.37948083 24.43525497 -68 17 C-67.2575 15.948125 -66.515 14.89625 -65.75 13.8125 C-48.69858519 -3.62644697 -22.62560196 -9.793171 0 0 Z M-51.375 23.625 C-59.2756618 32.28280856 -63.36205209 43.31074991 -62.875 55 C-61.49326449 66.05388406 -56.66132868 75.53858122 -48.4765625 83.09375 C-40.30964338 89.37995904 -30.20178054 92.36603713 -19.92578125 91.84375 C-8.67011574 90.34491618 0.35985811 85.38516529 8 77 C15.4419516 66.83305114 17.22086123 56.39907914 16 44 C13.95179008 34.05330393 7.93118814 25.67513238 0.0703125 19.34765625 C-16.50972348 8.55499132 -36.68863285 10.19746432 -51.375 23.625 Z M-447 68 C-447 163.04 -447 258.08 -447 356 C-373.08 356 -299.16 356 -223 356 C-222.01 348.08 -222.01 348.08 -221 340 C-226.94 340 -232.88 340 -239 340 C-239 308.32 -239 276.64 -239 244 C-223.16 244 -207.32 244 -191 244 C-191 255.22 -191 266.44 -191 278 C-187.04270131 274.6080297 -183.25441109 271.31396995 -179.5 267.75 C-156.4393261 247.08208775 -126.75604095 236.58305128 -96 236.625 C-94.98386627 236.62581573 -94.98386627 236.62581573 -93.94720459 236.62664795 C-73.16443982 236.70300352 -53.14085514 241.10498811 -34.78515625 251.1171875 C-33.03312619 252.14776214 -33.03312619 252.14776214 -31 252 C-31 204.48 -31 156.96 -31 108 C-36.61 106.02 -42.22 104.04 -48 102 C-50.31 100.68 -52.62 99.36 -55 98 C-58.55986151 98.8200379 -60.95784728 101.61081495 -63.58496094 104.07226562 C-64.93590851 105.33629211 -64.93590851 105.33629211 -66.31414795 106.62585449 C-69.87484796 110.00552813 -73.41239977 113.40930623 -76.93033981 116.83345795 C-79.59346691 119.42529029 -82.27086047 121.99667133 -84.99365234 124.52587891 C-98.10381014 135.57966486 -98.10381014 135.57966486 -105.24804688 150.203125 C-105.33764268 153.28937347 -104.9799105 156.08578222 -104.39160156 159.10742188 C-103.88865373 164.10679858 -105.30466141 166.88396002 -108 171 C-112.35237229 176.29342576 -116.56352958 178.66453503 -123.28125 179.3203125 C-130.30751147 179.54551319 -136.34033646 179.50140682 -142 175 C-145.72700756 171.4735489 -148.58000242 167.99423539 -150 163 C-149.97518244 160.89077742 -149.79641535 158.81872717 -149.61645508 156.71728516 C-148.93820013 148.61102676 -148.93820013 148.61102676 -152.3359375 141.515625 C-154.99809082 138.7398733 -158.00215846 136.40347932 -161 134 C-162.85546875 131.7109375 -162.85546875 131.7109375 -164 130 C-164.70125 130.16242188 -165.4025 130.32484375 -166.125 130.4921875 C-169.14302565 131.02526268 -171.93713337 131.13281344 -175 131.125 C-176.010625 131.12757813 -177.02125 131.13015625 -178.0625 131.1328125 C-181 131 -181 131 -183.515625 130.125 C-186.27341131 129.69965747 -186.27341131 129.69965747 -188.671875 132.3046875 C-189.71247348 133.48208473 -190.73718232 134.67362172 -191.75 135.875 C-196.48867224 141.25951984 -201.3765239 146.42119851 -206.51171875 151.42578125 C-207.07982269 151.98177002 -207.64792664 152.53775879 -208.23324585 153.1105957 C-210.54410327 155.37072013 -212.85567885 157.62950735 -215.18859863 159.86688232 C-216.84387413 161.45625954 -218.483469 163.06043998 -220.12109375 164.66796875 C-220.6287175 165.14663895 -221.13634125 165.62530914 -221.65934753 166.1184845 C-223.21808842 167.60717246 -223.21808842 167.60717246 -225 170 C-224.9371381 172.15636168 -224.9371381 172.15636168 -224 174 C-223.38046325 181.6781932 -223.09553757 188.70450583 -228 195 C-232.44419141 199.7074729 -236.69574347 202.66049455 -243.26953125 203.3359375 C-251.54371997 203.4271634 -257.58428015 203.17810264 -263.7421875 197.3515625 C-269.67397269 190.85214236 -270.46296445 185.13938134 -270.30859375 176.44921875 C-269.72339005 169.9082711 -267.35547257 165.99937235 -262.5625 161.625 C-257.84529696 157.70676638 -253.57985007 156.73437109 -247.5 156.8125 C-246.3965625 156.81894531 -245.293125 156.82539063 -244.15625 156.83203125 C-241.32773917 156.98255844 -238.75307445 157.35795838 -236 158 C-235.67 157.01 -235.34 156.02 -235 155 C-234.01 154.67 -233.02 154.34 -232 154 C-232 153.34 -232 152.68 -232 152 C-231.4237085 151.7628125 -230.84741699 151.525625 -230.25366211 151.28125 C-227.5138977 149.72364155 -225.97569688 147.90509142 -223.94140625 145.5 C-220.65756445 141.74703794 -217.27227886 138.3550401 -213.52734375 135.0625 C-202.52320557 126.16763375 -202.52320557 126.16763375 -196.78125 113.91796875 C-196.72696237 110.84311764 -197.11011214 107.99947671 -197.65234375 104.98046875 C-198.09488756 99.91359077 -196.77496547 97.14732497 -194 93 C-192.25390625 90.9765625 -192.25390625 90.9765625 -190.5625 89.625 C-190.00691406 89.16351563 -189.45132812 88.70203125 -188.87890625 88.2265625 C-182.39762494 83.99553894 -175.49238331 84.32967352 -168 85 C-161.79405629 86.63211433 -157.46381883 90.69395906 -154 96 C-151.82963989 99.96357568 -151.9731577 103.02439424 -152.2824707 107.38378906 C-152.84401018 115.01492244 -152.84401018 115.01492244 -150.1796875 121.96875 C-147.89285368 124.17256345 -145.52942055 126.08390048 -143 128 C-141.22502525 129.93302044 -139.63370457 131.94469425 -138 134 C-137.29875 133.83757812 -136.5975 133.67515625 -135.875 133.5078125 C-132.85697435 132.97473732 -130.06286663 132.86718656 -127 132.875 C-125.989375 132.87242187 -124.97875 132.86984375 -123.9375 132.8671875 C-121 133 -121 133 -118.51953125 133.9140625 C-116.02642373 134.26385215 -116.02642373 134.26385215 -114.52099609 132.88232422 C-112.82194354 131.15160247 -111.25066948 129.35433456 -109.6875 127.5 C-108.53566898 126.19255995 -107.38074017 124.88784218 -106.22265625 123.5859375 C-105.66852051 122.95913086 -105.11438477 122.33232422 -104.54345703 121.68652344 C-102.18318753 119.1074754 -99.56880675 116.90648256 -96.88183594 114.68164062 C-95.03529322 113.03153862 -93.48693976 111.32353654 -91.89453125 109.4296875 C-87.52783543 104.3730862 -82.80794629 99.69853313 -78.0625 95 C-77.18787109 94.12988281 -76.31324219 93.25976562 -75.41210938 92.36328125 C-73.27702551 90.23986451 -71.13962795 88.11883622 -69 86 C-71.43851597 79.90371007 -74.24850373 73.96157525 -77 68 C-199.1 68 -321.2 68 -447 68 Z M-180.9375 102.25 C-182.2119389 104.34907584 -182.85845646 105.52298797 -183 108 C-181.44412487 111.77890761 -181.44412487 111.77890761 -179 115 C-173.60688489 115.63989326 -173.60688489 115.63989326 -169 113.4375 C-167.62979759 110.09763163 -167.6101087 107.57400356 -168 104 C-168.85219923 101.89757556 -168.85219923 101.89757556 -171 101 C-174.61369454 100.46547435 -177.80456373 100.2287508 -180.9375 102.25 Z M-133 150.625 C-134.28292178 153.67193922 -134.40995912 155.72032701 -134 159 C-133.16666667 161.5 -133.16666667 161.5 -131 163 C-128.22572253 163.56641498 -125.77427747 163.56641498 -123 163 C-120.29584199 160.80287161 -120.05507255 159.44058039 -119.625 156 C-120.05507255 152.55941961 -120.29584199 151.19712839 -123 149 C-126.82635163 148.21878654 -129.90705715 148.11198394 -133 150.625 Z M-253.6875 175.5625 C-255.41976713 179.03623419 -255.41976713 179.03623419 -253.8125 182.8125 C-252.31562661 185.77275889 -252.31562661 185.77275889 -251 187 C-245.58005182 187.65465319 -245.58005182 187.65465319 -241 185.375 C-239.71707822 182.32806078 -239.59004088 180.27967299 -240 177 C-240.83333333 174.5 -240.83333333 174.5 -243 173 C-248.14900798 172.18269715 -249.86699068 171.91968878 -253.6875 175.5625 Z M-176.1875 286.875 C-195.26555715 306.61360088 -207.11980074 334.77830936 -207.03515625 362.203125 C-206.67202559 379.99339689 -203.18485522 395.76222719 -196 412 C-186.62300743 407.50129292 -177.76176804 402.60345631 -169 397 C-169.47740513 394.28130342 -170.08126824 391.76141733 -170.97265625 389.14453125 C-177.61669643 368.83139048 -175.45130794 346.73278913 -166.25 327.6875 C-162.90183937 321.13981204 -158.97680218 315.43907432 -154 310 C-153.40960938 309.31808594 -152.81921875 308.63617188 -152.2109375 307.93359375 C-139.05534148 293.63038191 -121.32361805 288.30206685 -103 284 C-103 273.77 -103 263.54 -103 253 C-130.99132277 253 -156.46279496 268.06950452 -176.1875 286.875 Z M-87 253 C-87 263.23 -87 273.46 -87 284 C-83.98875 284.680625 -80.9775 285.36125 -77.875 286.0625 C-56.71469945 291.18705877 -38.75761583 303.06402438 -27.10644531 321.63525391 C-16.10817364 339.8728324 -12.46196998 362.21921807 -17.38842773 383.06494141 C-18.18806205 386.06508118 -19.09185114 389.03119206 -20 392 C-20.34580186 393.66412438 -20.68136017 395.33046188 -21 397 C-17.06516039 399.31704962 -13.12668993 401.62785531 -9.1875 403.9375 C-8.06794922 404.59685547 -6.94839844 405.25621094 -5.79492188 405.93554688 C-4.72177734 406.56396484 -3.64863281 407.19238281 -2.54296875 407.83984375 C-1.55321045 408.42113037 -0.56345215 409.00241699 0.45629883 409.60131836 C3.00284747 411.1009488 3.00284747 411.1009488 6 412 C18.8575514 382.94193383 20.03308266 351.3360555 8.5390625 321.4375 C3.71504822 310.66305187 -2.20244013 300.88921825 -10 292 C-10.62390625 291.24460937 -11.2478125 290.48921875 -11.890625 289.7109375 C-28.65465572 269.88031579 -55.07122842 255.79297057 -81 253 C-82.98 253 -84.96 253 -87 253 Z M-223 260 C-223 281.12 -223 302.24 -223 324 C-221.02 324 -219.04 324 -217 324 C-216.7326001 323.40461426 -216.4652002 322.80922852 -216.18969727 322.19580078 C-214.98106471 319.505339 -213.77179027 316.81516621 -212.5625 314.125 C-212.14162109 313.18785156 -211.72074219 312.25070312 -211.28710938 311.28515625 C-210.88427734 310.38925781 -210.48144531 309.49335938 -210.06640625 308.5703125 C-209.69459229 307.74289551 -209.32277832 306.91547852 -208.93969727 306.06298828 C-208.31759823 304.69724736 -207.67115654 303.34231307 -207 302 C-206.91097507 300.64154807 -206.88239868 299.27884026 -206.88647461 297.91748047 C-206.88658791 296.65639969 -206.88658791 296.65639969 -206.88670349 295.36984253 C-206.89186478 294.46146637 -206.89702606 293.55309021 -206.90234375 292.6171875 C-206.9037587 291.68778351 -206.90517365 290.75837952 -206.90663147 289.80081177 C-206.91223947 286.82550876 -206.92479332 283.85028036 -206.9375 280.875 C-206.94251397 278.86067817 -206.94707705 276.84635516 -206.95117188 274.83203125 C-206.9622115 269.88799198 -206.97948151 264.94400865 -207 260 C-212.28 260 -217.56 260 -223 260 Z M-140.75 319.1875 C-152.03769024 331.14999781 -159.37743554 347.39283635 -159 364 C-157.58806523 384.02380225 -150.68776297 399.39253569 -135.84375 412.97265625 C-122.89740293 423.64401117 -107.254677 428.82560276 -90.55078125 427.78515625 C-71.85963627 425.58742924 -56.01634456 417.45510671 -44.203125 402.765625 C-33.01364162 387.75067722 -30.38511022 371.2609267 -32 353 C-34.71973415 336.68818837 -44.19133956 322.38017831 -57.26171875 312.4140625 C-83.55379937 293.74281989 -117.3819014 297.37994223 -140.75 319.1875 Z M-174.1875 418.8125 C-175.31865234 419.45509766 -176.44980469 420.09769531 -177.61523438 420.75976562 C-179.21915039 421.69272461 -179.21915039 421.69272461 -180.85546875 422.64453125 C-181.84184326 423.21534424 -182.82821777 423.78615723 -183.84448242 424.37426758 C-184.55580322 424.91075928 -185.26712402 425.44725098 -186 426 C-186 432.97116599 -177.27697278 439.85045778 -172.625 444.6875 C-151.85668903 464.81238654 -122.85174618 476.30140744 -94 476 C-74.33553354 475.32191495 -57.15641624 470.50885113 -40 461 C-39.08863281 460.51789063 -38.17726563 460.03578125 -37.23828125 459.5390625 C-24.24045793 452.29711907 -10.27732382 440.08015719 -3 427 C-6.71577416 424.69262411 -10.44020302 422.40020976 -14.17333984 420.12109375 C-15.92014683 419.04900905 -17.6574645 417.96276739 -19.39453125 416.875 C-20.43996094 416.235625 -21.48539063 415.59625 -22.5625 414.9375 C-23.98755859 414.05384766 -23.98755859 414.05384766 -25.44140625 413.15234375 C-27.85837389 411.83288717 -27.85837389 411.83288717 -30.140625 412.09375 C-32.47265885 413.23037154 -33.57734271 414.53091882 -35.1875 416.5625 C-47.28572393 430.88128402 -63.52671098 439.80502533 -82 443 C-105.4165704 444.52588653 -127.45310794 441.35232797 -145.96875 425.86328125 C-155.72277228 416.91584158 -155.72277228 416.91584158 -159 412 C-164.61530404 412 -169.43877296 416.03762496 -174.1875 418.8125 Z " fill="#FFC106" transform="translate(471,12)"/>
<path d="M0 0 C15.84 0 31.68 0 48 0 C48 42.24 48 84.48 48 128 C32.16 128 16.32 128 0 128 C0 85.76 0 43.52 0 0 Z M16 16 C16 47.68 16 79.36 16 112 C21.28 112 26.56 112 32 112 C32 80.32 32 48.64 32 16 C26.72 16 21.44 16 16 16 Z " fill="#FFC107" transform="translate(168,224)"/>
<path d="M0 0 C0.86882812 0.44730469 1.73765625 0.89460938 2.6328125 1.35546875 C12.13956633 6.64803469 18.0416981 13.36917729 23 23 C23.41636719 23.78632813 23.83273437 24.57265625 24.26171875 25.3828125 C28.79617897 35.53363924 28.93695491 49.61872962 25.375 60.125 C24.63775158 61.77540173 23.84586683 63.40254252 23 65 C22.55269531 65.86882812 22.10539062 66.73765625 21.64453125 67.6328125 C16.35196531 77.13956633 9.63082271 83.0416981 0 88 C-0.78632813 88.41636719 -1.57265625 88.83273437 -2.3828125 89.26171875 C-12.53363924 93.79617897 -26.61872962 93.93695491 -37.125 90.375 C-38.77540173 89.63775158 -40.40254252 88.84586683 -42 88 C-42.86882812 87.55269531 -43.73765625 87.10539062 -44.6328125 86.64453125 C-54.13956633 81.35196531 -60.0416981 74.63082271 -65 65 C-65.41636719 64.21367187 -65.83273437 63.42734375 -66.26171875 62.6171875 C-70.79617897 52.46636076 -70.93695491 38.38127038 -67.375 27.875 C-66.63775158 26.22459827 -65.84586683 24.59745748 -65 23 C-64.32904297 21.69675781 -64.32904297 21.69675781 -63.64453125 20.3671875 C-58.35196531 10.86043367 -51.63082271 4.9583019 -42 0 C-40.82050781 -0.62455078 -40.82050781 -0.62455078 -39.6171875 -1.26171875 C-27.79918126 -6.54092216 -11.39430578 -6.03337831 0 0 Z M-46 24 C-51.96043793 32.77756033 -52.7984482 40.46048372 -52 51 C-50.15666828 59.1284266 -45.59155791 65.88208399 -38.6875 70.5703125 C-30.06430822 75.53432092 -20.95910589 76.57815789 -11.140625 74.3515625 C-2.19768024 71.10210742 3.71318973 65.46601418 8.08984375 57.11328125 C11.42097632 49.37876313 11.2898904 39.47516844 8.4375 31.625 C4.47673234 23.19105767 -1.47128212 17.67318164 -10 14 C-23.1412691 9.68413057 -37.0428662 13.80877221 -46 24 Z " fill="#FFC106" transform="translate(397,332)"/>
<path d="M0 0 C15.84 0 31.68 0 48 0 C48 26.4 48 52.8 48 80 C32.16 80 16.32 80 0 80 C0 53.6 0 27.2 0 0 Z M16 16 C16 31.84 16 47.68 16 64 C21.28 64 26.56 64 32 64 C32 48.16 32 32.32 32 16 C26.72 16 21.44 16 16 16 Z " fill="#FFC107" transform="translate(40,272)"/>
<path d="M0 0 C15.84 0 31.68 0 48 0 C48 21.12 48 42.24 48 64 C32.16 64 16.32 64 0 64 C0 42.88 0 21.76 0 0 Z M16 16 C16 26.56 16 37.12 16 48 C21.28 48 26.56 48 32 48 C32 37.44 32 26.88 32 16 C26.72 16 21.44 16 16 16 Z " fill="#FFC107" transform="translate(104,288)"/>
<path d="M0 0 C36.96 0 73.92 0 112 0 C112 5.28 112 10.56 112 16 C75.04 16 38.08 16 0 16 C0 10.72 0 5.44 0 0 Z " fill="#FFC107" transform="translate(72,192)"/>
<path d="M0 0 C36.96 0 73.92 0 112 0 C112 5.28 112 10.56 112 16 C75.04 16 38.08 16 0 16 C0 10.72 0 5.44 0 0 Z " fill="#FFC107" transform="translate(72,160)"/>
<path d="M0 0 C36.96 0 73.92 0 112 0 C112 5.28 112 10.56 112 16 C75.04 16 38.08 16 0 16 C0 10.72 0 5.44 0 0 Z " fill="#FFC107" transform="translate(72,128)"/>
<path d="M0 0 C36.96 0 73.92 0 112 0 C112 5.28 112 10.56 112 16 C75.04 16 38.08 16 0 16 C0 10.72 0 5.44 0 0 Z " fill="#FFC107" transform="translate(72,96)"/>
<path d="M0 0 C5.28 0 10.56 0 16 0 C16 5.28 16 10.56 16 16 C10.72 16 5.44 16 0 16 C0 10.72 0 5.44 0 0 Z " fill="#FFC107" transform="translate(40,192)"/>
<path d="M0 0 C5.28 0 10.56 0 16 0 C16 5.28 16 10.56 16 16 C10.72 16 5.44 16 0 16 C0 10.72 0 5.44 0 0 Z " fill="#FFC107" transform="translate(40,160)"/>
<path d="M0 0 C5.28 0 10.56 0 16 0 C16 5.28 16 10.56 16 16 C10.72 16 5.44 16 0 16 C0 10.72 0 5.44 0 0 Z " fill="#FFC107" transform="translate(40,128)"/>
<path d="M0 0 C5.28 0 10.56 0 16 0 C16 5.28 16 10.56 16 16 C10.72 16 5.44 16 0 16 C0 10.72 0 5.44 0 0 Z " fill="#FFC107" transform="translate(40,96)"/>
</svg>
