<?xml version="1.0" encoding="UTF-8"?>
<svg version="1.1" xmlns="http://www.w3.org/2000/svg" width="512" height="512">
<path d="M0 0 C1.25643631 -0.00445784 2.51287262 -0.00891569 3.80738276 -0.01350862 C5.20430292 -0.01341932 6.60122307 -0.01322948 7.9981432 -0.01294994 C9.48011029 -0.01624948 10.9620765 -0.01997524 12.44404155 -0.02409142 C16.52219657 -0.03410917 20.60033686 -0.03782785 24.67850244 -0.04048073 C29.07469805 -0.04438441 33.47088202 -0.05396266 37.8670702 -0.0626936 C48.48622513 -0.08245541 59.10538102 -0.09252351 69.72454974 -0.10142139 C74.72479373 -0.10580444 79.72503666 -0.11117117 84.72527981 -0.11641026 C101.34599271 -0.13342166 117.96670496 -0.14791627 134.58742523 -0.155159 C138.90050412 -0.1570689 143.213583 -0.15898923 147.52666187 -0.16094494 C149.13465965 -0.16167055 149.13465965 -0.16167055 150.77514223 -0.16241082 C168.14439739 -0.17071277 185.51358373 -0.19605289 202.88280883 -0.22852562 C220.71344598 -0.26158938 238.54404813 -0.27960711 256.3747161 -0.28280324 C266.38680529 -0.28496888 276.39879407 -0.29372561 286.41085339 -0.31926441 C294.93672246 -0.340962 303.46246675 -0.34902643 311.98836031 -0.33929763 C316.33784797 -0.33475031 320.68707809 -0.33666425 325.03653049 -0.35605907 C329.02094942 -0.37367263 333.00492259 -0.37270792 336.98934612 -0.35716178 C338.42814436 -0.35478296 339.86697332 -0.35912359 341.30572458 -0.37099043 C350.82146971 -0.4445937 358.14590128 0.23575342 365.66069508 6.38422108 C371.61069816 13.65644707 374.01594301 18.88130755 374.08769703 28.330266 C374.09426823 29.04791126 374.10083942 29.76555653 374.10760975 30.50494862 C374.12728379 32.87486354 374.13899353 35.2447152 374.14897633 37.61468983 C374.15305185 38.42723036 374.15712738 39.23977089 374.16132641 40.07693386 C374.18216429 44.37963701 374.19647459 48.68230851 374.20586109 52.98505116 C374.21690727 57.41223857 374.2512927 61.83892087 374.29103279 66.26593018 C374.31727567 69.68477228 374.3255598 73.10349552 374.32914257 76.52242947 C374.33399049 78.15339339 374.34555292 79.78435265 374.36418056 81.4152174 C374.47641465 91.8945841 373.62278069 99.45691367 367.78569508 108.38422108 C360.59635874 115.26097757 352.38208588 117.28011905 342.63725758 117.23187733 C341.59650074 117.22937977 340.5557439 117.22688221 339.48344898 117.22430897 C338.18069019 117.21520496 336.8779314 117.20610096 335.53569508 117.19672108 C331.36944508 117.17609608 327.20319508 117.15547108 322.91069508 117.13422108 C322.91069508 127.03422108 322.91069508 136.93422108 322.91069508 147.13422108 C331.06207981 147.05561244 331.06207981 147.05561244 339.21318531 146.9540453 C349.81390567 146.90279815 358.82746945 147.68794756 366.91069508 155.13422108 C371.79899494 161.72369028 374.02312441 167.07793951 374.10356617 175.29266834 C374.11174366 176.01831486 374.11992115 176.74396137 374.12834644 177.49159718 C374.15316704 179.89459895 374.16971284 182.29754154 374.18413258 184.70062733 C374.18945625 185.52386934 374.19477993 186.34711136 374.20026493 187.1953001 C374.22698918 191.55749931 374.24636154 195.91967004 374.26079273 200.28192616 C374.27410001 203.87951737 374.30189349 207.47653708 374.34282398 211.07391834 C374.39236017 215.42817156 374.41693993 219.78190877 374.42401981 224.13643169 C374.43069977 225.78892048 374.44583624 227.44139924 374.46991062 229.09372616 C374.61787605 239.86883848 373.89199783 248.24328913 366.66460133 256.79047108 C365.94143726 257.39890858 365.2182732 258.00734608 364.47319508 258.63422108 C363.75260914 259.26328358 363.0320232 259.89234608 362.28960133 260.54047108 C357.26042805 263.90976943 352.4956317 264.37872469 346.54350758 264.32953358 C345.52412601 264.32528873 345.52412601 264.32528873 344.48415089 264.32095814 C342.334479 264.30985072 340.18523894 264.28476498 338.03569508 264.25922108 C336.5695553 264.24917902 335.10340893 264.24005532 333.63725758 264.23187733 C330.06159876 264.20994267 326.48618914 264.17547922 322.91069508 264.13422108 C322.91069508 267.10422108 322.91069508 270.07422108 322.91069508 273.13422108 C324.23069508 272.80422108 325.55069508 272.47422108 326.91069508 272.13422108 C332.45770694 271.81409586 337.15948919 272.7116882 342.46928883 274.10297108 C343.25844181 274.30273548 344.0475948 274.50249989 344.86066151 274.70831776 C347.35856303 275.3425187 349.85333671 275.98816429 352.34819508 276.63422108 C354.05047476 277.06857691 355.75294712 277.50217839 357.45561695 277.93500233 C361.60958887 278.99269714 365.76079674 280.06065973 369.91069508 281.13422108 C370.14651295 280.09773426 370.38233082 279.06124744 370.62529469 277.99335194 C372.79714283 268.54816603 375.20565891 259.20272306 377.85374928 249.88074207 C381.42866535 237.2764242 384.8617023 224.63971103 388.15062428 211.95795155 C393.31961039 192.02717566 398.63266762 172.13551441 403.98717213 152.25391102 C404.89025385 148.90030156 405.79100861 145.54608107 406.68968678 142.19128895 C407.76224553 138.1880338 408.83971976 134.1861321 409.92077923 130.18516445 C410.32174879 128.698262 410.7211213 127.21092777 411.11873531 125.7231245 C417.89363117 100.39019311 417.89363117 100.39019311 426.47319508 94.32172108 C435.77501201 91.10836614 445.49786764 93.57317647 454.66069508 96.19672108 C455.73190601 96.47193592 456.80311695 96.74715076 457.90678883 97.03070545 C465.47324128 99.14800918 471.75847277 102.17004023 476.0935564 108.99701405 C480.11923028 117.91986489 476.29713823 128.32390509 473.86772633 137.22797108 C473.55150822 138.41188435 473.23529011 139.59579762 472.90948963 140.81558704 C472.03773678 144.07336569 471.1590835 147.32913418 470.27738667 150.58422565 C469.33710122 154.06241063 468.40588462 157.54302266 467.47368336 161.02338123 C465.84529182 167.09839513 464.21138704 173.17190489 462.57426929 179.24457264 C459.9966878 188.80708132 457.4321156 198.37305611 454.86973858 207.93964863 C446.90464218 237.67688326 438.92006449 267.40887925 430.91069508 297.13422108 C435.91266948 298.83665707 440.90080568 300.4694981 446.01225758 301.81781483 C447.07960133 302.1059203 448.14694508 302.39402576 449.24663258 302.6908617 C451.44566155 303.27979404 453.64620507 303.86309899 455.84819508 304.4408617 C461.78159111 306.0535099 466.75088191 307.77580412 471.91069508 311.13422108 C472.75632008 311.67047108 473.60194508 312.20672108 474.47319508 312.75922108 C480.89573338 319.01707891 483.99145868 326.31273455 484.43022633 335.14593983 C484.58084467 347.0847781 480.40004492 358.64884279 477.15084934 370.00537205 C476.21650314 373.28751822 475.30436533 376.57580961 474.39140797 379.86395741 C473.28571481 383.84322521 472.17925227 387.82224329 471.0641222 391.79887867 C468.0914156 402.40768939 465.27069454 413.05117729 462.52058887 423.71957874 C460.85537312 430.16391005 459.15499128 436.59909958 457.46092701 443.03589344 C456.93194507 445.05318352 456.40818468 447.07175886 455.88579273 449.09076405 C455.00021552 452.48690967 454.0863551 455.87382099 453.16069508 459.25922108 C452.9272942 460.17727528 452.69389332 461.09532948 452.45341969 462.0412035 C450.41557744 469.27982525 446.79413723 474.90772719 440.16502857 478.70839405 C428.33589819 483.89111236 413.78908357 478.21214109 402.06694508 474.98968983 C400.08386516 474.45745058 398.10041861 473.92657571 396.11662769 473.39699268 C391.98545005 472.29035082 387.85757746 471.17238848 383.73198414 470.04510975 C378.45294646 468.6028921 373.16850386 467.18185715 367.88174152 465.76824951 C363.79669554 464.67489392 359.71361737 463.57434653 355.63119984 462.47122097 C353.68275705 461.94485481 351.73395855 461.41980351 349.78479481 460.8961134 C347.06512041 460.16341605 344.34797313 459.42201755 341.6313982 458.67792225 C340.83339802 458.46429035 340.03539783 458.25065845 339.21321583 458.03055286 C328.59598664 455.0950156 328.59598664 455.0950156 324.98564625 450.89447498 C323.54819327 447.20339087 324.01344831 444.85563977 324.71147633 440.97015858 C324.82670139 440.29627094 324.94192646 439.62238331 325.0606432 438.92807484 C325.43071524 436.78495761 325.82612352 434.6474839 326.22319508 432.50922108 C326.60388443 430.36312394 326.97939138 428.21617755 327.35361195 426.06894398 C327.69527694 424.12483477 328.04938335 422.18292432 328.40410328 420.24115467 C328.9911585 417.16539842 328.9911585 417.16539842 328.91069508 414.13422108 C328.33101978 415.02729969 327.75134449 415.9203783 327.15410328 416.84051991 C324.99355632 420.16300316 322.8191141 423.47619556 320.6404314 426.78680897 C319.70076165 428.21889481 318.76484071 429.65344797 317.83281422 431.09051991 C316.48974145 433.15992643 315.13328112 435.21998255 313.77397633 437.27875233 C313.36230717 437.91948185 312.95063801 438.56021137 312.52649403 439.22035694 C310.08608388 442.88304563 307.9714756 445.3443906 303.91069508 447.13422108 C296.77573185 446.9035478 289.84785664 444.75831374 282.97319508 442.94672108 C281.84462086 442.66763905 280.71604664 442.38855701 279.5532732 442.10101795 C271.49484516 439.97741824 264.33075165 437.33310242 258.93803883 430.71234608 C258.57839039 429.94406483 258.21874195 429.17578358 257.84819508 428.38422108 C257.46534351 427.62625233 257.08249195 426.86828358 256.68803883 426.08734608 C255.92324914 423.1819139 255.83197964 420.93614734 255.86211109 417.94965076 C255.8691254 417.0481731 255.87613972 416.14669544 255.88336658 415.21790028 C255.89238499 414.53028614 255.90140339 413.842672 255.91069508 413.13422108 C255.36471989 413.13362399 254.8187447 413.1330269 254.25622481 413.13241172 C221.87242379 413.0964908 189.48873481 413.03981049 157.10502343 412.95630012 C153.21366891 412.94628308 149.32231397 412.93643888 145.43095875 412.92670155 C144.26894711 412.92378949 144.26894711 412.92378949 143.08346049 412.9208186 C130.55230117 412.88982673 118.02116016 412.87282581 105.48996975 412.86102685 C92.62467336 412.84860069 79.75947276 412.8210663 66.89423686 412.77960801 C58.96043888 412.75451444 51.02679982 412.74110076 43.09296159 412.7427915 C37.00162088 412.74282487 30.91053523 412.72180279 24.81925488 412.69305325 C22.32603807 412.68455073 19.8327874 412.68280667 17.33956242 412.68841839 C13.92739062 412.6950741 10.51617575 412.67709836 7.10410023 412.65320301 C5.63469228 412.66484364 5.63469228 412.66484364 4.13559932 412.67671943 C-4.36734631 412.5717821 -12.5569276 410.74901846 -19.02680492 404.94672108 C-30.57113194 391.82439253 -27.24868148 371.31814807 -27.21967602 355.03827381 C-27.2143017 351.44456259 -27.21965489 347.85097545 -27.22602367 344.25726795 C-27.22536305 341.94151247 -27.22408222 339.62575707 -27.22211742 337.31000233 C-27.22414165 336.25138493 -27.22616589 335.19276752 -27.22825146 334.10207081 C-27.16021082 312.19113645 -27.16021082 312.19113645 -19.83930492 303.44672108 C-13.15994672 297.82998804 -7.85058885 295.00050155 0.98491383 295.03656483 C2.23619068 295.03906239 3.48746754 295.04155994 4.77666187 295.04413319 C7.16332081 295.05778919 7.16332081 295.05778919 9.59819508 295.07172108 C14.65132008 295.09234608 19.70444508 295.11297108 24.91069508 295.13422108 C24.91069508 284.90422108 24.91069508 274.67422108 24.91069508 264.13422108 C15.06864236 264.25239326 15.06864236 264.25239326 5.22710133 264.40448475 C-3.48322304 264.45716816 -9.87714104 264.02492178 -17.27680492 258.94672108 C-26.51983717 249.70368884 -27.30100894 239.36800851 -27.36719799 226.71722889 C-27.36314953 225.45233631 -27.35910107 224.18744373 -27.35492992 222.88422108 C-27.3562819 221.5362386 -27.35822682 220.1882566 -27.36072826 218.84027576 C-27.36365456 216.03326178 -27.35946323 213.22637622 -27.35004711 210.41937733 C-27.338654 206.85252115 -27.345227 203.28596616 -27.35719204 199.71912098 C-27.36447868 196.9410021 -27.3620918 194.1629526 -27.35693645 191.38483143 C-27.35498616 189.44029001 -27.36097425 187.4957457 -27.36719799 185.55121326 C-27.3123912 175.07593726 -27.23844566 164.42940728 -20.08930492 156.13422108 C-12.08418867 148.28956372 -2.84158466 146.78785606 8.04008961 146.86395741 C10.01791431 146.90492542 10.01791431 146.90492542 12.03569508 146.94672108 C16.28444508 147.00859608 20.53319508 147.07047108 24.91069508 147.13422108 C24.91069508 137.23422108 24.91069508 127.33422108 24.91069508 117.13422108 C16.47508741 117.25206488 16.47508741 117.25206488 8.04008961 117.40448475 C-1.66709207 117.47237224 -10.34457488 116.43807111 -18.08930492 110.13422108 C-30.88763212 96.74062285 -27.27574567 75.32642534 -27.27460766 58.10834217 C-27.27680826 54.37857345 -27.29506251 50.64909454 -27.3139143 46.91937733 C-27.31684672 44.51703457 -27.31883253 42.11469044 -27.31977367 39.71234608 C-27.32695919 38.61311817 -27.33414471 37.51389027 -27.34154797 36.38135242 C-27.30983585 25.53902511 -26.72613888 15.44916714 -19.08930492 7.13422108 C-12.84534723 1.99404793 -8.0609512 0.01326124 0 0 Z M-8.96430492 20.07172108 C-11.15680529 24.09130508 -11.22248409 27.82038767 -11.25043774 32.35223866 C-11.26004528 33.61067081 -11.26965282 34.86910297 -11.27955151 36.16566944 C-11.28440012 37.53669522 -11.28867879 38.90772311 -11.29242992 40.27875233 C-11.29818679 41.69116179 -11.30394445 43.10357126 -11.30970287 44.51598072 C-11.32019565 47.47572663 -11.32604945 50.43544552 -11.3295393 53.39520741 C-11.33501798 57.17458265 -11.35903951 60.95359655 -11.38751125 64.73285866 C-11.40620137 67.65064482 -11.41134662 70.56834507 -11.41287518 73.48618603 C-11.41588829 74.87875498 -11.42387121 76.27132291 -11.43706036 77.66383266 C-11.75534913 87.89319399 -11.75534913 87.89319399 -8.08930492 97.13422108 C-2.37304235 102.60999457 4.41658991 101.69095929 11.9171648 101.63542652 C13.36587746 101.63932043 14.81458629 101.6449616 16.26328611 101.65219742 C20.24023487 101.66695733 24.21678789 101.65676783 28.19372392 101.6424607 C32.48418169 101.63135779 36.77458365 101.64329126 41.06503773 101.65230274 C49.46844207 101.66624186 57.87169623 101.65867407 66.27509344 101.64362716 C76.05930618 101.62677411 85.84348143 101.62997644 95.6277042 101.63372124 C113.08420679 101.63960105 130.54063727 101.62542349 147.99712086 101.60077381 C164.93953117 101.57685269 181.88184513 101.5697694 198.82426929 101.580266 C217.26940085 101.5916731 235.71448784 101.59360783 254.15961885 101.5791679 C256.12613868 101.57764205 258.09265852 101.57612169 260.05917835 101.5746069 C261.02676686 101.57384908 261.99435536 101.57309127 262.99126473 101.57231049 C269.81282901 101.56756606 276.6343734 101.56942023 283.45593739 101.57367229 C291.7681165 101.57859697 300.08020448 101.57262349 308.39236271 101.552778 C312.63409965 101.54290056 316.87569777 101.53780574 321.11744213 101.54567051 C324.99980968 101.55272171 328.88189699 101.54593597 332.76422757 101.52806688 C334.16925474 101.52401872 335.57430741 101.52502844 336.97932512 101.53158575 C338.88869811 101.53973475 340.79812539 101.52762947 342.70747089 101.51453781 C343.76819482 101.51350868 344.82891875 101.51247955 345.92178583 101.51141924 C350.24514628 100.96581431 353.60048181 99.37788125 356.7614336 96.37749195 C358.36484575 93.24775354 358.2921076 90.75211499 358.29887867 87.24188709 C358.30413563 86.55683094 358.30939259 85.87177479 358.31480885 85.16595936 C358.32798826 82.90644851 358.31927764 80.64764507 358.30913258 78.38812733 C358.31115415 76.8139835 358.31406629 75.23984058 358.31783009 73.66569996 C358.32225083 70.36792546 358.31583147 67.07039492 358.30180836 63.77264881 C358.28473047 59.55136147 358.29455004 55.33064697 358.31252575 51.10938072 C358.32338246 47.85880206 358.31990839 44.60835849 358.31214237 41.35777569 C358.31014484 39.80169004 358.31258392 38.24559203 358.31958103 36.68952084 C358.32722529 34.51133493 358.31555038 32.33406735 358.29887867 30.15594959 C358.29649189 28.9178101 358.29410511 27.6796706 358.291646 26.40401173 C357.87527386 22.83019249 357.075633 20.97979107 354.91069508 18.13422108 C350.34927996 15.09327767 346.28529763 15.00920113 340.89578152 15.00279331 C339.6814049 14.99895217 338.46702829 14.99511102 337.21585238 14.99115348 C335.87158968 14.99193366 334.52732704 14.99281243 333.18306446 14.99377918 C331.75243149 14.99119467 330.32179925 14.98818126 328.891168 14.98477578 C324.95962929 14.97671298 321.02810886 14.97491661 317.09656286 14.97417831 C312.8565268 14.97232656 308.6165002 14.9647787 304.37646961 14.9580431 C295.10593149 14.94446534 285.83539769 14.9384362 276.56485128 14.93403244 C270.77714064 14.93126962 264.98943166 14.92703225 259.20172215 14.92252827 C243.17887508 14.91033736 227.15602936 14.90003702 211.13317776 14.89665318 C210.10785319 14.89643361 209.08252863 14.89621404 208.02613362 14.89598782 C206.48446626 14.89566041 206.48446626 14.89566041 204.91165411 14.89532638 C202.82897766 14.89488291 200.74630121 14.89443635 198.66362476 14.8939867 C197.63054512 14.89376527 196.59746547 14.89354384 195.53308038 14.8933157 C178.78657034 14.88936611 162.04010377 14.87190636 145.29361053 14.84862718 C128.10253805 14.82492269 110.9114874 14.81245177 93.72039831 14.81128526 C84.06722958 14.8103681 74.41411752 14.80460534 64.76096439 14.78646564 C56.54286248 14.77107699 48.32483476 14.76593696 40.10672118 14.77420375 C35.91346155 14.77811435 31.7203514 14.77716061 27.5271101 14.7631464 C23.68784503 14.75043242 19.84884214 14.75158282 16.00957756 14.76373711 C14.62131845 14.76569844 13.23304092 14.76259556 11.8448077 14.75389275 C0.45321693 14.43545114 0.45321693 14.43545114 -8.96430492 20.07172108 Z M431.91069508 110.13422108 C430.65477024 112.96262119 430.65477024 112.96262119 429.84624195 116.43890858 C429.67255085 117.09237389 429.49885975 117.7458392 429.31990528 118.41910648 C428.741066 120.61210309 428.18552022 122.81035145 427.62944508 125.00922108 C427.22032826 126.57632147 426.80968849 128.14302495 426.39763355 129.70935535 C425.5141913 133.07941329 424.64072264 136.45184092 423.77495289 139.82648182 C422.40637168 145.16012777 421.01635581 150.48802342 419.62163258 155.81488514 C419.14649854 157.63036634 418.67140112 159.44585713 418.19633961 161.26135731 C417.95909168 162.16797863 417.72184376 163.07459995 417.4774065 164.00869465 C416.74892218 166.79597743 416.02263027 169.58382326 415.29692554 172.37183094 C410.50207677 190.78173951 405.54306437 209.14606134 400.55678272 227.50488758 C399.50247703 231.38755715 398.44965234 235.27062794 397.3970232 239.15375233 C397.09707825 240.26020981 397.09707825 240.26020981 396.7910738 241.38901997 C395.14201917 247.47354737 393.4965787 253.55904576 391.85356617 259.64520741 C391.25126355 261.87397661 390.64756245 264.10236868 390.04204273 266.330266 C389.3060635 269.03972162 388.57605343 271.7506999 387.84819508 274.46234608 C387.54196217 275.58114155 387.54196217 275.58114155 387.22954273 276.72253895 C386.34986133 280.02640098 385.91069508 282.67889899 385.91069508 286.13422108 C388.3045418 286.91168349 390.70054516 287.68114027 393.09819508 288.44672108 C393.75239429 288.66006092 394.40659351 288.87340076 395.08061695 289.09320545 C401.59997244 291.16333255 408.23601933 292.65446109 414.91069508 294.13422108 C421.77181829 269.61912071 428.31892025 245.01962951 434.89157581 220.42603016 C437.55036217 210.47813787 440.21543766 200.53194106 442.88306141 190.58641529 C444.48118754 184.62760687 446.07788705 178.66842547 447.67070484 172.70819569 C448.27933529 170.43093007 448.88797764 168.15366764 449.49663258 165.87640858 C449.93558102 164.23391888 449.93558102 164.23391888 450.3833971 162.55824757 C451.97006156 156.62770308 453.5688849 150.70071552 455.1853838 144.77823353 C456.06696499 141.54556472 456.94186043 138.31111045 457.81554127 135.07629871 C458.20669261 133.63560539 458.60124633 132.19583071 458.99950123 130.75708485 C459.53053872 128.83826937 460.04914511 126.91602601 460.56694508 124.99359608 C460.85376148 123.94655506 461.14057789 122.89951405 461.4360857 121.82074451 C461.90717879 119.15412501 461.81196456 117.65566563 460.91069508 115.13422108 C456.83409428 113.90232048 452.74865028 112.70285015 448.66069508 111.50922108 C447.50182789 111.15859608 446.3429607 110.80797108 445.14897633 110.44672108 C444.03393726 110.12445545 442.9188982 109.80218983 441.77007008 109.47015858 C440.74365406 109.16642323 439.71723804 108.86268787 438.65971851 108.54974842 C435.42202677 108.06035665 434.5353486 108.22996198 431.91069508 110.13422108 Z M40.91069508 117.13422108 C40.91069508 127.03422108 40.91069508 136.93422108 40.91069508 147.13422108 C128.69069508 147.13422108 216.47069508 147.13422108 306.91069508 147.13422108 C306.91069508 137.23422108 306.91069508 127.33422108 306.91069508 117.13422108 C219.13069508 117.13422108 131.35069508 117.13422108 40.91069508 117.13422108 Z M-8.08930492 167.13422108 C-12.31072406 173.63179733 -11.52584016 181.06478471 -11.48774242 188.57172108 C-11.48976665 189.97984435 -11.49268099 191.3879666 -11.49643993 192.79608631 C-11.50084693 195.73800164 -11.49448513 198.67964251 -11.48041821 201.62152576 C-11.46332691 205.37733785 -11.47317689 209.13250664 -11.4911356 212.88829517 C-11.50201772 215.7932459 -11.49850694 218.69804613 -11.49075222 221.60300159 C-11.48876242 222.987178 -11.49116626 224.37136844 -11.49819088 225.75552845 C-11.63377846 235.8786232 -11.63377846 235.8786232 -8.08930492 245.13422108 C-3.96095961 249.12939396 0.25905872 249.25913226 5.80535412 249.26285553 C7.01835638 249.26607998 8.23135865 249.26930442 9.48111856 249.27262658 C10.82901258 249.27115541 12.17690649 249.26958769 13.5248003 249.26793385 C14.9552827 249.26980166 16.3857646 249.27210225 17.81624568 249.27479917 C21.75197653 249.28092718 25.68768618 249.2807824 29.62342072 249.27960479 C33.86618027 249.27940104 38.10893297 249.28491711 42.35168934 249.28966236 C50.6657469 249.29797489 58.97979738 249.30071747 67.29385875 249.30127474 C74.05048329 249.3017496 80.80710549 249.30380285 87.56372929 249.30697536 C106.71182626 249.31578347 125.85991762 249.32039448 145.00801663 249.31964489 C146.5569909 249.31958496 146.5569909 249.31958496 148.13725758 249.31952381 C149.68811876 249.31946249 149.68811876 249.31946249 151.27031048 249.31939993 C168.03048227 249.31899338 184.79063161 249.32856471 201.55079691 249.34266218 C218.75200288 249.35701669 235.95319789 249.36393288 253.15441 249.3630684 C262.81481316 249.36273612 272.47519278 249.36549691 282.13559055 249.37624645 C290.35995655 249.38533928 298.58428832 249.38753674 306.80865715 249.38073703 C311.00580449 249.37746569 315.20288613 249.3774372 319.40002728 249.38609028 C323.24169994 249.39392914 327.08325452 249.39255073 330.92492421 249.38380615 C332.31521228 249.38226538 333.70550904 249.38410895 335.09578685 249.38966622 C336.98529725 249.39671923 338.87484365 249.39024298 340.76435375 249.38311005 C341.81401078 249.38332741 342.8636678 249.38354478 343.94513261 249.38376874 C348.40288164 249.0086558 351.82028208 248.07728097 355.22319508 245.13422108 C358.22593808 241.57541455 358.05054963 239.18409728 358.08769703 234.57660389 C358.09426823 233.90319965 358.10083942 233.22979542 358.10760975 232.53598499 C358.12735038 230.30310424 358.13900825 228.07029084 358.14897633 225.83734608 C358.15305185 225.07438976 358.15712738 224.31143345 358.16132641 223.52535725 C358.18219252 219.48547606 358.19649067 215.44562888 358.20586109 211.40570545 C358.21691407 207.23822373 358.25129898 203.07127766 358.29103279 198.90398502 C358.31721674 195.69542944 358.32555457 192.48700099 358.32914257 189.27834797 C358.33400564 187.74259043 358.34561177 186.20683847 358.36418056 184.67118549 C358.38860677 182.51683519 358.38760141 180.36386363 358.38066578 178.20941639 C358.38653202 176.98522999 358.39239826 175.76104359 358.39844227 174.49976063 C357.80305464 170.39148358 356.59138915 168.28418486 353.91069508 165.13422108 C350.14090118 163.21558034 347.02923727 162.8825269 342.83051872 162.87695217 C341.60159183 162.87050328 340.37266493 162.86405439 339.10649782 162.85741007 C337.74582476 162.86035223 336.38515209 162.86348766 335.02447987 162.86679554 C333.57663341 162.86305885 332.12878896 162.85845725 330.68094772 162.85306489 C326.70185262 162.84082203 322.7228415 162.84109686 318.74373186 162.84345365 C314.45258147 162.84386148 310.16145813 162.83282595 305.87032032 162.82333851 C297.46348486 162.80672115 289.05667745 162.80122866 280.64982695 162.80011375 C273.8178991 162.79916375 266.98598052 162.79505587 260.1540556 162.7887125 C240.79051315 162.77109912 221.42699287 162.76187394 202.06344236 162.76337345 C200.49739422 162.76349332 200.49739422 162.76349332 198.89970875 162.76361561 C197.33175213 162.76373825 197.33175213 162.76373825 195.73211961 162.76386337 C178.78445361 162.76467659 161.83687641 162.74553001 144.8892361 162.71733887 C127.4936316 162.68863051 110.09807044 162.67479741 92.70244163 162.67652643 C82.93359562 162.67719097 73.16484273 162.67167027 63.39601803 162.65017033 C55.08015086 162.63198558 46.76441905 162.62758896 38.44854064 162.64118917 C34.20473438 162.64773218 29.96118802 162.64778817 25.71740627 162.63048267 C21.8330945 162.6148057 17.94924986 162.61756 14.06494986 162.63505094 C12.65921246 162.63813273 11.25344066 162.63444418 9.84774382 162.62333079 C0.00293363 162.32719576 0.00293363 162.32719576 -8.08930492 167.13422108 Z M40.91069508 264.13422108 C40.91069508 274.36422108 40.91069508 284.59422108 40.91069508 295.13422108 C126.71069508 295.13422108 212.51069508 295.13422108 300.91069508 295.13422108 C302.56069508 291.83422108 304.21069508 288.53422108 305.91069508 285.13422108 C306.24069508 284.80422108 306.57069508 284.47422108 306.91069508 284.13422108 C306.91069508 277.53422108 306.91069508 270.93422108 306.91069508 264.13422108 C219.13069508 264.13422108 131.35069508 264.13422108 40.91069508 264.13422108 Z M319.91069508 292.13422108 C316.83378306 296.18278952 315.74625893 299.41371336 314.80913258 304.37640858 C314.63817066 305.26956776 314.46720875 306.16272694 314.29106617 307.08295155 C314.16554371 307.75987049 314.04002125 308.43678944 313.91069508 309.13422108 C332.99102414 314.86167398 352.20892907 320.01406078 371.46445942 325.11137867 C378.11011757 326.87136412 384.75432217 328.63683538 391.39846897 330.40251637 C393.05532274 330.84282302 394.7122059 331.28301905 396.36911869 331.72310352 C407.02625013 334.55437125 417.67394777 337.4168469 428.30913258 340.32953358 C429.44473621 340.64004658 430.58033985 340.95055958 431.75035572 341.27048206 C436.9063634 342.68124964 442.06034186 344.09883162 447.21147633 345.52728748 C448.99396574 346.01628551 450.77651374 346.50507005 452.55913258 346.99359608 C453.34508808 347.21443867 454.13104359 347.43528126 454.94081593 347.66281605 C458.67785207 348.68063243 462.0290342 349.39676738 465.91069508 349.13422108 C468.16485965 342.79438321 469.71048595 335.39810332 467.00053883 328.97797108 C462.88264419 322.72830463 456.72058558 320.9066526 449.69170094 319.05634022 C448.9917658 318.87014024 448.29183067 318.68394026 447.57068539 318.49209785 C445.25723086 317.87830577 442.94144244 317.27385673 440.62553883 316.66937733 C438.98365384 316.23561171 437.34192825 315.80124235 435.70035267 315.36630726 C431.32113109 314.20771611 426.93986909 313.0570331 422.55811787 311.90805149 C418.04643043 310.72377403 413.53646637 309.53297342 409.02641773 308.34247303 C403.65294933 306.92434073 398.27937011 305.50664296 392.90495777 304.09209156 C382.87633288 301.45170774 372.85502609 298.78708968 362.84428883 296.07953358 C361.77405979 295.79071812 360.70383076 295.50190266 359.60117054 295.20433521 C351.78451902 293.09455313 351.78451902 293.09455313 348.01149464 292.06393909 C345.4975462 291.37754808 342.9817341 290.69845732 340.46538258 290.02093983 C339.75768223 289.82513325 339.04998188 289.62932667 338.32083607 289.42758656 C331.01642065 287.47613558 326.12270371 287.74544349 319.91069508 292.13422108 Z M-10.08930492 317.13422108 C-11.21602355 320.55256617 -11.22829059 323.7617384 -11.25043774 327.35223866 C-11.26004528 328.61067081 -11.26965282 329.86910297 -11.27955151 331.16566944 C-11.28440012 332.53669522 -11.28867879 333.90772311 -11.29242992 335.27875233 C-11.29818679 336.69116179 -11.30394445 338.10357126 -11.30970287 339.51598072 C-11.32019565 342.47572663 -11.32604945 345.43544552 -11.3295393 348.39520741 C-11.33501798 352.17458265 -11.35903951 355.95359655 -11.38751125 359.73285866 C-11.40620137 362.65064482 -11.41134662 365.56834507 -11.41287518 368.48618603 C-11.41588829 369.87875498 -11.42387121 371.27132291 -11.43706036 372.66383266 C-11.66074944 384.09822087 -11.66074944 384.09822087 -6.58930492 394.00922108 C-3.72363293 396.15847508 -1.02125711 396.2588937 2.41844177 396.25726891 C3.34751475 396.25925995 4.27658772 396.261251 5.23381442 396.26330239 C6.25617719 396.26038954 7.27853997 396.2574767 8.33188343 396.25447559 C9.95894041 396.25575723 9.95894041 396.25575723 11.61886722 396.25706476 C15.27174239 396.25871845 18.92457215 396.25319996 22.57744312 396.24774647 C25.18868986 396.24746455 27.79993667 396.24762243 30.41118336 396.24818897 C36.04239533 396.24871378 41.67359574 396.24557144 47.3048048 396.23995113 C55.44662629 396.23183036 63.58844217 396.22922032 71.73026726 396.22796314 C84.93925744 396.22577353 98.14824145 396.21911591 111.35722828 396.20966053 C124.18991026 396.20048406 137.02259056 396.19340437 149.85527515 396.18915272 C151.04142364 396.18875863 151.04142364 396.18875863 152.25153472 396.18835659 C156.21850169 396.18705157 160.18546867 396.18578785 164.15243566 396.18454468 C197.07185996 396.17417491 229.99127669 396.15655906 262.91069508 396.13422108 C264.5857522 392.11515431 266.25801826 388.09494088 267.92778492 384.0736742 C268.49539114 382.70780108 269.0637391 381.34223594 269.63286304 379.97699451 C270.45402319 378.0067854 271.27244851 376.03545882 272.09038258 374.06390858 C272.82877369 372.28862782 272.82877369 372.28862782 273.58208179 370.4774828 C274.8085079 367.3913602 275.89622139 364.29550629 276.91069508 361.13422108 C276.28985885 361.13367631 275.66902262 361.13313154 275.02937317 361.13257027 C259.93167402 361.11761104 244.83432401 361.07519952 229.73680878 361.00213051 C222.4357687 360.9674588 215.13491786 360.94212217 207.83379078 360.93866444 C201.47102091 360.93562752 195.10858786 360.9151745 188.74594814 360.87369651 C185.37602579 360.85233919 182.00658258 360.8397794 178.63659191 360.84806728 C174.87676471 360.85293904 171.11834739 360.82702999 167.35869312 360.79364491 C166.23803959 360.80227055 165.11738605 360.81089619 163.96277332 360.81978321 C161.1867584 360.77826811 158.62719907 360.70532158 155.91069508 360.13422108 C153.68347645 357.79222584 153.68347645 357.79222584 152.91069508 355.13422108 C153.12835874 351.43393871 153.26560549 349.77931067 155.91069508 347.13422108 C158.1401968 346.87250805 158.1401968 346.87250805 160.97261524 346.85574818 C162.57963558 346.83900295 162.57963558 346.83900295 164.21912098 346.82191944 C165.39947422 346.81975925 166.57982746 346.81759907 167.79594898 346.81537342 C169.0349445 346.8053278 170.27394001 346.79528217 171.55048084 346.78493214 C174.95318309 346.75928683 178.35571757 346.74246427 181.75847769 346.72950411 C185.31263255 346.71390106 188.86670223 346.6871019 192.42079639 346.66147327 C199.15327321 346.61463527 205.88576596 346.57791556 212.61832273 346.5448004 C220.28212104 346.5066144 227.9458339 346.45719508 235.60956025 346.40681624 C251.37654348 346.30342175 267.14357457 346.2141859 282.91069508 346.13422108 C284.76878608 341.63458457 286.62000423 337.13220614 288.46489429 332.627141 C289.09354256 331.09479056 289.72406604 329.56320804 290.35649586 328.03241444 C291.26491791 325.83266401 292.16657288 323.63024522 293.06694508 321.42718983 C293.35130421 320.74271275 293.63566334 320.05823566 293.92863941 319.35301685 C295.10909413 316.44830989 295.91069508 314.30216645 295.91069508 311.13422108 C257.93906812 310.99690477 219.96747855 310.89117171 181.99565357 310.8278291 C177.51331348 310.82032481 173.03097388 310.81255888 168.54863453 310.80463123 C167.65627689 310.80305737 166.76391924 310.80148351 165.84452046 310.79986195 C151.39325351 310.77375004 136.94212968 310.72644039 122.49094766 310.6713043 C107.66403008 310.61520622 92.83718749 310.58187073 78.01016814 310.56969011 C68.86012691 310.56145503 59.71049023 310.5354406 50.56057353 310.48672228 C44.28714973 310.45502009 38.01393524 310.44541737 31.74043714 310.45321281 C28.12014105 310.45705811 24.50055211 310.45114134 20.88038158 310.41898823 C16.95455026 310.38437512 13.0296403 310.39629034 9.10367298 310.41269398 C7.96066933 310.39521693 6.81766568 310.37773988 5.64002556 310.35973322 C-1.14803677 310.43656342 -5.95740303 311.35846361 -10.08930492 317.13422108 Z M308.91069508 324.13422108 C306.04614319 329.68946476 303.55953378 335.26914674 301.29350758 341.09125233 C300.95943394 341.940387 300.6253603 342.78952168 300.28116322 343.6643877 C299.56633006 345.48238148 298.85313051 347.3010183 298.14143848 349.12024403 C296.26041661 353.92847088 294.36769073 358.7320939 292.47710133 363.53656483 C291.90459896 364.99307453 291.90459896 364.99307453 291.32053089 366.47900867 C287.57478857 376.00380696 283.78074138 385.50899098 279.97319508 395.00922108 C279.38285987 396.482934 278.79252774 397.95664815 278.20219898 399.43036366 C277.18634633 401.96580443 276.16991899 404.50101223 275.15312672 407.03607655 C274.74312428 408.05846424 274.33312183 409.08085194 273.91069508 410.13422108 C273.33339649 411.46477528 273.33339649 411.46477528 272.74443531 412.82220936 C271.48657441 416.31033314 271.86746248 418.61331106 272.91069508 422.13422108 C277.92526542 425.33932672 283.56455318 426.47100926 289.28569508 427.82172108 C290.21253101 428.04666248 291.13936695 428.27160389 292.09428883 428.5033617 C294.364947 429.05346961 296.63698679 429.59688609 298.91069508 430.13422108 C302.85822562 424.2854169 306.8050858 418.43616075 310.75151539 412.58661366 C312.08958309 410.60344058 313.42779519 408.62036491 314.76616383 406.63739491 C318.57450247 400.99472548 322.37961544 395.34990635 326.18059254 389.70227528 C327.80154579 387.29623534 329.42657971 384.89300052 331.05229664 382.49017811 C331.96623542 381.13338042 332.87998716 379.77645673 333.79350758 378.41937733 C334.20390278 377.81540623 334.61429798 377.21143513 335.0371294 376.58916187 C336.70387518 374.10493644 337.958451 371.9909533 338.91069508 369.13422108 C340.34725361 369.05290644 341.78514338 368.99488549 343.22319508 368.94672108 C344.42395679 368.89451405 344.42395679 368.89451405 345.64897633 368.84125233 C347.91069508 369.13422108 347.91069508 369.13422108 349.64116383 370.33343983 C351.77743657 373.36366055 351.9935048 376.25218228 351.65131092 379.8970232 C351.47144138 380.89818668 351.29157185 381.89935017 351.10625172 382.93085194 C350.90596867 384.07231174 350.70568562 385.21377155 350.49933338 386.38982105 C350.16348476 388.22589672 350.16348476 388.22589672 349.82085133 390.09906483 C349.47954751 392.03353524 349.13824897 393.96800659 348.79726028 395.90253258 C348.31823538 398.60748413 347.83104745 401.3109394 347.34373951 404.01440907 C346.4924999 408.74060465 345.6488367 413.46813349 344.81314564 418.19710255 C344.36782653 420.7122544 343.9173045 423.22649189 343.4610033 425.73967457 C343.15585049 427.45659252 343.15585049 427.45659252 342.84453297 429.20819569 C342.66386784 430.21015476 342.48320271 431.21211384 342.29706287 432.24443531 C341.89631871 435.24174716 341.84365892 438.11391351 341.91069508 441.13422108 C347.85152784 443.17897818 353.81299452 444.99736243 359.88335133 446.61468983 C360.69187046 446.83240543 361.5003896 447.05012104 362.33340931 447.27443409 C364.87933577 447.95938206 367.42623789 448.64061706 369.97319508 449.32172108 C371.71479785 449.78957324 373.45633492 450.25767005 375.19780445 450.72601795 C379.43468159 451.86491083 383.67243705 453.00047831 387.91069508 454.13422108 C390.15574226 450.26977464 391.09231793 446.04601268 392.18803883 441.75531483 C392.62325061 440.09572171 393.05880795 438.43621918 393.49467945 436.7767992 C394.17460689 434.16856507 394.85130794 431.55960019 395.52177906 428.94891834 C396.1723043 426.42358744 396.83551757 423.90186095 397.50053883 421.38031483 C397.69751865 420.59901707 397.89449848 419.81771931 398.0974474 419.01274586 C399.10871927 415.21049729 399.86862713 412.66369384 402.91069508 410.13422108 C405.78569508 409.13422108 405.78569508 409.13422108 408.91069508 409.13422108 C411.84819508 411.07172108 411.84819508 411.07172108 413.91069508 414.13422108 C413.54442812 419.70842713 412.323253 424.91198805 410.84428883 430.28265858 C410.64593937 431.02126118 410.44758991 431.75986378 410.24322987 432.52084827 C409.61657677 434.85169718 408.98287147 437.18054533 408.34819508 439.50922108 C407.71096956 441.85957607 407.0752956 444.21032609 406.44244862 446.5618639 C406.05015837 448.01832439 405.65517988 449.47406404 405.25723743 450.92899036 C404.25528531 454.48084 404.25528531 454.48084 403.91069508 458.13422108 C407.30558445 459.11668081 410.70176436 460.09460441 414.09819508 461.07172108 C415.05790211 461.34951405 416.01760914 461.62730701 417.0063982 461.91351795 C417.93774586 462.18099842 418.86909351 462.44847889 419.82866383 462.72406483 C421.10906544 463.09326038 421.10906544 463.09326038 422.41533375 463.46991444 C423.23880299 463.68913563 424.06227222 463.90835682 424.91069508 464.13422108 C425.73738697 464.39018055 426.56407887 464.64614002 427.41582203 464.90985584 C429.99605762 465.32784079 429.99605762 465.32784079 432.57646656 464.10052967 C435.64795034 461.51317161 436.16890966 459.53333053 437.25835133 455.67328358 C437.45695255 454.98594135 437.65555378 454.29859913 437.86017323 453.59042835 C438.5669685 451.11096704 439.23979549 448.62363084 439.91069508 446.13422108 C440.47823661 444.06618611 441.04578244 441.99815233 441.61333179 439.93011951 C443.55693689 432.79827002 445.45375646 425.6542573 447.34819508 418.50922108 C448.31872887 414.86067448 449.29024533 411.21239113 450.26216602 407.56421375 C450.89598244 405.18419399 451.52894912 402.80394775 452.16103077 400.42346668 C453.65702057 394.79722385 455.16832396 389.17610983 456.71977711 383.56488514 C457.00103947 382.54609272 457.28230183 381.5273003 457.57208729 380.47763538 C458.0987033 378.57610456 458.62857378 376.67547092 459.16226673 374.77591419 C459.3938599 373.93976582 459.62545307 373.10361744 459.86406422 372.24213123 C460.06729801 371.51676167 460.27053181 370.7913921 460.4799242 370.04404163 C461.02070913 367.97277419 461.02070913 367.97277419 460.91069508 365.13422108 C441.22499895 359.20545949 421.37661726 353.93882316 401.50106525 348.69329929 C394.48598178 346.84072014 387.47283601 344.98080719 380.45952702 343.12152386 C378.71613325 342.65935094 376.97271241 342.19728016 375.22926426 341.73531246 C357.81934497 337.12162324 340.43101317 332.43109861 323.05522633 327.69037342 C322.14731342 327.44304966 321.23940052 327.1957259 320.30397511 326.94090748 C318.64407427 326.48853031 316.98448391 326.0350116 315.32527637 325.58009815 C312.16227852 324.57042742 312.16227852 324.57042742 308.91069508 324.13422108 Z " fill="#FFC106" transform="translate(27.08930492401123,15.865778923034668)"/>
<path d="M0 0 C0.67438158 -0.0055344 1.34876315 -0.01106879 2.04358053 -0.0167709 C4.30241894 -0.03037998 6.56015284 -0.01540817 8.81896973 -0.00050354 C10.43866953 -0.00428665 12.0583661 -0.00978663 13.67805481 -0.01687622 C18.07684389 -0.03084922 22.47524264 -0.01964824 26.87401009 -0.00316501 C31.47525472 0.01067535 36.07647645 0.00422657 40.67773438 0.0007019 C48.40505267 -0.00200102 56.13221571 0.01148246 63.85949707 0.03465271 C72.79594053 0.06126299 81.73212438 0.06300986 90.66859388 0.05126435 C99.26178786 0.04048867 107.85488783 0.04667197 116.44807434 0.06081963 C120.10669677 0.06658126 123.76525045 0.06649535 127.4238739 0.06175423 C131.73148385 0.05698521 136.03880918 0.06708287 140.34636497 0.08870888 C141.92820971 0.09427797 143.5100818 0.09474091 145.09192848 0.08975601 C147.2495094 0.08380901 149.40621839 0.09629581 151.5637207 0.11352539 C152.771605 0.11595529 153.97948929 0.11838518 155.22397614 0.12088871 C158.5675905 0.53674242 159.94798479 1.10468383 162.28186035 3.50120544 C163.28186035 6.87620544 163.28186035 6.87620544 163.28186035 10.50120544 C161.19560696 13.92862173 160.10742925 15.22601581 156.28186035 16.50120544 C154.13716466 16.59943347 151.98949693 16.63622598 149.84255981 16.64164734 C148.85782875 16.64610402 148.85782875 16.64610402 147.85320413 16.65065074 C145.64923423 16.65933555 143.44531867 16.66084579 141.24133301 16.66233826 C139.66281518 16.66696654 138.08429848 16.67199122 136.50578308 16.67738342 C132.21443998 16.69050742 127.92311253 16.69695225 123.63175249 16.70139408 C120.95137223 16.70432449 118.27099624 16.70842921 115.59061813 16.71289825 C107.20622166 16.72657248 98.82183497 16.7362398 90.43742812 16.74010015 C80.75511995 16.74458246 71.07295285 16.76213868 61.39068758 16.79110074 C53.90865464 16.81270551 46.42666142 16.82280376 38.9445976 16.82414126 C34.47479607 16.82519005 30.00512715 16.83111365 25.53535843 16.84896088 C21.33121866 16.86542102 17.12731149 16.86760714 12.92315102 16.85882187 C11.38041245 16.85805042 9.83766148 16.86240845 8.2949543 16.87228012 C6.18806784 16.88497101 4.0820088 16.87913927 1.97512817 16.86869812 C0.79636423 16.87016468 -0.38239971 16.87163124 -1.59688377 16.87314224 C-5.05929968 16.46055195 -6.92829237 15.55306519 -9.71813965 13.50120544 C-11.46507957 11.11901464 -11.74090238 9.95646011 -11.59313965 7.00120544 C-9.48672177 0.98286865 -6.02927074 0.00104466 0 0 Z " fill="#FFC007" transform="translate(190.7181396484375,213.49879455566406)"/>
<path d="M0 0 C1.00288376 -0.00551503 1.00288376 -0.00551503 2.0260278 -0.01114148 C4.2768912 -0.02219595 6.52770846 -0.0260251 8.77859497 -0.02983093 C10.3881444 -0.03609417 11.99769238 -0.04274084 13.60723877 -0.04974365 C17.98740947 -0.06716434 22.36756925 -0.07770794 26.74776602 -0.08594918 C29.48257354 -0.09109621 32.21737765 -0.09717202 34.95218277 -0.10346031 C43.50369993 -0.12251387 52.05520843 -0.13674564 60.60674274 -0.14507228 C70.48777222 -0.15485163 80.36857811 -0.18118858 90.24952877 -0.22157317 C97.88099292 -0.25169693 105.51239283 -0.26653752 113.1439153 -0.26985329 C117.70484841 -0.27220773 122.2655427 -0.28121917 126.8264122 -0.30631447 C131.11594253 -0.32953548 135.40507575 -0.33385271 139.69465256 -0.32355309 C141.27006854 -0.32305618 142.84550368 -0.32942205 144.42086029 -0.34310913 C146.5699531 -0.36073817 148.71760675 -0.35376831 150.86669922 -0.34057617 C152.0698068 -0.34296453 153.27291439 -0.34535288 154.51247978 -0.34781361 C158.18340815 0.24836109 159.33841329 1.21823815 161.56033325 4.14717102 C162.48351957 7.31238126 162.85857067 9.25245876 161.81033325 12.39717102 C160.56033325 14.14717102 160.56033325 14.14717102 157.56033325 16.14717102 C154.64390755 16.40443993 154.64390755 16.40443993 151.00714111 16.41459656 C150.00403406 16.42139323 150.00403406 16.42139323 148.98066223 16.4283272 C146.73517675 16.44100847 144.48993265 16.43934847 142.24441528 16.43769836 C140.63633918 16.44368131 139.02826596 16.45048632 137.42019653 16.45805359 C133.04826175 16.47574491 128.67640523 16.48041029 124.30443811 16.48168516 C120.65628857 16.48358285 117.00815731 16.4909389 113.3600148 16.49802935 C104.75343837 16.51432291 96.1469038 16.51919743 87.54031372 16.51777649 C78.65898701 16.51657487 69.77790325 16.53767838 60.89663804 16.56926382 C53.27447017 16.59540648 45.65238174 16.60614463 38.03016937 16.60486567 C33.47649913 16.60435543 28.92304472 16.61007261 24.3694191 16.63122177 C20.0864196 16.65057035 15.80384254 16.650752 11.52082825 16.63618851 C9.94906371 16.63409507 8.37727297 16.63883315 6.80555344 16.65090942 C4.65903534 16.66633358 2.513979 16.65707473 0.36749268 16.64164734 C-0.8333943 16.64273687 -2.03428127 16.64382641 -3.27155876 16.64494896 C-7.08840555 16.0452402 -8.73746 14.86418301 -11.43966675 12.14717102 C-12.50216675 9.20967102 -12.50216675 9.20967102 -12.43966675 6.14717102 C-8.80550684 0.50795737 -6.4733517 0.023008 0 0 Z " fill="#FFC007" transform="translate(191.43966674804688,65.85282897949219)"/>
<path d="M0 0 C6.30736361 3.44111622 8.91534923 6.7244222 12 13.1875 C13.56260228 20.57434713 13.55090459 27.54390929 10.078125 34.3671875 C5.92432037 40.55122249 -0.00703943 44.88785685 -7.3125 46.4375 C-15.398057 47.59257957 -21.22123919 44.85506321 -28.0625 40.8125 C-33.40715221 35.17092266 -36.19011538 28.14773095 -36.3125 20.4375 C-35.79170498 12.98612511 -32.63967401 7.60921173 -27.3125 2.4375 C-18.54258204 -3.39304985 -9.61392482 -4.46276017 0 0 Z M-19.3125 17.4375 C-20.75487527 20.86314128 -20.43006353 22.13771299 -19.0625 25.625 C-17.45439118 28.64147879 -17.45439118 28.64147879 -14.3125 30.4375 C-10.50884586 30.2991853 -8.06123203 29.93665469 -4.875 27.8125 C-2.69543065 24.49955459 -2.82625617 22.32745066 -3.3125 18.4375 C-4.14583333 15.9375 -4.14583333 15.9375 -6.3125 14.4375 C-11.75147937 12.62450688 -15.3910093 12.92184404 -19.3125 17.4375 Z " fill="#FFC106" transform="translate(133.3125,347.5625)"/>
<path d="M0 0 C7.49560134 3.82025376 11.53115577 8.17254511 14.1875 16.25 C15.51788276 24.94538171 14.22806006 32.0111957 9.1875 39.25 C4.6098209 44.22005159 -3.05289683 47.36608745 -9.8125 47.75 C-15.50850276 47.45938761 -20.78350362 44.76449819 -25.8125 42.25 C-25.8125 41.59 -25.8125 40.93 -25.8125 40.25 C-26.8025 39.92 -27.7925 39.59 -28.8125 39.25 C-33.65391376 31.70309032 -34.75399091 25.24400733 -33.8125 16.25 C-31.79578528 9.20625491 -28.29837806 5.16398249 -22.09375 1.40625 C-14.65303594 -2.36507083 -7.8532157 -3.33007811 0 0 Z M-17.8125 19.25 C-18.64583333 22.75 -18.64583333 22.75 -17.8125 26.25 C-15.36651113 29.63121991 -13.91953441 31.01936783 -9.8125 31.875 C-5.70546559 31.01936783 -4.25848887 29.63121991 -1.8125 26.25 C-0.97916667 22.75 -0.97916667 22.75 -1.8125 19.25 C-4.25848887 15.86878009 -5.70546559 14.48063217 -9.8125 13.625 C-13.91953441 14.48063217 -15.36651113 15.86878009 -17.8125 19.25 Z " fill="#FFC106" transform="translate(70.8125,346.75)"/>
<path d="M0 0 C5.84450646 3.53184154 10.50406208 8.98644525 12.5625 15.5 C13.63075842 24.0798018 12.84515791 31.47762061 7.5625 38.5 C2.17064252 43.72879728 -3.53521501 46.76523519 -11.125 46.9375 C-18.36565283 46.78609644 -24.20341722 44.8280188 -29.3203125 39.5625 C-35.29251729 31.94577505 -36.34252131 25.07234082 -35.4375 15.5 C-33.71170357 8.8480378 -28.9813245 4.31976734 -23.4375 0.5 C-16.65568202 -2.91366677 -6.96443471 -3.08620048 0 0 Z M-17.9375 16.0625 C-20.04756839 19.49136114 -20.06241523 21.54220351 -19.4375 25.5 C-16.98749553 28.88677089 -15.57357554 30.28698584 -11.4375 31.0625 C-7.5949697 30.34202557 -5.97982708 29.49097304 -3.4375 26.5 C-2.49512857 22.50106731 -2.82613409 19.51894318 -4.9375 16 C-9.32881564 13.36521062 -13.58826594 13.34422871 -17.9375 16.0625 Z " fill="#FFC106" transform="translate(72.4375,199.5)"/>
<path d="M0 0 C5.87295921 3.33304598 9.08034892 7.84048643 12 13.8125 C13.57942189 21.86755163 13.31330409 28.50868389 9.25 35.76953125 C5.55338129 40.84349588 0.55024564 44.05700955 -5.375 46 C-12.9704102 46.83637039 -20.18242762 46.87529273 -26.375 42 C-32.252475 36.41406642 -35.51449051 31.37813301 -36.33203125 23.171875 C-36.4671507 16.34220107 -34.44610849 11.06879694 -30.16015625 5.79296875 C-22.02942372 -2.37334685 -10.64076517 -4.81175724 0 0 Z M-19.375 18 C-20.03517005 20.80141726 -19.98484064 23.19243175 -19.375 26 C-17.97814994 28.6469872 -17.97814994 28.6469872 -15.375 30 C-11.91771642 30.75011367 -11.91771642 30.75011367 -8.375 30 C-4.99378009 27.55401113 -3.60563217 26.10703441 -2.75 22 C-3.59881992 17.9256644 -5.05225596 16.45594125 -8.375 14 C-13.31651119 13.07346665 -16.12532314 14.17685075 -19.375 18 Z " fill="#FFC106" transform="translate(133.375,52)"/>
<path d="M0 0 C6.19322166 3.76632752 10.46029255 9.5251581 12.5 16.4375 C13.59730454 25.04524447 12.04309436 31.10364768 7.5 38.4375 C6.84 38.4375 6.18 38.4375 5.5 38.4375 C5.5 39.0975 5.5 39.7575 5.5 40.4375 C4.06429734 41.25317174 2.62636566 42.06492093 1.1875 42.875 C-0.01326172 43.55369141 -0.01326172 43.55369141 -1.23828125 44.24609375 C-6.52623443 47.0316304 -11.65130226 47.10351663 -17.5 46.4375 C-24.31929912 44.26506614 -29.67738482 40.5330215 -33.5 34.4375 C-36.6984276 27.96344137 -36.63221727 19.92337349 -34.8828125 12.9921875 C-32.20611682 6.95185654 -27.0238533 2.21125166 -21.171875 -0.734375 C-14.65441959 -2.75440504 -6.28656277 -2.83320914 0 0 Z M-19.5 18.4375 C-20.69251581 21.07807073 -20.56869815 22.18144325 -19.8125 25 C-18.311237 27.78805987 -17.29881662 28.96034679 -14.5 30.4375 C-11.54279372 31.10430368 -11.54279372 31.10430368 -8.5 30.4375 C-5.17121368 27.97709272 -3.70698052 26.54139613 -2.9375 22.4375 C-3.65797443 18.5949697 -4.50902696 16.97982708 -7.5 14.4375 C-12.66396797 13.22058132 -16.36998881 13.93028389 -19.5 18.4375 Z " fill="#FFC106" transform="translate(133.5,199.5625)"/>
<path d="M0 0 C5.71292118 3.25929477 9.64492348 7.42730051 12.05078125 13.69921875 C13.64113456 20.46125534 13.70744431 27.55639576 10.5 33.8125 C7.2063618 38.87391012 3.24222841 42.50397616 -2.125 45.25 C-10.71539895 46.87082999 -18.9962127 46.89491604 -26.4375 41.875 C-31.54552611 37.3494681 -34.91475352 31.97565573 -35.7890625 25.1171875 C-36.14994198 17.69066762 -34.90110561 11.9051595 -30.4375 5.875 C-21.975464 -2.34818821 -10.98352697 -5.11358815 0 0 Z M-19.4375 18.875 C-20.06241523 22.83279649 -20.04756839 24.88363886 -17.9375 28.3125 C-14.41191116 30.51599302 -11.48735528 30.67169284 -7.4375 29.875 C-4.77083333 28.54166667 -4.77083333 28.54166667 -3.4375 25.875 C-2.83306608 23.06582139 -2.77709146 20.67742927 -3.4375 17.875 C-5.97982708 14.88402696 -7.5949697 14.03297443 -11.4375 13.3125 C-15.57357554 14.08801416 -16.98749553 15.48822911 -19.4375 18.875 Z " fill="#FFC006" transform="translate(72.4375,52.125)"/>
</svg>
